# Blender 5.2.2 LTS
# www.blender.org
mtllib arm.mtl
o arm
v -0.103680 1.006595 1.582972
v 0.077856 1.423779 -0.622720
v -0.138109 1.717578 1.620904
v 0.077856 1.423779 -1.092705
v -0.279437 1.006595 -0.578850
v 0.100355 1.425994 -0.622720
v -0.279437 1.717578 -0.578850
v 0.100355 1.425994 -1.092705
v 0.121988 1.432557 -0.622720
v 0.271039 1.032488 1.595011
v 0.207215 1.006595 1.582972
v 0.121988 1.432557 -1.092705
v 0.245147 1.717578 1.620904
v 0.141925 1.443213 -0.622720
v 0.271039 1.691686 1.595011
v 0.141925 1.443213 -1.092705
v 0.271039 1.032488 -0.552958
v 0.159400 1.457555 -0.622720
v 0.245147 1.006595 -0.578850
v 0.159400 1.457555 -1.092705
v 0.271039 1.691686 -0.552958
v 0.173742 1.475030 -0.622720
v 0.245147 1.717578 -0.578850
v 0.173742 1.475030 -1.092705
v -0.103680 1.006595 0.838457
v 0.184399 1.494968 -0.622720
v -0.279437 1.717578 0.800525
v 0.184399 1.494968 -1.092705
v 0.207215 1.006595 0.838457
v 0.190961 1.516601 -0.622720
v 0.271039 1.032488 0.793946
v 0.190961 1.516601 -1.092705
v 0.193177 1.539099 -0.622720
v 0.245147 1.717578 0.800525
v 0.193177 1.539099 -1.092705
v 0.271039 1.691686 0.793945
v -0.279437 1.006595 0.800525
v 0.190961 1.561597 -0.622720
v 0.190961 1.561597 -1.092705
v -0.138109 1.006595 1.620904
v 0.245147 1.006595 1.620904
v 0.184399 1.583230 -0.622720
v 0.245147 1.006595 0.800525
v 0.184399 1.583230 -1.092705
v -0.103680 0.948735 0.838457
v 0.173742 1.603168 -0.622720
v 0.173742 1.603168 -1.092705
v -0.103680 0.948735 1.582972
v 0.207215 0.948735 1.582972
v 0.159400 1.620643 -0.622720
v 0.207215 0.948735 0.838457
v 0.159400 1.620643 -1.092705
v -0.136608 0.948735 0.763009
v 0.141925 1.634984 -0.622720
v 0.141925 1.634984 -1.092705
v -0.136608 0.948735 1.658421
v 0.252688 0.948735 1.658421
v 0.121988 1.645641 -0.622720
v 0.252688 0.948735 0.763009
v 0.121988 1.645641 -1.092705
v -0.136608 0.663645 0.763009
v 0.100355 1.652204 -0.622720
v 0.100355 1.652204 -1.092705
v -0.136608 0.663645 1.658421
v 0.077856 1.654419 -0.622720
v 0.252688 0.663645 1.658421
v 0.077856 1.654419 -1.092705
v 0.252688 0.663645 0.763009
v 0.055358 1.652204 -0.622720
v 0.055358 1.652204 -1.092705
v 0.033725 1.645641 -0.622720
v 0.033725 1.645641 -1.092705
v 0.013788 1.634984 -0.622720
v 0.013788 1.634984 -1.092705
v -0.003687 1.620643 -0.622720
v -0.003687 1.620643 -1.092705
v -0.018029 1.603168 -0.622720
v -0.018029 1.603168 -1.092705
v -0.028686 1.583230 -0.622720
v -0.028686 1.583230 -1.092705
v -0.035248 1.561597 -0.622720
v -0.035248 1.561597 -1.092705
v -0.037464 1.539099 -0.622720
v -0.037464 1.539099 -1.092705
v -0.035248 1.516601 -0.622720
v -0.035248 1.516601 -1.092705
v -0.028686 1.494968 -0.622720
v -0.028686 1.494968 -1.092705
v -0.018029 1.475030 -0.622720
v -0.018029 1.475030 -1.092705
v -0.003687 1.457555 -0.622720
v -0.003687 1.457555 -1.092705
v 0.013788 1.443213 -0.622720
v 0.013788 1.443213 -1.092705
v 0.033725 1.432557 -0.622720
v 0.033725 1.432557 -1.092705
v 0.055358 1.425994 -0.622720
v 0.055358 1.425994 -1.092705
v 0.077856 1.404296 -0.622720
v 0.104155 1.406886 -0.622720
v 0.129443 1.414557 -0.622720
v 0.152749 1.427015 -0.622720
v 0.173176 1.443779 -0.622720
v 0.189941 1.464207 -0.622720
v 0.202398 1.487512 -0.622720
v 0.210069 1.512800 -0.622720
v 0.212659 1.539099 -0.622720
v 0.210069 1.565398 -0.622720
v 0.202398 1.590686 -0.622720
v 0.189941 1.613991 -0.622720
v 0.173176 1.634419 -0.622720
v 0.152749 1.651183 -0.622720
v 0.129443 1.663640 -0.622720
v 0.104155 1.671312 -0.622720
v 0.077856 1.673902 -0.622720
v 0.051557 1.671312 -0.622720
v 0.026269 1.663640 -0.622720
v 0.002964 1.651183 -0.622720
v -0.017464 1.634419 -0.622720
v -0.034228 1.613991 -0.622720
v -0.046685 1.590686 -0.622720
v -0.054356 1.565398 -0.622720
v -0.056946 1.539099 -0.622720
v -0.054356 1.512800 -0.622720
v -0.046685 1.487512 -0.622720
v -0.034228 1.464207 -0.622720
v -0.017464 1.443779 -0.622720
v 0.002964 1.427015 -0.622720
v 0.026269 1.414557 -0.622720
v 0.051557 1.406886 -0.622720
v 0.077856 1.415560 -1.092705
v 0.101958 1.417934 -1.092705
v 0.125133 1.424964 -1.092705
v 0.146491 1.436380 -1.092705
v 0.165212 1.451744 -1.092705
v 0.180575 1.470465 -1.092705
v 0.191991 1.491823 -1.092705
v 0.199021 1.514998 -1.092705
v 0.201395 1.539099 -1.092705
v 0.199021 1.563200 -1.092705
v 0.191991 1.586375 -1.092705
v 0.180575 1.607733 -1.092705
v 0.165212 1.626454 -1.092705
v 0.146491 1.641818 -1.092705
v 0.125133 1.653234 -1.092705
v 0.101958 1.660264 -1.092705
v 0.077856 1.662638 -1.092705
v 0.053755 1.660264 -1.092705
v 0.030580 1.653234 -1.092705
v 0.009222 1.641818 -1.092705
v -0.009499 1.626454 -1.092705
v -0.024862 1.607733 -1.092705
v -0.036278 1.586375 -1.092705
v -0.043308 1.563200 -1.092705
v -0.045682 1.539099 -1.092705
v -0.043308 1.514998 -1.092705
v -0.036278 1.491823 -1.092705
v -0.024862 1.470465 -1.092705
v -0.009499 1.451744 -1.092705
v 0.009222 1.436380 -1.092705
v 0.030580 1.424964 -1.092705
v 0.053755 1.417934 -1.092705
v 0.077856 1.415560 -1.116814
v 0.101958 1.417934 -1.116814
v 0.125133 1.424964 -1.116814
v 0.146491 1.436380 -1.116814
v 0.165212 1.451744 -1.116814
v 0.180575 1.470465 -1.116814
v 0.191991 1.491823 -1.116814
v 0.199021 1.514998 -1.116814
v 0.201395 1.539099 -1.116814
v 0.199021 1.563200 -1.116814
v 0.191991 1.586375 -1.116814
v 0.180575 1.607733 -1.116814
v 0.165212 1.626454 -1.116814
v 0.146491 1.641818 -1.116814
v 0.125133 1.653234 -1.116814
v 0.101958 1.660264 -1.116814
v 0.077856 1.662638 -1.116814
v 0.053755 1.660264 -1.116814
v 0.030580 1.653234 -1.116814
v 0.009222 1.641818 -1.116814
v -0.009499 1.626454 -1.116814
v -0.024862 1.607733 -1.116814
v -0.036278 1.586375 -1.116814
v -0.043308 1.563200 -1.116814
v -0.045682 1.539099 -1.116814
v -0.043308 1.514998 -1.116814
v -0.036278 1.491823 -1.116814
v -0.024862 1.470465 -1.116814
v -0.009499 1.451744 -1.116814
v 0.009222 1.436380 -1.116814
v 0.030580 1.424964 -1.116814
v 0.053755 1.417934 -1.116814
v 0.077856 1.398420 -1.116814
v 0.105301 1.401123 -1.116814
v 0.131692 1.409129 -1.116814
v 0.156013 1.422129 -1.116814
v 0.177331 1.439624 -1.116814
v 0.194827 1.460942 -1.116814
v 0.207827 1.485264 -1.116814
v 0.215832 1.511654 -1.116814
v 0.218535 1.539099 -1.116814
v 0.215832 1.566544 -1.116814
v 0.207827 1.592935 -1.116814
v 0.194827 1.617256 -1.116814
v 0.177331 1.638574 -1.116814
v 0.156013 1.656069 -1.116814
v 0.131692 1.669070 -1.116814
v 0.105301 1.677075 -1.116814
v 0.077856 1.679778 -1.116814
v 0.050411 1.677075 -1.116814
v 0.024021 1.669070 -1.116814
v -0.000300 1.656069 -1.116814
v -0.021618 1.638574 -1.116814
v -0.039114 1.617256 -1.116814
v -0.052114 1.592935 -1.116814
v -0.060119 1.566544 -1.116814
v -0.062822 1.539099 -1.116814
v -0.060119 1.511654 -1.116814
v -0.052114 1.485264 -1.116814
v -0.039114 1.460942 -1.116814
v -0.021618 1.439624 -1.116814
v -0.000300 1.422129 -1.116814
v 0.024021 1.409129 -1.116814
v 0.050411 1.401123 -1.116814
v 0.077856 1.398420 -1.262924
v 0.105301 1.401123 -1.262924
v 0.131692 1.409129 -1.262924
v 0.156013 1.422129 -1.262924
v 0.177331 1.439624 -1.262924
v 0.194827 1.460942 -1.262924
v 0.207827 1.485264 -1.262924
v 0.215832 1.511654 -1.262924
v 0.218535 1.539099 -1.262924
v 0.215832 1.566544 -1.262924
v 0.207827 1.592935 -1.262924
v 0.194827 1.617256 -1.262924
v 0.177331 1.638574 -1.262924
v 0.156013 1.656069 -1.262924
v 0.131692 1.669070 -1.262924
v 0.105301 1.677075 -1.262924
v 0.077856 1.679778 -1.262924
v 0.050411 1.677075 -1.262924
v 0.024021 1.669070 -1.262924
v -0.000300 1.656069 -1.262924
v -0.021618 1.638574 -1.262924
v -0.039114 1.617256 -1.262924
v -0.052114 1.592935 -1.262924
v -0.060119 1.566544 -1.262924
v -0.062822 1.539099 -1.262924
v -0.060119 1.511654 -1.262924
v -0.052114 1.485264 -1.262924
v -0.039114 1.460942 -1.262924
v -0.021618 1.439624 -1.262924
v -0.000300 1.422129 -1.262924
v 0.024021 1.409129 -1.262924
v 0.050411 1.401123 -1.262924
v 0.077856 1.421578 -1.262924
v 0.100784 1.423836 -1.262924
v 0.122830 1.430524 -1.262924
v 0.143148 1.441384 -1.262924
v 0.160956 1.455999 -1.262924
v 0.175572 1.473808 -1.262924
v 0.186432 1.494126 -1.262924
v 0.193119 1.516172 -1.262924
v 0.195378 1.539099 -1.262924
v 0.193119 1.562026 -1.262924
v 0.186432 1.584072 -1.262924
v 0.175572 1.604390 -1.262924
v 0.160956 1.622199 -1.262924
v 0.143148 1.636814 -1.262924
v 0.122830 1.647674 -1.262924
v 0.100784 1.654362 -1.262924
v 0.077856 1.656620 -1.262924
v 0.054929 1.654362 -1.262924
v 0.032883 1.647674 -1.262924
v 0.012565 1.636814 -1.262924
v -0.005243 1.622199 -1.262924
v -0.019859 1.604390 -1.262924
v -0.030719 1.584072 -1.262924
v -0.037407 1.562026 -1.262924
v -0.039665 1.539099 -1.262924
v -0.037407 1.516172 -1.262924
v -0.030719 1.494126 -1.262924
v -0.019859 1.473808 -1.262924
v -0.005243 1.455999 -1.262924
v 0.012565 1.441384 -1.262924
v 0.032883 1.430524 -1.262924
v 0.054929 1.423836 -1.262924
v 0.077856 1.421578 -1.287763
v 0.100784 1.423836 -1.287763
v 0.122830 1.430524 -1.287763
v 0.143148 1.441384 -1.287763
v 0.160956 1.455999 -1.287763
v 0.175572 1.473808 -1.287763
v 0.186432 1.494126 -1.287763
v 0.193119 1.516172 -1.287763
v 0.195378 1.539099 -1.287763
v 0.193119 1.562026 -1.287763
v 0.186432 1.584072 -1.287763
v 0.175572 1.604390 -1.287763
v 0.160956 1.622199 -1.287763
v 0.143148 1.636814 -1.287763
v 0.122830 1.647674 -1.287763
v 0.100784 1.654362 -1.287763
v 0.077856 1.656620 -1.287763
v 0.054929 1.654362 -1.287763
v 0.032883 1.647674 -1.287763
v 0.012565 1.636814 -1.287763
v -0.005243 1.622199 -1.287763
v -0.019859 1.604390 -1.287763
v -0.030719 1.584072 -1.287763
v -0.037407 1.562026 -1.287763
v -0.039665 1.539099 -1.287763
v -0.037407 1.516172 -1.287763
v -0.030719 1.494126 -1.287763
v -0.019859 1.473808 -1.287763
v -0.005243 1.455999 -1.287763
v 0.012565 1.441384 -1.287763
v 0.032883 1.430524 -1.287763
v 0.054929 1.423836 -1.287763
v 0.077856 1.465336 -1.287763
v 0.092247 1.466753 -1.287763
v 0.106084 1.470951 -1.287763
v 0.118837 1.477767 -1.287763
v 0.130015 1.486940 -1.287763
v 0.139188 1.498118 -1.287763
v 0.146005 1.510871 -1.287763
v 0.150202 1.524708 -1.287763
v 0.151620 1.539099 -1.287763
v 0.150202 1.553489 -1.287763
v 0.146005 1.567327 -1.287763
v 0.139188 1.580080 -1.287763
v 0.130015 1.591257 -1.287763
v 0.118837 1.600431 -1.287763
v 0.106084 1.607247 -1.287763
v 0.092247 1.611445 -1.287763
v 0.077856 1.612862 -1.287763
v 0.063466 1.611445 -1.287763
v 0.049629 1.607247 -1.287763
v 0.036876 1.600431 -1.287763
v 0.025698 1.591257 -1.287763
v 0.016525 1.580080 -1.287763
v 0.009708 1.567327 -1.287763
v 0.005510 1.553489 -1.287763
v 0.004093 1.539099 -1.287763
v 0.005510 1.524708 -1.287763
v 0.009708 1.510871 -1.287763
v 0.016525 1.498118 -1.287763
v 0.025698 1.486940 -1.287763
v 0.036876 1.477767 -1.287763
v 0.049629 1.470951 -1.287763
v 0.063466 1.466753 -1.287763
v 0.077856 1.465336 -1.382734
v 0.092247 1.466753 -1.382734
v 0.106084 1.470951 -1.382734
v 0.118837 1.477767 -1.382734
v 0.130015 1.486940 -1.382734
v 0.139188 1.498118 -1.382734
v 0.146005 1.510871 -1.382734
v 0.150202 1.524708 -1.382734
v 0.151620 1.539099 -1.382734
v 0.150202 1.553489 -1.382734
v 0.146005 1.567327 -1.382734
v 0.139188 1.580080 -1.382734
v 0.130015 1.591257 -1.382734
v 0.118837 1.600431 -1.382734
v 0.106084 1.607247 -1.382734
v 0.092247 1.611445 -1.382734
v 0.077856 1.612862 -1.382734
v 0.063466 1.611445 -1.382734
v 0.049629 1.607247 -1.382734
v 0.036876 1.600431 -1.382734
v 0.025698 1.591257 -1.382734
v 0.016525 1.580080 -1.382734
v 0.009708 1.567327 -1.382734
v 0.005510 1.553489 -1.382734
v 0.004093 1.539099 -1.382734
v 0.005510 1.524708 -1.382734
v 0.009708 1.510871 -1.382734
v 0.016525 1.498118 -1.382734
v 0.025698 1.486940 -1.382734
v 0.036876 1.477767 -1.382734
v 0.049629 1.470951 -1.382734
v 0.063466 1.466753 -1.382734
v 0.077856 1.407060 -1.382734
v 0.103616 1.409597 -1.382734
v 0.128385 1.417111 -1.382734
v 0.151213 1.429313 -1.382734
v 0.171222 1.445734 -1.382734
v 0.187643 1.465742 -1.382734
v 0.199844 1.488570 -1.382734
v 0.207358 1.513340 -1.382734
v 0.209895 1.539099 -1.382734
v 0.207358 1.564858 -1.382734
v 0.199844 1.589628 -1.382734
v 0.187643 1.612456 -1.382734
v 0.171222 1.632465 -1.382734
v 0.151213 1.648885 -1.382734
v 0.128385 1.661087 -1.382734
v 0.103616 1.668601 -1.382734
v 0.077856 1.671138 -1.382734
v 0.052097 1.668601 -1.382734
v 0.027327 1.661087 -1.382734
v 0.004499 1.648885 -1.382734
v -0.015509 1.632465 -1.382734
v -0.031930 1.612456 -1.382734
v -0.044131 1.589628 -1.382734
v -0.051645 1.564858 -1.382734
v -0.054183 1.539099 -1.382734
v -0.051645 1.513340 -1.382734
v -0.044131 1.488570 -1.382734
v -0.031930 1.465742 -1.382734
v -0.015509 1.445734 -1.382734
v 0.004499 1.429313 -1.382734
v 0.027327 1.417111 -1.382734
v 0.052097 1.409597 -1.382734
v 0.077856 1.407060 -1.420723
v 0.103616 1.409597 -1.420723
v 0.128385 1.417111 -1.420723
v 0.151213 1.429313 -1.420723
v 0.171222 1.445734 -1.420723
v 0.187643 1.465742 -1.420723
v 0.199844 1.488570 -1.420723
v 0.207358 1.513340 -1.420723
v 0.209895 1.539099 -1.420723
v 0.207358 1.564858 -1.420723
v 0.199844 1.589628 -1.420723
v 0.187643 1.612456 -1.420723
v 0.171222 1.632465 -1.420723
v 0.151213 1.648885 -1.420723
v 0.128385 1.661087 -1.420723
v 0.103616 1.668601 -1.420723
v 0.077856 1.671138 -1.420723
v 0.052097 1.668601 -1.420723
v 0.027327 1.661087 -1.420723
v 0.004499 1.648885 -1.420723
v -0.015509 1.632465 -1.420723
v -0.031930 1.612456 -1.420723
v -0.044131 1.589628 -1.420723
v -0.051645 1.564858 -1.420723
v -0.054183 1.539099 -1.420723
v -0.051645 1.513340 -1.420723
v -0.044131 1.488570 -1.420723
v -0.031930 1.465742 -1.420723
v -0.015509 1.445734 -1.420723
v 0.004499 1.429313 -1.420723
v 0.027327 1.417111 -1.420723
v 0.052097 1.409597 -1.420723
v 0.077856 1.422553 -1.420723
v 0.100593 1.424792 -1.420723
v 0.122457 1.431424 -1.420723
v 0.142606 1.442194 -1.420723
v 0.160267 1.456688 -1.420723
v 0.174761 1.474349 -1.420723
v 0.185531 1.494498 -1.420723
v 0.192163 1.516362 -1.420723
v 0.194403 1.539099 -1.420723
v 0.192163 1.561836 -1.420723
v 0.185531 1.583699 -1.420723
v 0.174761 1.603849 -1.420723
v 0.160267 1.621510 -1.420723
v 0.142606 1.636004 -1.420723
v 0.122457 1.646774 -1.420723
v 0.100593 1.653406 -1.420723
v 0.077856 1.655645 -1.420723
v 0.055119 1.653406 -1.420723
v 0.033256 1.646774 -1.420723
v 0.013107 1.636004 -1.420723
v -0.004554 1.621510 -1.420723
v -0.019048 1.603849 -1.420723
v -0.029818 1.583699 -1.420723
v -0.036450 1.561836 -1.420723
v -0.038690 1.539099 -1.420723
v -0.036450 1.516362 -1.420723
v -0.029818 1.494498 -1.420723
v -0.019048 1.474349 -1.420723
v -0.004554 1.456688 -1.420723
v 0.013107 1.442194 -1.420723
v 0.033256 1.431424 -1.420723
v 0.055119 1.424792 -1.420723
v 0.077856 1.422553 -1.490856
v 0.100593 1.424792 -1.490856
v 0.122457 1.431424 -1.490856
v 0.142606 1.442194 -1.490856
v 0.160267 1.456688 -1.490856
v 0.174761 1.474349 -1.490856
v 0.185531 1.494498 -1.490856
v 0.192163 1.516362 -1.490856
v 0.194403 1.539099 -1.490856
v 0.192163 1.561836 -1.490856
v 0.185531 1.583699 -1.490856
v 0.174761 1.603849 -1.490856
v 0.160267 1.621510 -1.490856
v 0.142606 1.636004 -1.490856
v 0.122457 1.646774 -1.490856
v 0.100593 1.653406 -1.490856
v 0.077856 1.655645 -1.490856
v 0.055119 1.653406 -1.490856
v 0.033256 1.646774 -1.490856
v 0.013107 1.636004 -1.490856
v -0.004554 1.621510 -1.490856
v -0.019048 1.603849 -1.490856
v -0.029818 1.583699 -1.490856
v -0.036450 1.561836 -1.490856
v -0.038690 1.539099 -1.490856
v -0.036450 1.516362 -1.490856
v -0.029818 1.494498 -1.490856
v -0.019048 1.474349 -1.490856
v -0.004554 1.456688 -1.490856
v 0.013107 1.442194 -1.490856
v 0.033256 1.431424 -1.490856
v 0.055119 1.424792 -1.490856
v 0.077856 1.376293 -1.490855
v 0.109618 1.379422 -1.490855
v 0.140160 1.388686 -1.490855
v 0.168306 1.403731 -1.490855
v 0.192977 1.423978 -1.490855
v 0.213224 1.448649 -1.490855
v 0.228269 1.476796 -1.490855
v 0.237534 1.507337 -1.490855
v 0.240662 1.539099 -1.490855
v 0.237534 1.570861 -1.490855
v 0.228269 1.601402 -1.490855
v 0.213224 1.629549 -1.490855
v 0.192977 1.654220 -1.490855
v 0.168306 1.674467 -1.490855
v 0.140160 1.689512 -1.490855
v 0.109618 1.698776 -1.490855
v 0.077856 1.701905 -1.490855
v 0.046094 1.698776 -1.490855
v 0.015553 1.689512 -1.490855
v -0.012594 1.674467 -1.490855
v -0.037264 1.654220 -1.490855
v -0.057511 1.629549 -1.490855
v -0.072557 1.601402 -1.490855
v -0.081821 1.570861 -1.490855
v -0.084949 1.539099 -1.490855
v -0.081821 1.507337 -1.490855
v -0.072557 1.476796 -1.490855
v -0.057511 1.448649 -1.490855
v -0.037264 1.423978 -1.490855
v -0.012594 1.403731 -1.490855
v 0.015553 1.388686 -1.490855
v 0.046094 1.379422 -1.490855
v 0.077856 1.376293 -1.520808
v 0.109618 1.379422 -1.520808
v 0.140160 1.388686 -1.520808
v 0.168306 1.403731 -1.520808
v 0.192977 1.423978 -1.520808
v 0.213224 1.448649 -1.520808
v 0.228269 1.476796 -1.520808
v 0.237534 1.507337 -1.520808
v 0.240662 1.539099 -1.520808
v 0.237534 1.570861 -1.520808
v 0.228269 1.601402 -1.520808
v 0.213224 1.629549 -1.520808
v 0.192977 1.654220 -1.520808
v 0.168306 1.674467 -1.520808
v 0.140160 1.689512 -1.520808
v 0.109618 1.698776 -1.520808
v 0.077856 1.701905 -1.520808
v 0.046094 1.698776 -1.520808
v 0.015553 1.689512 -1.520808
v -0.012594 1.674467 -1.520808
v -0.037264 1.654220 -1.520808
v -0.057511 1.629549 -1.520808
v -0.072557 1.601402 -1.520808
v -0.081821 1.570861 -1.520808
v -0.084949 1.539099 -1.520808
v -0.081821 1.507337 -1.520808
v -0.072557 1.476796 -1.520808
v -0.057511 1.448649 -1.520808
v -0.037264 1.423978 -1.520808
v -0.012594 1.403731 -1.520808
v 0.015553 1.388686 -1.520808
v 0.046094 1.379422 -1.520808
v 0.077856 1.337810 -1.520808
v 0.117126 1.341678 -1.520808
v 0.154886 1.353132 -1.520808
v 0.189687 1.371733 -1.520808
v 0.220189 1.396766 -1.520808
v 0.245222 1.427269 -1.520808
v 0.263823 1.462069 -1.520808
v 0.275278 1.499830 -1.520808
v 0.279145 1.539099 -1.520808
v 0.275278 1.578369 -1.520808
v 0.263823 1.616129 -1.520808
v 0.245222 1.650929 -1.520808
v 0.220189 1.681432 -1.520808
v 0.189687 1.706465 -1.520808
v 0.154886 1.725066 -1.520808
v 0.117126 1.736521 -1.520808
v 0.077856 1.740388 -1.520808
v 0.038587 1.736521 -1.520808
v 0.000826 1.725066 -1.520808
v -0.033974 1.706465 -1.520808
v -0.064477 1.681432 -1.520808
v -0.089510 1.650929 -1.520808
v -0.108110 1.616129 -1.520808
v -0.119565 1.578369 -1.520808
v -0.123433 1.539099 -1.520808
v -0.119565 1.499830 -1.520808
v -0.108110 1.462069 -1.520808
v -0.089510 1.427269 -1.520808
v -0.064477 1.396766 -1.520808
v -0.033974 1.371733 -1.520808
v 0.000826 1.353132 -1.520808
v 0.038587 1.341678 -1.520808
v 0.077856 1.337810 -1.726093
v 0.117126 1.341678 -1.726093
v 0.154886 1.353132 -1.726093
v 0.189687 1.371733 -1.726093
v 0.220189 1.396766 -1.726093
v 0.245222 1.427269 -1.726093
v 0.263823 1.462069 -1.726093
v 0.275278 1.499830 -1.726093
v 0.279145 1.539099 -1.726093
v 0.275278 1.578369 -1.726093
v 0.263823 1.616129 -1.726093
v 0.245222 1.650929 -1.726093
v 0.220189 1.681432 -1.726093
v 0.189687 1.706465 -1.726093
v 0.154886 1.725066 -1.726093
v 0.117126 1.736521 -1.726093
v 0.077856 1.740388 -1.726093
v 0.038587 1.736521 -1.726093
v 0.000826 1.725066 -1.726093
v -0.033974 1.706465 -1.726093
v -0.064477 1.681432 -1.726093
v -0.089510 1.650929 -1.726093
v -0.108110 1.616129 -1.726093
v -0.119565 1.578369 -1.726093
v -0.123433 1.539099 -1.726093
v -0.119565 1.499830 -1.726093
v -0.108110 1.462069 -1.726093
v -0.089510 1.427269 -1.726093
v -0.064477 1.396766 -1.726093
v -0.033974 1.371733 -1.726093
v 0.000826 1.353132 -1.726093
v 0.038587 1.341678 -1.726093
v 0.077856 1.422295 -1.726093
v 0.100644 1.424539 -1.726093
v 0.122555 1.431186 -1.726093
v 0.142749 1.441980 -1.726093
v 0.160449 1.456506 -1.726093
v 0.174975 1.474206 -1.726093
v 0.185769 1.494400 -1.726093
v 0.192416 1.516312 -1.726093
v 0.194661 1.539099 -1.726093
v 0.192416 1.561886 -1.726093
v 0.185769 1.583798 -1.726093
v 0.174975 1.603992 -1.726093
v 0.160449 1.621692 -1.726093
v 0.142749 1.636218 -1.726093
v 0.122555 1.647012 -1.726093
v 0.100644 1.653659 -1.726093
v 0.077856 1.655903 -1.726093
v 0.055069 1.653659 -1.726093
v 0.033157 1.647012 -1.726093
v 0.012964 1.636218 -1.726093
v -0.004736 1.621692 -1.726093
v -0.019263 1.603992 -1.726093
v -0.030057 1.583798 -1.726093
v -0.036703 1.561886 -1.726093
v -0.038948 1.539099 -1.726093
v -0.036703 1.516312 -1.726093
v -0.030057 1.494400 -1.726093
v -0.019263 1.474206 -1.726093
v -0.004736 1.456506 -1.726093
v 0.012964 1.441980 -1.726093
v 0.033157 1.431186 -1.726093
v 0.055069 1.424539 -1.726093
v 0.077856 1.422295 -1.744356
v 0.100644 1.424539 -1.744356
v 0.122555 1.431186 -1.744356
v 0.142749 1.441980 -1.744356
v 0.160449 1.456506 -1.744356
v 0.174975 1.474206 -1.744356
v 0.185769 1.494400 -1.744356
v 0.192416 1.516312 -1.744356
v 0.194661 1.539099 -1.744356
v 0.192416 1.561886 -1.744356
v 0.185769 1.583798 -1.744356
v 0.174975 1.603992 -1.744356
v 0.160449 1.621692 -1.744356
v 0.142749 1.636218 -1.744356
v 0.122555 1.647012 -1.744356
v 0.100644 1.653659 -1.744356
v 0.077856 1.655903 -1.744356
v 0.055069 1.653659 -1.744356
v 0.033157 1.647012 -1.744356
v 0.012964 1.636218 -1.744356
v -0.004736 1.621692 -1.744356
v -0.019263 1.603992 -1.744356
v -0.030057 1.583798 -1.744356
v -0.036703 1.561886 -1.744356
v -0.038948 1.539099 -1.744356
v -0.036703 1.516312 -1.744356
v -0.030057 1.494400 -1.744356
v -0.019263 1.474206 -1.744356
v -0.004736 1.456506 -1.744356
v 0.012964 1.441980 -1.744356
v 0.033157 1.431186 -1.744356
v 0.055069 1.424539 -1.744356
v 0.077856 1.402792 -1.763351
v 0.104449 1.405411 -1.763351
v 0.130019 1.413167 -1.763351
v 0.153585 1.425763 -1.763351
v 0.174241 1.442715 -1.763351
v 0.191192 1.463371 -1.763351
v 0.203788 1.486936 -1.763351
v 0.211545 1.512507 -1.763351
v 0.214164 1.539099 -1.763351
v 0.211545 1.565691 -1.763351
v 0.203788 1.591262 -1.763351
v 0.191192 1.614827 -1.763351
v 0.174241 1.635483 -1.763351
v 0.153585 1.652434 -1.763351
v 0.130019 1.665030 -1.763351
v 0.104449 1.672787 -1.763351
v 0.077856 1.675406 -1.763351
v 0.051264 1.672787 -1.763351
v 0.025694 1.665030 -1.763351
v 0.002128 1.652434 -1.763351
v -0.018528 1.635483 -1.763351
v -0.035479 1.614827 -1.763351
v -0.048075 1.591262 -1.763351
v -0.055832 1.565691 -1.763351
v -0.058451 1.539099 -1.763351
v -0.055832 1.512507 -1.763351
v -0.048075 1.486936 -1.763351
v -0.035479 1.463371 -1.763351
v -0.018528 1.442715 -1.763351
v 0.002128 1.425763 -1.763351
v 0.025694 1.413167 -1.763351
v 0.051264 1.405411 -1.763351
v 0.077856 1.402792 -1.954024
v 0.104449 1.405411 -1.954024
v 0.130019 1.413167 -1.954024
v 0.153585 1.425763 -1.954024
v 0.174241 1.442715 -1.954024
v 0.191192 1.463371 -1.954024
v 0.203788 1.486936 -1.954024
v 0.211545 1.512507 -1.954024
v 0.214164 1.539099 -1.954024
v 0.211545 1.565691 -1.954024
v 0.203788 1.591262 -1.954024
v 0.191192 1.614827 -1.954024
v 0.174241 1.635483 -1.954024
v 0.153585 1.652434 -1.954024
v 0.130019 1.665030 -1.954024
v 0.104449 1.672787 -1.954024
v 0.077856 1.675406 -1.954024
v 0.051264 1.672787 -1.954024
v 0.025694 1.665030 -1.954024
v 0.002128 1.652434 -1.954024
v -0.018528 1.635483 -1.954024
v -0.035479 1.614827 -1.954024
v -0.048075 1.591262 -1.954024
v -0.055832 1.565691 -1.954024
v -0.058451 1.539099 -1.954024
v -0.055832 1.512507 -1.954024
v -0.048075 1.486936 -1.954024
v -0.035479 1.463371 -1.954024
v -0.018528 1.442715 -1.954024
v 0.002128 1.425763 -1.954024
v 0.025694 1.413167 -1.954024
v 0.051264 1.405411 -1.954024
v 0.077856 1.437012 -1.991283
v 0.097773 1.438974 -1.991283
v 0.116923 1.444783 -1.991283
v 0.134572 1.454217 -1.991283
v 0.150042 1.466913 -1.991283
v 0.162738 1.482383 -1.991283
v 0.172172 1.500032 -1.991283
v 0.177981 1.519183 -1.991283
v 0.179943 1.539099 -1.991283
v 0.177981 1.559015 -1.991283
v 0.172172 1.578166 -1.991283
v 0.162738 1.595815 -1.991283
v 0.150042 1.611285 -1.991283
v 0.134572 1.623981 -1.991283
v 0.116923 1.633414 -1.991283
v 0.097773 1.639224 -1.991283
v 0.077856 1.641185 -1.991283
v 0.057940 1.639224 -1.991283
v 0.038790 1.633414 -1.991283
v 0.021141 1.623981 -1.991283
v 0.005670 1.611285 -1.991283
v -0.007025 1.595815 -1.991283
v -0.016459 1.578166 -1.991283
v -0.022268 1.559015 -1.991283
v -0.024230 1.539099 -1.991283
v -0.022268 1.519183 -1.991283
v -0.016459 1.500032 -1.991283
v -0.007025 1.482383 -1.991283
v 0.005670 1.466913 -1.991283
v 0.021141 1.454217 -1.991283
v 0.038790 1.444783 -1.991283
v 0.057940 1.438974 -1.991283
v 0.077856 1.437012 -2.180068
v 0.097773 1.438974 -2.180068
v 0.116923 1.444783 -2.180068
v 0.134573 1.454217 -2.180068
v 0.150042 1.466913 -2.180068
v 0.162738 1.482383 -2.180068
v 0.172172 1.500032 -2.180068
v 0.177981 1.519183 -2.180068
v 0.179943 1.539099 -2.180068
v 0.177981 1.559015 -2.180068
v 0.172172 1.578166 -2.180068
v 0.162738 1.595815 -2.180068
v 0.150042 1.611285 -2.180068
v 0.134573 1.623981 -2.180068
v 0.116923 1.633414 -2.180068
v 0.097773 1.639224 -2.180068
v 0.077856 1.641185 -2.180068
v 0.057940 1.639224 -2.180068
v 0.038790 1.633414 -2.180068
v 0.021141 1.623981 -2.180068
v 0.005670 1.611285 -2.180068
v -0.007025 1.595815 -2.180068
v -0.016459 1.578166 -2.180068
v -0.022268 1.559015 -2.180068
v -0.024230 1.539099 -2.180068
v -0.022268 1.519183 -2.180068
v -0.016459 1.500032 -2.180068
v -0.007025 1.482383 -2.180068
v 0.005670 1.466913 -2.180068
v 0.021141 1.454217 -2.180068
v 0.038790 1.444783 -2.180068
v 0.057940 1.438974 -2.180068
v -0.056946 1.539099 -0.578850
v -0.046685 1.487512 -0.578850
v -0.054356 1.512800 -0.578850
v -0.054356 1.565398 -0.578850
v -0.017464 1.634419 -0.578850
v -0.034228 1.464207 -0.578850
v -0.034228 1.613991 -0.578850
v -0.017464 1.443779 -0.578850
v -0.046685 1.590686 -0.578850
v 0.002964 1.427015 -0.578850
v 0.051557 1.671312 -0.578850
v 0.026269 1.663640 -0.578850
v 0.104155 1.671312 -0.578850
v 0.152749 1.651183 -0.578850
v 0.173176 1.634419 -0.578850
v 0.129443 1.663640 -0.578850
v 0.077856 1.673902 -0.578850
v 0.002964 1.651183 -0.578850
v 0.026269 1.414557 -0.578850
v 0.077856 1.404296 -0.578850
v 0.051557 1.406886 -0.578850
v 0.129443 1.414557 -0.578850
v 0.152749 1.427015 -0.578850
v 0.104155 1.406886 -0.578850
v 0.189941 1.464207 -0.578850
v 0.189941 1.613991 -0.578850
v 0.212659 1.539099 -0.578850
v 0.210069 1.512800 -0.578850
v 0.210069 1.565398 -0.578850
v 0.202398 1.487512 -0.578850
v 0.202398 1.590686 -0.578850
v 0.173176 1.443779 -0.578850
vn -1.0000 -0.0000 -0.0000
vn 0.7071 -0.0000 -0.7071
vn 0.7071 -0.7071 -0.0000
vn 0.7071 0.7071 -0.0000
vn 0.7071 -0.0000 0.7071
vn 1.0000 -0.0000 -0.0000
vn -0.0000 -0.0000 1.0000
vn -0.0000 1.0000 -0.0000
vn -0.0000 -0.0000 -1.0000
vn -0.0000 -1.0000 -0.0000
vn -0.9855 -0.0000 0.1698
vn 0.0980 -0.9952 -0.0000
vn 0.2903 -0.9569 -0.0000
vn 0.4714 -0.8819 -0.0000
vn 0.6344 -0.7730 -0.0000
vn 0.7730 -0.6344 -0.0000
vn 0.8819 -0.4714 -0.0000
vn 0.9569 -0.2903 -0.0000
vn 0.9952 -0.0980 -0.0000
vn 0.9952 0.0980 -0.0000
vn 0.9569 0.2903 -0.0000
vn 0.8819 0.4714 -0.0000
vn 0.7730 0.6344 -0.0000
vn 0.6344 0.7730 -0.0000
vn 0.4714 0.8819 -0.0000
vn 0.2903 0.9569 -0.0000
vn 0.0980 0.9952 -0.0000
vn -0.0980 0.9952 -0.0000
vn -0.2903 0.9569 -0.0000
vn -0.4714 0.8819 -0.0000
vn -0.6344 0.7730 -0.0000
vn -0.7730 0.6344 -0.0000
vn -0.8819 0.4714 -0.0000
vn -0.9569 0.2903 -0.0000
vn -0.9952 0.0980 -0.0000
vn -0.9952 -0.0980 -0.0000
vn -0.9569 -0.2903 -0.0000
vn -0.8819 -0.4714 -0.0000
vn -0.7730 -0.6344 -0.0000
vn -0.6344 -0.7730 -0.0000
vn -0.4714 -0.8819 -0.0000
vn -0.2903 -0.9569 -0.0000
vn -0.0980 -0.9952 -0.0000
vn -0.2030 0.6693 0.7147
vn 0.5407 -0.4437 0.7147
vn -0.0685 -0.6961 0.7147
vn -0.3297 0.6168 0.7147
vn 0.6168 -0.3297 0.7147
vn -0.4437 0.5407 0.7147
vn 0.6693 -0.2030 0.7147
vn -0.5407 0.4437 0.7147
vn 0.6961 -0.0686 0.7147
vn -0.6168 0.3297 0.7147
vn 0.6961 0.0685 0.7147
vn -0.6693 0.2030 0.7147
vn 0.6693 0.2030 0.7147
vn -0.6961 0.0686 0.7147
vn 0.6168 0.3297 0.7147
vn -0.6961 -0.0685 0.7147
vn 0.5407 0.4437 0.7147
vn -0.6693 -0.2030 0.7147
vn 0.4437 0.5407 0.7147
vn -0.6168 -0.3297 0.7147
vn 0.3297 0.6168 0.7147
vn 0.0685 -0.6961 0.7147
vn -0.5407 -0.4437 0.7147
vn 0.2030 0.6693 0.7147
vn 0.2030 -0.6693 0.7147
vn -0.4437 -0.5407 0.7147
vn 0.0686 0.6961 0.7147
vn 0.3297 -0.6168 0.7147
vn -0.3297 -0.6168 0.7147
vn -0.0686 0.6961 0.7147
vn 0.4437 -0.5407 0.7147
vn -0.2030 -0.6693 0.7147
vn -0.7346 0.0723 -0.6747
vn 0.6510 0.3479 -0.6747
vn -0.7346 -0.0723 -0.6747
vn 0.5706 0.4683 -0.6747
vn -0.7063 -0.2143 -0.6747
vn 0.4682 0.5706 -0.6747
vn -0.6510 -0.3479 -0.6747
vn 0.3479 0.6510 -0.6747
vn 0.0724 -0.7346 -0.6747
vn -0.5706 -0.4683 -0.6747
vn 0.2143 0.7063 -0.6747
vn 0.2143 -0.7063 -0.6747
vn -0.4682 -0.5706 -0.6747
vn 0.0723 0.7346 -0.6747
vn 0.3479 -0.6510 -0.6747
vn -0.3479 -0.6510 -0.6747
vn -0.0723 0.7346 -0.6747
vn 0.4683 -0.5706 -0.6747
vn -0.2143 -0.7063 -0.6747
vn -0.2143 0.7063 -0.6747
vn 0.5706 -0.4683 -0.6747
vn -0.0723 -0.7346 -0.6747
vn -0.3479 0.6510 -0.6747
vn 0.6510 -0.3479 -0.6747
vn -0.4683 0.5706 -0.6747
vn 0.7063 -0.2143 -0.6747
vn -0.5706 0.4683 -0.6747
vn 0.7346 -0.0723 -0.6747
vn -0.6510 0.3479 -0.6747
vn 0.7346 0.0723 -0.6747
vn -0.7063 0.2143 -0.6747
vn 0.7063 0.2143 -0.6747
vn -0.0686 -0.6961 0.7147
vn 0.6961 -0.0685 0.7147
vn 0.6961 0.0686 0.7147
vn -0.6961 0.0685 0.7147
vn -0.6961 -0.0686 0.7147
vn 0.0686 -0.6961 0.7147
vn 0.4683 0.5706 -0.6747
vn 0.0723 -0.7346 -0.6747
vn -0.4683 -0.5706 -0.6747
vn 0.4682 -0.5706 -0.6747
vn -0.0724 -0.7346 -0.6747
vn -0.4682 0.5706 -0.6747
vn 0.7346 0.0724 -0.6747
vn -0.0000 0.0001 -1.0000
vn -0.0000 -0.0001 -1.0000
vt 0.625000 0.093235
vt 0.375000 0.250000
vt 0.375000 0.093235
vt 0.384105 0.502943
vt 0.630880 0.494120
vt 0.615895 0.502943
vt 0.369120 0.658259
vt 0.384105 0.656017
vt 0.630880 0.658259
vt 0.615895 0.747057
vt 0.615895 0.656017
vt 0.630880 0.755880
vt 0.384105 0.747057
vt 0.351468 0.750988
vt 0.351468 0.662617
vt 0.375000 1.000000
vt 0.369120 0.755880
vt 0.875000 0.750000
vt 0.625000 0.250000
vt 0.612009 0.404032
vt 0.369120 0.494120
vt 0.515343 0.416270
vt 0.516325 0.428508
vt 0.875000 0.500000
vt 0.125000 0.656765
vt 0.125000 0.500000
vt 0.625000 0.000000
vt 0.375000 0.000000
vt 0.142652 0.746067
vt 0.142652 0.661231
vt 0.125000 0.750000
vt 1.000000 1.000000
vt 0.968750 0.500000
vt 1.000000 0.500000
vt 0.968750 1.000000
vt 0.937500 0.500000
vt 0.937500 1.000000
vt 0.906250 0.500000
vt 0.906250 1.000000
vt 0.875000 1.000000
vt 0.843750 0.500000
vt 0.843750 1.000000
vt 0.812500 0.500000
vt 0.812500 1.000000
vt 0.781250 0.500000
vt 0.781250 1.000000
vt 0.750000 0.500000
vt 0.750000 1.000000
vt 0.718750 0.500000
vt 0.718750 1.000000
vt 0.687500 0.500000
vt 0.687500 1.000000
vt 0.656250 0.500000
vt 0.656250 1.000000
vt 0.625000 0.500000
vt 0.625000 1.000000
vt 0.593750 0.500000
vt 0.593750 1.000000
vt 0.562500 0.500000
vt 0.562500 1.000000
vt 0.531250 0.500000
vt 0.531250 1.000000
vt 0.500000 0.500000
vt 0.500000 1.000000
vt 0.468750 0.500000
vt 0.468750 1.000000
vt 0.437500 0.500000
vt 0.437500 1.000000
vt 0.406250 0.500000
vt 0.406250 1.000000
vt 0.375000 0.500000
vt 0.343750 0.500000
vt 0.343750 1.000000
vt 0.312500 0.500000
vt 0.312500 1.000000
vt 0.281250 0.500000
vt 0.281250 1.000000
vt 0.250000 0.500000
vt 0.250000 1.000000
vt 0.218750 0.500000
vt 0.218750 1.000000
vt 0.187500 0.500000
vt 0.187500 1.000000
vt 0.156250 0.500000
vt 0.156250 1.000000
vt 0.125000 1.000000
vt 0.093750 0.500000
vt 0.093750 1.000000
vt 0.062500 0.500000
vt 0.062500 1.000000
vt 0.031250 0.500000
vt 0.031250 1.000000
vt 0.000000 0.500000
vt 0.968750 0.500000
vt 0.823713 1.000000
vt 0.398085 1.000000
vt 0.898085 1.000000
vt 0.323711 1.000000
vt 0.000000 1.000000
vt 0.927903 1.000000
vt 0.464241 1.000000
vt 0.350348 1.000000
vt 0.077219 1.000000
vt 0.052006 1.000000
vt 0.843750 1.000000
vt 0.026106 1.000000
vt 0.538763 1.000000
vt 0.519614 1.000000
vt 0.019614 1.000000
vt 0.406250 1.000000
vt 0.443074 1.000000
vt 0.781250 1.000000
vt 0.131735 1.000000
vt 0.107890 1.000000
vt 0.081967 1.000000
vt 0.055020 1.000000
vt 0.027583 1.000000
vt 0.781250 1.000000
vt 0.921150 1.000000
vt 0.535743 1.000000
vt 0.035744 1.000000
vt 0.656250 1.000000
vt 0.449553 0.116663
vt 0.383337 0.050447
vt 0.050447 0.383337
vt 0.875000 0.656765
vt 0.590504 0.364110
vt 0.582024 0.358313
vt 0.599784 0.460628
vt 0.605725 0.451122
vt 0.610032 0.440277
vt 0.598008 0.371912
vt 0.604247 0.381418
vt 0.612558 0.428508
vt 0.613221 0.416270
vt 0.608977 0.392263
vt 0.592430 0.468430
vt 0.572889 0.354744
vt 0.563441 0.353538
vt 0.583957 0.474227
vt 0.574708 0.477797
vt 0.554028 0.354744
vt 0.544998 0.358313
vt 0.565055 0.479002
vt 0.555381 0.477797
vt 0.536686 0.364110
vt 0.529400 0.371912
vt 0.546067 0.474227
vt 0.523418 0.381418
vt 0.537476 0.468430
vt 0.529943 0.460628
vt 0.518972 0.392264
vt 0.516241 0.404032
vt 0.523761 0.451122
vt 0.519164 0.440276
vt 0.687500 1.000000
vt 0.432571 1.000000
vt 0.966434 1.000000
vt 0.932571 1.000000
vt 0.362337 1.000000
vt 0.466434 1.000000
vt 0.862337 1.000000
vt 0.964241 1.000000
vt 0.890354 1.000000
vt 0.850347 1.000000
vt 0.427903 1.000000
vt 0.390354 1.000000
vt 0.526106 1.000000
vt 0.600996 1.000000
vt 0.577219 1.000000
vt 0.552006 1.000000
vt 0.100996 1.000000
vt 0.038763 1.000000
vt 0.943075 1.000000
vt 0.718750 1.000000
vt 0.218750 1.000000
vt 0.631735 1.000000
vt 0.607891 1.000000
vt 0.581968 1.000000
vt 0.555020 1.000000
vt 0.527584 1.000000
vt 0.379168 1.000000
vt 0.961068 1.000000
vt 0.879168 1.000000
vt 0.461068 1.000000
vt 0.421149 1.000000
vt 0.518134 1.000000
vt 0.018134 1.000000
vt 0.718750 1.000000
vt 0.028269 0.341844
vt 0.014612 0.296822
vt 0.010000 0.250000
vt 0.080294 0.419706
vt 0.116663 0.449553
vt 0.158156 0.471731
vt 0.203178 0.485388
vt 0.250000 0.490000
vt 0.296822 0.485388
vt 0.341844 0.471731
vt 0.419706 0.080294
vt 0.471731 0.158156
vt 0.485388 0.203178
vt 0.490000 0.250000
s 0
f 27/1/1 5/2/1 37/3/1
f 17/4/2 23/5/2 21/6/2
f 43/7/3 17/4/3 31/8/3
f 34/9/4 15/10/4 36/11/4
f 13/12/5 10/13/5 15/10/5
f 11/14/6 51/15/6 29/15/6
f 36/11/6 10/13/6 31/8/6
f 13/12/7 40/16/7 41/17/7
f 34/9/8 3/18/8 13/12/8
f 7/19/9 23/5/9 845/20/9
f 19/21/9 854/22/9 858/23/9
f 7/24/8 34/9/8 23/5/8
f 17/4/6 36/11/6 31/8/6
f 19/21/10 37/25/10 5/26/10
f 34/9/4 21/6/4 23/5/4
f 43/7/3 10/13/3 41/17/3
f 3/27/11 37/3/11 40/28/11
f 1/29/10 37/25/10 25/30/10
f 11/14/10 40/31/10 1/29/10
f 29/15/10 41/17/10 11/14/10
f 25/30/10 43/7/10 29/15/10
f 51/15/8 53/30/8 45/30/8
f 25/30/1 48/29/1 1/29/1
f 29/15/9 45/30/9 25/30/9
f 1/29/7 49/14/7 11/14/7
f 57/14/6 68/15/6 59/15/6
f 49/14/8 56/29/8 57/14/8
f 49/14/8 59/15/8 51/15/8
f 45/30/8 56/29/8 48/29/8
f 68/15/10 64/29/10 61/30/10
f 53/30/1 64/29/1 56/29/1
f 59/15/9 61/30/9 53/30/9
f 56/29/7 66/14/7 57/14/7
f 4/32/12 6/33/12 2/34/12
f 8/35/13 9/36/13 6/33/13
f 12/37/14 14/38/14 9/36/14
f 16/39/15 18/24/15 14/38/15
f 20/40/16 22/41/16 18/24/16
f 24/42/17 26/43/17 22/41/17
f 28/44/18 30/45/18 26/43/18
f 32/46/19 33/47/19 30/45/19
f 35/48/20 38/49/20 33/47/20
f 39/50/21 42/51/21 38/49/21
f 44/52/22 46/53/22 42/51/22
f 47/54/23 50/55/23 46/53/23
f 52/56/24 54/57/24 50/55/24
f 55/58/25 58/59/25 54/57/25
f 60/60/26 62/61/26 58/59/26
f 63/62/27 65/63/27 62/61/27
f 67/64/28 69/65/28 65/63/28
f 70/66/29 71/67/29 69/65/29
f 72/68/30 73/69/30 71/67/30
f 74/70/31 75/71/31 73/69/31
f 76/16/32 77/72/32 75/71/32
f 78/73/33 79/74/33 77/72/33
f 80/75/34 81/76/34 79/74/34
f 82/77/35 83/78/35 81/76/35
f 84/79/36 85/80/36 83/78/36
f 86/81/37 87/82/37 85/80/37
f 88/83/38 89/84/38 87/82/38
f 90/85/39 91/26/39 89/84/39
f 92/86/40 93/87/40 91/26/40
f 94/88/41 95/89/41 93/87/41
f 44/52/7 140/50/7 141/52/7
f 96/90/42 97/91/42 95/89/42
f 98/92/43 2/93/43 97/91/43
f 26/43/9 104/41/9 22/41/9
f 99/34/12 858/94/12 854/34/12
f 62/61/9 113/59/9 58/59/9
f 81/76/9 123/78/9 122/76/9
f 6/33/9 101/36/9 100/33/9
f 46/53/9 109/51/9 42/51/9
f 75/71/9 118/69/9 73/69/9
f 91/26/9 128/87/9 127/26/9
f 26/43/9 106/45/9 105/43/9
f 65/63/9 114/61/9 62/61/9
f 85/80/9 123/78/9 83/78/9
f 14/38/9 101/36/9 9/36/9
f 50/55/9 110/53/9 46/53/9
f 75/71/9 120/72/9 119/71/9
f 93/87/9 129/89/9 128/87/9
f 30/45/9 107/47/9 106/45/9
f 69/65/9 115/63/9 65/63/9
f 87/82/9 124/80/9 85/80/9
f 14/38/9 103/24/9 102/38/9
f 54/57/9 111/55/9 50/55/9
f 79/74/9 120/72/9 77/72/9
f 95/89/9 130/91/9 129/89/9
f 38/49/9 107/47/9 33/47/9
f 71/67/9 116/65/9 69/65/9
f 87/82/9 126/84/9 125/82/9
f 18/24/9 104/41/9 103/24/9
f 54/57/9 113/59/9 112/57/9
f 79/74/9 122/76/9 121/74/9
f 2/34/9 100/33/9 99/34/9
f 97/91/9 99/93/9 130/91/9
f 42/51/9 108/49/9 38/49/9
f 73/69/9 117/67/9 71/67/9
f 91/26/9 126/84/9 89/84/9
f 126/84/39 842/26/39 840/84/39
f 113/59/26 847/61/26 850/59/26
f 100/33/13 856/36/13 858/94/13
f 127/26/40 844/87/40 842/26/40
f 114/61/27 851/63/27 847/61/27
f 101/36/14 857/38/14 856/36/14
f 128/87/41 853/89/41 844/87/41
f 115/63/28 845/65/28 851/63/28
f 102/38/15 866/24/15 857/38/15
f 129/89/42 855/91/42 853/89/42
f 116/65/29 846/67/29 845/65/29
f 103/24/16 859/41/16 866/24/16
f 130/91/43 854/93/43 855/91/43
f 117/67/30 852/69/30 846/67/30
f 104/41/17 864/43/17 859/41/17
f 118/69/31 839/71/31 852/69/31
f 105/43/18 862/45/18 864/43/18
f 119/71/32 841/72/32 839/71/32
f 106/45/19 861/47/19 862/45/19
f 120/72/33 843/74/33 841/72/33
f 107/47/20 863/49/20 861/47/20
f 121/74/34 838/76/34 843/74/34
f 108/49/21 865/51/21 863/49/21
f 122/76/35 835/78/35 838/76/35
f 109/51/22 860/53/22 865/51/22
f 123/78/36 837/80/36 835/78/36
f 110/53/23 849/55/23 860/53/23
f 124/80/37 836/82/37 837/80/37
f 111/55/24 848/57/24 849/55/24
f 125/82/38 840/84/38 836/82/38
f 112/57/25 850/59/25 848/57/25
f 137/44/18 170/46/18 138/46/18
f 72/68/7 150/70/7 74/70/7
f 90/85/7 159/86/7 92/86/7
f 28/44/7 136/95/7 137/44/7
f 63/62/7 145/60/7 146/62/7
f 82/77/7 155/79/7 84/79/7
f 8/35/7 133/37/7 12/37/7
f 47/54/7 141/52/7 142/54/7
f 76/16/7 150/96/7 151/16/7
f 92/86/7 160/88/7 94/88/7
f 28/44/7 138/46/7 32/46/7
f 67/64/7 146/62/7 147/64/7
f 86/81/7 155/79/7 156/81/7
f 12/37/7 134/39/7 16/39/7
f 52/56/7 142/54/7 143/56/7
f 76/16/7 152/73/7 78/73/7
f 96/90/7 160/88/7 161/90/7
f 32/46/7 139/48/7 35/48/7
f 67/64/7 148/66/7 70/66/7
f 88/83/7 156/81/7 157/83/7
f 20/40/7 134/97/7 135/40/7
f 52/56/7 144/58/7 55/58/7
f 80/75/7 152/98/7 153/75/7
f 98/92/7 161/90/7 162/92/7
f 39/50/7 139/48/7 140/50/7
f 70/66/7 149/68/7 72/68/7
f 88/83/7 158/85/7 90/85/7
f 20/40/7 136/42/7 24/42/7
f 60/60/7 144/58/7 145/60/7
f 80/75/7 154/77/7 82/77/7
f 4/32/7 132/35/7 8/35/7
f 4/99/7 162/92/7 131/99/7
f 173/52/7 204/50/7 205/52/7
f 151/16/32 184/73/32 152/73/32
f 138/46/19 171/48/19 139/48/19
f 152/73/33 185/75/33 153/75/33
f 139/48/20 172/50/20 140/50/20
f 153/75/34 186/77/34 154/77/34
f 140/50/21 173/52/21 141/52/21
f 154/77/35 187/79/35 155/79/35
f 141/52/22 174/54/22 142/54/22
f 155/79/36 188/81/36 156/81/36
f 142/54/23 175/56/23 143/56/23
f 156/81/37 189/83/37 157/83/37
f 143/56/24 176/58/24 144/58/24
f 157/83/38 190/85/38 158/85/38
f 144/58/25 177/60/25 145/60/25
f 131/32/12 164/35/12 132/35/12
f 158/85/39 191/86/39 159/86/39
f 145/60/26 178/62/26 146/62/26
f 132/35/13 165/37/13 133/37/13
f 159/86/40 192/88/40 160/88/40
f 146/62/27 179/64/27 147/64/27
f 133/37/14 166/39/14 134/39/14
f 160/88/41 193/90/41 161/90/41
f 147/64/28 180/66/28 148/66/28
f 134/39/15 167/40/15 135/40/15
f 161/90/42 194/92/42 162/92/42
f 148/66/29 181/68/29 149/68/29
f 135/40/16 168/42/16 136/42/16
f 162/92/43 163/99/43 131/99/43
f 149/68/30 182/70/30 150/70/30
f 136/42/17 169/44/17 137/44/17
f 150/70/31 183/16/31 151/16/31
f 207/56/24 240/58/24 208/58/24
f 187/79/7 218/79/7 219/79/7
f 174/54/7 205/52/7 206/54/7
f 187/81/7 220/81/7 188/81/7
f 175/56/7 206/54/7 207/56/7
f 188/83/7 221/83/7 189/83/7
f 176/58/7 207/56/7 208/58/7
f 189/85/7 222/85/7 190/85/7
f 177/60/7 208/58/7 209/60/7
f 163/32/7 196/35/7 164/35/7
f 190/85/7 223/86/7 191/86/7
f 178/62/7 209/60/7 210/62/7
f 164/35/7 197/37/7 165/37/7
f 192/88/7 223/86/7 224/88/7
f 179/64/7 210/62/7 211/64/7
f 166/39/7 197/100/7 198/39/7
f 192/88/7 225/90/7 193/90/7
f 180/66/7 211/64/7 212/66/7
f 166/39/7 199/40/7 167/40/7
f 193/90/7 226/92/7 194/92/7
f 181/68/7 212/101/7 213/68/7
f 167/40/7 200/42/7 168/42/7
f 194/92/7 195/99/7 163/99/7
f 181/68/7 214/70/7 182/70/7
f 169/44/7 200/44/7 201/44/7
f 182/70/7 215/16/7 183/16/7
f 170/46/7 201/46/7 202/46/7
f 184/73/7 215/102/7 216/73/7
f 171/48/7 202/48/7 203/48/7
f 184/73/7 217/75/7 185/75/7
f 171/50/7 204/50/7 172/50/7
f 185/75/7 218/77/7 186/77/7
f 242/62/9 275/64/9 243/64/9
f 221/83/38 254/85/38 222/85/38
f 208/58/25 241/60/25 209/60/25
f 195/32/12 228/35/12 196/35/12
f 222/85/39 255/86/39 223/86/39
f 209/60/26 242/62/26 210/62/26
f 196/35/13 229/37/13 197/37/13
f 223/86/40 256/88/40 224/88/40
f 210/62/27 243/64/27 211/64/27
f 197/37/14 230/39/14 198/39/14
f 224/88/41 257/90/41 225/90/41
f 211/64/28 244/66/28 212/66/28
f 198/39/15 231/40/15 199/40/15
f 225/90/42 258/92/42 226/92/42
f 212/66/29 245/68/29 213/68/29
f 199/40/16 232/42/16 200/42/16
f 226/92/43 227/99/43 195/99/43
f 213/68/30 246/70/30 214/70/30
f 200/42/17 233/44/17 201/44/17
f 214/70/31 247/16/31 215/16/31
f 201/44/18 234/46/18 202/46/18
f 215/16/32 248/73/32 216/73/32
f 202/46/19 235/48/19 203/48/19
f 216/73/33 249/75/33 217/75/33
f 203/48/20 236/50/20 204/50/20
f 217/75/34 250/77/34 218/77/34
f 204/50/21 237/52/21 205/52/21
f 218/77/35 251/79/35 219/79/35
f 205/52/22 238/54/22 206/54/22
f 219/79/36 252/81/36 220/81/36
f 206/54/23 239/56/23 207/56/23
f 220/81/37 253/83/37 221/83/37
f 277/68/30 310/70/30 278/70/30
f 229/37/9 262/39/9 230/39/9
f 257/90/9 288/103/9 289/90/9
f 243/64/9 276/66/9 244/66/9
f 231/40/9 262/39/9 263/40/9
f 258/92/9 289/104/9 290/92/9
f 245/68/9 276/66/9 277/68/9
f 231/105/9 264/42/9 232/42/9
f 227/99/9 290/106/9 259/99/9
f 246/70/9 277/68/9 278/70/9
f 233/44/9 264/42/9 265/44/9
f 247/16/9 278/70/9 279/16/9
f 233/46/9 266/46/9 234/46/9
f 247/73/9 280/73/9 248/73/9
f 234/48/9 267/48/9 235/48/9
f 249/75/9 280/73/9 281/75/9
f 236/50/9 267/50/9 268/50/9
f 250/77/9 281/75/9 282/77/9
f 236/50/9 269/52/9 237/52/9
f 250/79/9 283/79/9 251/79/9
f 237/52/9 270/54/9 238/54/9
f 252/81/9 283/81/9 284/81/9
f 238/54/9 271/56/9 239/56/9
f 253/83/9 284/83/9 285/83/9
f 239/56/9 272/58/9 240/58/9
f 254/85/9 285/85/9 286/85/9
f 240/58/9 273/60/9 241/60/9
f 228/35/9 259/32/9 260/35/9
f 255/86/9 286/86/9 287/86/9
f 241/60/9 274/62/9 242/62/9
f 229/37/9 260/35/9 261/37/9
f 255/86/9 288/88/9 256/88/9
f 312/75/9 345/75/9 313/75/9
f 264/42/17 297/44/17 265/44/17
f 278/70/31 311/16/31 279/16/31
f 265/44/18 298/46/18 266/46/18
f 279/16/32 312/73/32 280/73/32
f 266/46/19 299/48/19 267/48/19
f 280/73/33 313/75/33 281/75/33
f 267/48/20 300/50/20 268/50/20
f 281/75/34 314/77/34 282/77/34
f 268/50/21 301/52/21 269/52/21
f 282/77/35 315/79/35 283/79/35
f 269/52/22 302/54/22 270/54/22
f 283/79/36 316/81/36 284/81/36
f 270/54/23 303/56/23 271/56/23
f 284/81/37 317/83/37 285/83/37
f 271/56/24 304/58/24 272/58/24
f 285/83/38 318/85/38 286/85/38
f 272/58/25 305/60/25 273/60/25
f 259/32/12 292/35/12 260/35/12
f 286/85/39 319/86/39 287/86/39
f 273/60/26 306/62/26 274/62/26
f 260/35/13 293/37/13 261/37/13
f 287/86/40 320/88/40 288/88/40
f 274/62/27 307/64/27 275/64/27
f 261/37/14 294/39/14 262/39/14
f 288/88/41 321/90/41 289/90/41
f 275/64/28 308/66/28 276/66/28
f 262/39/15 295/40/15 263/40/15
f 289/90/42 322/92/42 290/92/42
f 276/66/29 309/68/29 277/68/29
f 263/40/16 296/42/16 264/42/16
f 290/92/43 291/99/43 259/99/43
f 347/79/36 380/81/36 348/81/36
f 300/50/9 331/50/9 332/50/9
f 314/77/9 345/75/9 346/77/9
f 301/52/9 332/52/9 333/52/9
f 315/79/9 346/77/9 347/79/9
f 301/52/9 334/54/9 302/54/9
f 315/79/9 348/81/9 316/81/9
f 303/56/9 334/56/9 335/56/9
f 317/83/9 348/83/9 349/83/9
f 303/56/9 336/58/9 304/58/9
f 318/85/9 349/85/9 350/85/9
f 305/60/9 336/60/9 337/60/9
f 291/32/9 324/35/9 292/35/9
f 319/86/9 350/86/9 351/86/9
f 306/62/9 337/107/9 338/62/9
f 293/37/9 324/35/9 325/37/9
f 319/86/9 352/88/9 320/88/9
f 307/64/9 338/108/9 339/64/9
f 293/39/9 326/39/9 294/39/9
f 321/90/9 352/90/9 353/90/9
f 307/64/9 340/66/9 308/66/9
f 295/40/9 326/39/9 327/40/9
f 321/90/9 354/92/9 322/92/9
f 308/66/9 341/68/9 309/68/9
f 295/42/9 328/42/9 296/42/9
f 291/99/9 354/109/9 323/99/9
f 309/110/9 342/70/9 310/70/9
f 297/44/9 328/42/9 329/44/9
f 311/16/9 342/70/9 343/16/9
f 297/46/9 330/46/9 298/46/9
f 311/73/9 344/73/9 312/73/9
f 298/48/9 331/48/9 299/48/9
f 382/86/7 415/86/7 383/86/7
f 334/54/23 367/56/23 335/56/23
f 348/81/37 381/83/37 349/83/37
f 335/56/24 368/58/24 336/58/24
f 349/83/38 382/85/38 350/85/38
f 336/58/25 369/60/25 337/60/25
f 323/32/12 356/35/12 324/35/12
f 350/85/39 383/86/39 351/86/39
f 337/60/26 370/62/26 338/62/26
f 324/35/13 357/37/13 325/37/13
f 351/86/40 384/88/40 352/88/40
f 338/62/27 371/64/27 339/64/27
f 325/37/14 358/39/14 326/39/14
f 352/88/41 385/90/41 353/90/41
f 339/64/28 372/66/28 340/66/28
f 326/39/15 359/40/15 327/40/15
f 353/90/42 386/92/42 354/92/42
f 340/66/29 373/68/29 341/68/29
f 327/40/16 360/42/16 328/42/16
f 354/92/43 355/99/43 323/99/43
f 341/68/30 374/70/30 342/70/30
f 328/42/17 361/44/17 329/44/17
f 342/70/31 375/16/31 343/16/31
f 329/44/18 362/46/18 330/46/18
f 343/16/32 376/73/32 344/73/32
f 330/46/19 363/48/19 331/48/19
f 344/73/33 377/75/33 345/75/33
f 331/48/20 364/50/20 332/50/20
f 345/75/34 378/77/34 346/77/34
f 332/50/21 365/52/21 333/52/21
f 346/77/35 379/79/35 347/79/35
f 333/52/22 366/54/22 334/54/22
f 417/90/42 450/92/42 418/92/42
f 369/60/7 402/62/7 370/62/7
f 356/35/7 389/37/7 357/37/7
f 384/88/7 415/86/7 416/88/7
f 371/64/7 402/62/7 403/64/7
f 358/39/7 389/39/7 390/39/7
f 384/90/7 417/90/7 385/90/7
f 372/66/7 403/64/7 404/66/7
f 358/39/7 391/40/7 359/40/7
f 386/92/7 417/90/7 418/92/7
f 373/68/7 404/111/7 405/68/7
f 360/42/7 391/42/7 392/42/7
f 355/99/7 418/92/7 387/99/7
f 374/70/7 405/70/7 406/70/7
f 360/42/7 393/44/7 361/44/7
f 374/70/7 407/16/7 375/16/7
f 362/46/7 393/112/7 394/46/7
f 376/73/7 407/73/7 408/73/7
f 363/48/7 394/48/7 395/48/7
f 377/75/7 408/75/7 409/75/7
f 363/50/7 396/50/7 364/50/7
f 378/77/7 409/77/7 410/77/7
f 364/52/7 397/52/7 365/52/7
f 378/77/7 411/79/7 379/79/7
f 366/54/7 397/52/7 398/54/7
f 380/81/7 411/79/7 412/81/7
f 367/56/7 398/54/7 399/56/7
f 380/83/7 413/83/7 381/83/7
f 368/58/7 399/56/7 400/58/7
f 381/85/7 414/85/7 382/85/7
f 369/60/7 400/58/7 401/60/7
f 355/32/7 388/35/7 356/35/7
f 439/16/9 472/73/9 440/73/9
f 404/66/29 437/68/29 405/68/29
f 391/40/16 424/42/16 392/42/16
f 418/92/43 419/99/43 387/99/43
f 405/68/30 438/70/30 406/70/30
f 392/42/17 425/44/17 393/44/17
f 406/70/31 439/16/31 407/16/31
f 393/44/18 426/46/18 394/46/18
f 407/16/32 440/73/32 408/73/32
f 394/46/19 427/48/19 395/48/19
f 408/73/33 441/75/33 409/75/33
f 395/48/20 428/50/20 396/50/20
f 409/75/34 442/77/34 410/77/34
f 396/50/21 429/52/21 397/52/21
f 410/77/35 443/79/35 411/79/35
f 397/52/22 430/54/22 398/54/22
f 411/79/36 444/81/36 412/81/36
f 398/54/23 431/56/23 399/56/23
f 412/81/37 445/83/37 413/83/37
f 399/56/24 432/58/24 400/58/24
f 413/83/38 446/85/38 414/85/38
f 400/58/25 433/60/25 401/60/25
f 387/32/12 420/35/12 388/35/12
f 414/85/39 447/86/39 415/86/39
f 401/60/26 434/62/26 402/62/26
f 388/35/13 421/37/13 389/37/13
f 415/86/40 448/88/40 416/88/40
f 402/62/27 435/64/27 403/64/27
f 389/37/14 422/39/14 390/39/14
f 416/88/41 449/90/41 417/90/41
f 403/64/28 436/66/28 404/66/28
f 390/39/15 423/40/15 391/40/15
f 474/77/35 507/79/35 475/79/35
f 427/48/9 458/46/9 459/48/9
f 441/75/9 472/73/9 473/75/9
f 427/48/9 460/50/9 428/50/9
f 441/77/9 474/77/9 442/77/9
f 429/52/9 460/52/9 461/52/9
f 443/79/9 474/77/9 475/79/9
f 429/52/9 462/54/9 430/54/9
f 443/79/9 476/81/9 444/81/9
f 430/54/9 463/56/9 431/56/9
f 445/83/9 476/83/9 477/83/9
f 431/56/9 464/58/9 432/58/9
f 446/85/9 477/85/9 478/85/9
f 432/58/9 465/60/9 433/60/9
f 420/35/9 451/32/9 452/35/9
f 447/86/9 478/113/9 479/86/9
f 433/60/9 466/62/9 434/62/9
f 421/37/9 452/35/9 453/37/9
f 448/88/9 479/114/9 480/88/9
f 434/62/9 467/64/9 435/64/9
f 422/39/9 453/37/9 454/39/9
f 449/90/9 480/115/9 481/90/9
f 435/64/9 468/66/9 436/66/9
f 422/39/9 455/40/9 423/40/9
f 450/92/9 481/116/9 482/92/9
f 437/68/9 468/66/9 469/68/9
f 424/42/9 455/40/9 456/42/9
f 419/99/9 482/117/9 451/99/9
f 437/68/9 470/70/9 438/70/9
f 424/44/9 457/44/9 425/44/9
f 439/16/9 470/70/9 471/16/9
f 425/46/9 458/46/9 426/46/9
f 509/85/7 542/85/7 510/85/7
f 461/52/22 494/54/22 462/54/22
f 475/79/36 508/81/36 476/81/36
f 462/54/23 495/56/23 463/56/23
f 476/81/37 509/83/37 477/83/37
f 463/56/24 496/58/24 464/58/24
f 477/83/38 510/85/38 478/85/38
f 464/58/25 497/60/25 465/60/25
f 451/32/12 484/35/12 452/35/12
f 478/85/39 511/86/39 479/86/39
f 465/60/26 498/62/26 466/62/26
f 452/35/13 485/37/13 453/37/13
f 479/86/40 512/88/40 480/88/40
f 466/62/27 499/64/27 467/64/27
f 453/37/14 486/39/14 454/39/14
f 480/88/41 513/90/41 481/90/41
f 467/64/28 500/66/28 468/66/28
f 454/39/15 487/40/15 455/40/15
f 481/90/42 514/92/42 482/92/42
f 468/66/29 501/68/29 469/68/29
f 455/40/16 488/42/16 456/42/16
f 482/92/43 483/99/43 451/99/43
f 469/68/30 502/70/30 470/70/30
f 456/42/17 489/44/17 457/44/17
f 470/70/31 503/16/31 471/16/31
f 457/44/18 490/46/18 458/46/18
f 471/16/32 504/73/32 472/73/32
f 458/46/19 491/48/19 459/48/19
f 472/73/33 505/75/33 473/75/33
f 459/48/20 492/50/20 460/50/20
f 473/75/34 506/77/34 474/77/34
f 460/50/21 493/52/21 461/52/21
f 517/37/14 550/39/14 518/39/14
f 497/60/7 528/58/7 529/60/7
f 483/32/7 516/35/7 484/35/7
f 511/86/7 542/85/7 543/86/7
f 498/62/7 529/60/7 530/62/7
f 485/37/7 516/35/7 517/37/7
f 511/88/7 544/88/7 512/88/7
f 498/62/7 531/64/7 499/64/7
f 485/37/7 518/39/7 486/39/7
f 512/88/7 545/90/7 513/90/7
f 500/66/7 531/64/7 532/66/7
f 487/40/7 518/40/7 519/40/7
f 513/90/7 546/92/7 514/92/7
f 500/66/7 533/68/7 501/68/7
f 487/40/7 520/42/7 488/42/7
f 514/92/7 515/99/7 483/99/7
f 502/70/7 533/68/7 534/70/7
f 488/42/7 521/44/7 489/44/7
f 502/70/7 535/16/7 503/16/7
f 490/46/7 521/118/7 522/46/7
f 504/73/7 535/73/7 536/73/7
f 491/48/7 522/48/7 523/48/7
f 504/73/7 537/75/7 505/75/7
f 492/50/7 523/48/7 524/50/7
f 506/77/7 537/77/7 538/77/7
f 493/52/7 524/50/7 525/52/7
f 506/77/7 539/79/7 507/79/7
f 494/54/7 525/52/7 526/54/7
f 508/81/7 539/79/7 540/81/7
f 494/56/7 527/56/7 495/56/7
f 508/83/7 541/83/7 509/83/7
f 496/58/7 527/56/7 528/58/7
f 552/42/7 585/44/7 553/44/7
f 544/88/41 577/90/41 545/90/41
f 531/64/28 564/66/28 532/66/28
f 518/39/15 551/40/15 519/40/15
f 545/90/42 578/92/42 546/92/42
f 532/66/29 565/68/29 533/68/29
f 519/40/16 552/42/16 520/42/16
f 546/92/43 547/99/43 515/99/43
f 533/68/30 566/70/30 534/70/30
f 520/42/17 553/44/17 521/44/17
f 534/70/31 567/16/31 535/16/31
f 521/44/18 554/46/18 522/46/18
f 535/16/32 568/73/32 536/73/32
f 522/46/19 555/48/19 523/48/19
f 536/73/33 569/75/33 537/75/33
f 523/48/20 556/50/20 524/50/20
f 537/75/34 570/77/34 538/77/34
f 524/50/21 557/52/21 525/52/21
f 538/77/35 571/79/35 539/79/35
f 525/52/22 558/54/22 526/54/22
f 539/79/36 572/81/36 540/81/36
f 526/54/23 559/56/23 527/56/23
f 540/81/37 573/83/37 541/83/37
f 527/56/24 560/58/24 528/58/24
f 541/83/38 574/85/38 542/85/38
f 528/58/25 561/60/25 529/60/25
f 515/32/12 548/35/12 516/35/12
f 542/85/39 575/86/39 543/86/39
f 529/60/26 562/62/26 530/62/26
f 516/35/13 549/37/13 517/37/13
f 543/86/40 576/88/40 544/88/40
f 530/62/27 563/64/27 531/64/27
f 587/48/20 620/50/20 588/50/20
f 566/70/7 599/16/7 567/16/7
f 554/46/7 585/46/7 586/46/7
f 568/73/7 599/73/7 600/73/7
f 555/48/7 586/48/7 587/48/7
f 569/75/7 600/75/7 601/75/7
f 556/50/7 587/48/7 588/50/7
f 569/75/7 602/77/7 570/77/7
f 557/52/7 588/50/7 589/52/7
f 570/77/7 603/79/7 571/79/7
f 558/54/7 589/52/7 590/54/7
f 572/81/7 603/79/7 604/81/7
f 559/56/7 590/54/7 591/56/7
f 572/83/7 605/83/7 573/83/7
f 560/58/7 591/56/7 592/58/7
f 573/85/7 606/85/7 574/85/7
f 561/60/7 592/58/7 593/60/7
f 547/32/7 580/35/7 548/35/7
f 574/86/7 607/86/7 575/86/7
f 562/62/7 593/60/7 594/62/7
f 548/35/7 581/37/7 549/37/7
f 576/88/7 607/86/7 608/88/7
f 562/62/7 595/64/7 563/64/7
f 550/39/7 581/119/7 582/39/7
f 576/88/7 609/90/7 577/90/7
f 563/64/7 596/66/7 564/66/7
f 550/39/7 583/40/7 551/40/7
f 578/92/7 609/90/7 610/92/7
f 564/66/7 597/68/7 565/68/7
f 551/40/7 584/42/7 552/42/7
f 547/99/7 610/92/7 579/99/7
f 565/68/7 598/70/7 566/70/7
f 622/54/9 655/56/9 623/56/9
f 601/75/34 634/77/34 602/77/34
f 588/50/21 621/52/21 589/52/21
f 602/77/35 635/79/35 603/79/35
f 589/52/22 622/54/22 590/54/22
f 603/79/36 636/81/36 604/81/36
f 590/54/23 623/56/23 591/56/23
f 604/81/37 637/83/37 605/83/37
f 591/56/24 624/58/24 592/58/24
f 605/83/38 638/85/38 606/85/38
f 592/58/25 625/60/25 593/60/25
f 579/32/12 612/35/12 580/35/12
f 606/85/39 639/86/39 607/86/39
f 593/60/26 626/62/26 594/62/26
f 580/35/13 613/37/13 581/37/13
f 607/86/40 640/88/40 608/88/40
f 594/62/27 627/64/27 595/64/27
f 581/37/14 614/39/14 582/39/14
f 608/88/41 641/90/41 609/90/41
f 595/64/28 628/66/28 596/66/28
f 582/39/15 615/40/15 583/40/15
f 609/90/42 642/92/42 610/92/42
f 596/66/29 629/68/29 597/68/29
f 583/40/16 616/42/16 584/42/16
f 610/92/43 611/99/43 579/99/43
f 597/68/30 630/70/30 598/70/30
f 584/42/17 617/44/17 585/44/17
f 598/70/31 631/16/31 599/16/31
f 585/44/18 618/46/18 586/46/18
f 599/16/32 632/73/32 600/73/32
f 586/46/19 619/48/19 587/48/19
f 600/73/33 633/75/33 601/75/33
f 657/60/26 690/62/26 658/62/26
f 637/83/9 668/83/9 669/83/9
f 623/56/9 656/58/9 624/58/9
f 637/83/9 670/85/9 638/85/9
f 625/60/9 656/60/9 657/60/9
f 612/35/9 643/32/9 644/35/9
f 639/86/9 670/86/9 671/86/9
f 626/62/9 657/120/9 658/62/9
f 612/35/9 645/37/9 613/37/9
f 640/88/9 671/88/9 672/88/9
f 626/62/9 659/64/9 627/64/9
f 613/39/9 646/39/9 614/39/9
f 640/88/9 673/90/9 641/90/9
f 628/66/9 659/64/9 660/66/9
f 615/40/9 646/39/9 647/40/9
f 642/92/9 673/121/9 674/92/9
f 628/66/9 661/68/9 629/68/9
f 615/42/9 648/42/9 616/42/9
f 642/92/9 643/99/9 611/99/9
f 630/70/9 661/68/9 662/70/9
f 616/44/9 649/44/9 617/44/9
f 630/16/9 663/16/9 631/16/9
f 618/46/9 649/44/9 650/46/9
f 631/73/9 664/73/9 632/73/9
f 618/48/9 651/48/9 619/48/9
f 633/75/9 664/73/9 665/75/9
f 619/48/9 652/50/9 620/50/9
f 634/77/9 665/75/9 666/77/9
f 620/50/9 653/52/9 621/52/9
f 635/79/9 666/77/9 667/79/9
f 622/54/9 653/122/9 654/54/9
f 636/81/9 667/81/9 668/81/9
f 692/66/44 725/68/44 693/68/44
f 644/35/13 677/37/13 645/37/13
f 671/86/40 704/88/40 672/88/40
f 658/62/27 691/64/27 659/64/27
f 645/37/14 678/39/14 646/39/14
f 672/88/41 705/90/41 673/90/41
f 659/64/28 692/66/28 660/66/28
f 646/39/15 679/40/15 647/40/15
f 673/90/42 706/92/42 674/92/42
f 660/66/29 693/68/29 661/68/29
f 647/40/16 680/42/16 648/42/16
f 674/92/43 675/99/43 643/99/43
f 661/68/30 694/70/30 662/70/30
f 648/42/17 681/44/17 649/44/17
f 662/70/31 695/16/31 663/16/31
f 649/44/18 682/46/18 650/46/18
f 663/16/32 696/73/32 664/73/32
f 650/46/19 683/48/19 651/48/19
f 664/73/33 697/75/33 665/75/33
f 651/48/20 684/50/20 652/50/20
f 665/75/34 698/77/34 666/77/34
f 652/50/21 685/52/21 653/52/21
f 666/77/35 699/79/35 667/79/35
f 653/52/22 686/54/22 654/54/22
f 667/79/36 700/81/36 668/81/36
f 654/54/23 687/56/23 655/56/23
f 668/81/37 701/83/37 669/83/37
f 655/56/24 688/58/24 656/58/24
f 669/83/38 702/85/38 670/85/38
f 656/58/25 689/60/25 657/60/25
f 643/32/12 676/35/12 644/35/12
f 670/85/39 703/86/39 671/86/39
f 727/16/32 760/73/32 728/73/32
f 680/42/45 711/40/45 712/42/45
f 675/99/46 738/92/46 707/99/46
f 693/68/47 726/70/47 694/70/47
f 681/44/48 712/42/48 713/44/48
f 695/16/49 726/70/49 727/16/49
f 681/44/50 714/46/50 682/46/50
f 696/73/51 727/16/51 728/73/51
f 682/46/52 715/48/52 683/48/52
f 696/73/53 729/75/53 697/75/53
f 684/50/54 715/48/54 716/50/54
f 697/75/55 730/77/55 698/77/55
f 685/52/56 716/50/56 717/52/56
f 698/77/57 731/79/57 699/79/57
f 685/52/58 718/54/58 686/54/58
f 700/81/59 731/79/59 732/81/59
f 686/54/60 719/56/60 687/56/60
f 701/83/61 732/81/61 733/83/61
f 687/56/62 720/58/62 688/58/62
f 702/85/63 733/83/63 734/85/63
f 688/58/64 721/60/64 689/60/64
f 676/35/65 707/32/65 708/35/65
f 702/85/66 735/86/66 703/86/66
f 689/60/67 722/62/67 690/62/67
f 677/37/68 708/35/68 709/37/68
f 703/86/69 736/88/69 704/88/69
f 690/62/70 723/64/70 691/64/70
f 678/39/71 709/37/71 710/39/71
f 705/90/72 736/88/72 737/90/72
f 691/64/73 724/66/73 692/66/73
f 679/40/74 710/39/74 711/40/74
f 705/90/75 738/92/75 706/92/75
f 763/79/76 794/77/76 795/79/76
f 714/46/19 747/48/19 715/48/19
f 728/73/33 761/75/33 729/75/33
f 715/48/20 748/50/20 716/50/20
f 729/75/34 762/77/34 730/77/34
f 716/50/21 749/52/21 717/52/21
f 730/77/35 763/79/35 731/79/35
f 717/52/22 750/54/22 718/54/22
f 731/79/36 764/81/36 732/81/36
f 718/54/23 751/56/23 719/56/23
f 732/81/37 765/83/37 733/83/37
f 719/56/24 752/58/24 720/58/24
f 733/83/38 766/85/38 734/85/38
f 720/58/25 753/60/25 721/60/25
f 707/32/12 740/35/12 708/35/12
f 734/85/39 767/86/39 735/86/39
f 721/60/26 754/62/26 722/62/26
f 708/35/13 741/37/13 709/37/13
f 735/86/40 768/88/40 736/88/40
f 722/62/27 755/64/27 723/64/27
f 709/37/14 742/39/14 710/39/14
f 736/88/41 769/90/41 737/90/41
f 723/64/28 756/66/28 724/66/28
f 710/39/15 743/40/15 711/40/15
f 737/90/42 770/92/42 738/92/42
f 724/66/29 757/68/29 725/68/29
f 711/40/16 744/42/16 712/42/16
f 738/92/43 739/99/43 707/99/43
f 725/68/30 758/70/30 726/70/30
f 712/42/17 745/44/17 713/44/17
f 726/70/31 759/16/31 727/16/31
f 713/44/18 746/46/18 714/46/18
f 797/83/38 830/85/38 798/85/38
f 749/52/77 782/54/77 750/54/77
f 763/79/78 796/81/78 764/81/78
f 750/54/79 783/56/79 751/56/79
f 765/83/80 796/81/80 797/83/80
f 752/58/81 783/56/81 784/58/81
f 765/83/82 798/85/82 766/85/82
f 753/60/83 784/58/83 785/60/83
f 740/35/84 771/32/84 772/35/84
f 767/86/85 798/85/85 799/86/85
f 754/62/86 785/60/86 786/62/86
f 740/35/87 773/37/87 741/37/87
f 768/88/88 799/86/88 800/88/88
f 755/64/89 786/62/89 787/64/89
f 741/37/90 774/39/90 742/39/90
f 769/90/91 800/88/91 801/90/91
f 755/64/92 788/66/92 756/66/92
f 742/39/93 775/40/93 743/40/93
f 770/92/94 801/90/94 802/92/94
f 756/66/95 789/68/95 757/68/95
f 743/40/96 776/42/96 744/42/96
f 770/92/97 771/99/97 739/99/97
f 757/68/98 790/70/98 758/70/98
f 745/44/99 776/42/99 777/44/99
f 758/70/100 791/16/100 759/16/100
f 745/44/101 778/46/101 746/46/101
f 759/16/102 792/73/102 760/73/102
f 746/46/103 779/48/103 747/48/103
f 761/75/104 792/73/104 793/75/104
f 747/48/105 780/50/105 748/50/105
f 762/77/106 793/75/106 794/77/106
f 748/50/107 781/52/107 749/52/107
f 814/123/9 806/124/9 830/125/9
f 784/58/25 817/60/25 785/60/25
f 771/32/12 804/35/12 772/35/12
f 798/85/39 831/86/39 799/86/39
f 785/60/26 818/62/26 786/62/26
f 772/35/13 805/37/13 773/37/13
f 799/86/40 832/88/40 800/88/40
f 786/62/27 819/64/27 787/64/27
f 773/37/14 806/39/14 774/39/14
f 800/88/41 833/90/41 801/90/41
f 787/64/28 820/66/28 788/66/28
f 775/40/15 806/39/15 807/40/15
f 801/90/42 834/92/42 802/92/42
f 788/66/29 821/68/29 789/68/29
f 775/40/16 808/42/16 776/42/16
f 802/92/43 803/99/43 771/99/43
f 789/68/30 822/70/30 790/70/30
f 776/42/17 809/44/17 777/44/17
f 790/70/31 823/16/31 791/16/31
f 777/44/18 810/46/18 778/46/18
f 791/16/32 824/73/32 792/73/32
f 778/46/19 811/48/19 779/48/19
f 792/73/33 825/75/33 793/75/33
f 779/48/20 812/50/20 780/50/20
f 793/75/34 826/77/34 794/77/34
f 780/50/21 813/52/21 781/52/21
f 794/77/35 827/79/35 795/79/35
f 781/52/22 814/54/22 782/54/22
f 795/79/36 828/81/36 796/81/36
f 782/54/23 815/56/23 783/56/23
f 796/81/37 829/83/37 797/83/37
f 783/56/24 816/58/24 784/58/24
f 27/1/1 7/19/1 5/2/1
f 17/4/2 19/21/2 23/5/2
f 43/7/3 19/21/3 17/4/3
f 34/9/4 13/12/4 15/10/4
f 13/12/5 41/17/5 10/13/5
f 11/14/6 49/14/6 51/15/6
f 36/11/6 15/10/6 10/13/6
f 13/12/7 3/56/7 40/16/7
f 34/9/8 27/126/8 3/18/8
f 841/127/9 843/128/9 7/19/9
f 23/5/9 849/129/9 848/130/9
f 23/5/9 848/130/9 850/131/9
f 839/132/9 841/127/9 7/19/9
f 852/133/9 839/132/9 7/19/9
f 23/5/9 850/131/9 847/134/9
f 23/5/9 847/134/9 851/135/9
f 846/136/9 852/133/9 7/19/9
f 23/5/9 851/135/9 845/20/9
f 845/20/9 846/136/9 7/19/9
f 860/137/9 849/129/9 23/5/9
f 19/21/9 5/2/9 7/19/9
f 7/19/9 843/128/9 838/138/9
f 7/19/9 838/138/9 835/139/9
f 865/140/9 860/137/9 23/5/9
f 863/141/9 865/140/9 23/5/9
f 7/19/9 835/139/9 837/142/9
f 7/19/9 837/142/9 836/143/9
f 861/144/9 863/141/9 23/5/9
f 862/145/9 861/144/9 23/5/9
f 7/19/9 836/143/9 840/146/9
f 7/19/9 840/146/9 842/147/9
f 862/145/9 23/5/9 19/21/9
f 864/148/9 862/145/9 19/21/9
f 19/21/9 7/19/9 842/147/9
f 19/21/9 842/147/9 844/149/9
f 859/150/9 864/148/9 19/21/9
f 866/151/9 859/150/9 19/21/9
f 19/21/9 844/149/9 853/152/9
f 19/21/9 853/152/9 855/153/9
f 857/154/9 866/151/9 19/21/9
f 856/155/9 857/154/9 19/21/9
f 19/21/9 855/153/9 854/22/9
f 858/23/9 856/155/9 19/21/9
f 7/24/8 27/126/8 34/9/8
f 17/4/6 21/6/6 36/11/6
f 19/21/10 43/7/10 37/25/10
f 34/9/4 36/11/4 21/6/4
f 43/7/3 31/8/3 10/13/3
f 3/27/11 27/1/11 37/3/11
f 1/29/10 40/31/10 37/25/10
f 11/14/10 41/17/10 40/31/10
f 29/15/10 43/7/10 41/17/10
f 25/30/10 37/25/10 43/7/10
f 51/15/8 59/15/8 53/30/8
f 25/30/1 45/30/1 48/29/1
f 29/15/9 51/15/9 45/30/9
f 1/29/7 48/29/7 49/14/7
f 57/14/6 66/14/6 68/15/6
f 49/14/8 48/29/8 56/29/8
f 49/14/8 57/14/8 59/15/8
f 45/30/8 53/30/8 56/29/8
f 68/15/10 66/14/10 64/29/10
f 53/30/1 61/30/1 64/29/1
f 59/15/9 68/15/9 61/30/9
f 56/29/7 64/29/7 66/14/7
f 4/32/12 8/35/12 6/33/12
f 8/35/13 12/37/13 9/36/13
f 12/37/14 16/39/14 14/38/14
f 16/39/15 20/40/15 18/24/15
f 20/40/16 24/42/16 22/41/16
f 24/42/17 28/44/17 26/43/17
f 28/44/18 32/46/18 30/45/18
f 32/46/19 35/48/19 33/47/19
f 35/48/20 39/50/20 38/49/20
f 39/50/21 44/52/21 42/51/21
f 44/52/22 47/54/22 46/53/22
f 47/54/23 52/56/23 50/55/23
f 52/56/24 55/58/24 54/57/24
f 55/58/25 60/60/25 58/59/25
f 60/60/26 63/62/26 62/61/26
f 63/62/27 67/64/27 65/63/27
f 67/64/28 70/66/28 69/65/28
f 70/66/29 72/68/29 71/67/29
f 72/68/30 74/70/30 73/69/30
f 74/70/31 76/16/31 75/71/31
f 76/16/32 78/73/32 77/72/32
f 78/73/33 80/75/33 79/74/33
f 80/75/34 82/77/34 81/76/34
f 82/77/35 84/79/35 83/78/35
f 84/79/36 86/81/36 85/80/36
f 86/81/37 88/83/37 87/82/37
f 88/83/38 90/85/38 89/84/38
f 90/85/39 92/86/39 91/26/39
f 92/86/40 94/88/40 93/87/40
f 94/88/41 96/90/41 95/89/41
f 44/52/7 39/156/7 140/50/7
f 96/90/42 98/92/42 97/91/42
f 98/92/43 4/99/43 2/93/43
f 26/43/9 105/43/9 104/41/9
f 99/34/12 100/33/12 858/94/12
f 62/61/9 114/61/9 113/59/9
f 81/76/9 83/76/9 123/78/9
f 6/33/9 9/36/9 101/36/9
f 46/53/9 110/53/9 109/51/9
f 75/71/9 119/71/9 118/69/9
f 91/26/9 93/87/9 128/87/9
f 26/43/9 30/43/9 106/45/9
f 65/63/9 115/63/9 114/61/9
f 85/80/9 124/78/9 123/78/9
f 14/38/9 102/38/9 101/36/9
f 50/55/9 111/55/9 110/53/9
f 75/71/9 77/72/9 120/72/9
f 93/87/9 95/89/9 129/89/9
f 30/45/9 33/45/9 107/47/9
f 69/65/9 116/65/9 115/63/9
f 87/82/9 125/80/9 124/80/9
f 14/38/9 18/24/9 103/24/9
f 54/57/9 112/57/9 111/55/9
f 79/74/9 121/74/9 120/72/9
f 95/89/9 97/91/9 130/91/9
f 38/49/9 108/47/9 107/47/9
f 71/67/9 117/67/9 116/65/9
f 87/82/9 89/84/9 126/84/9
f 18/24/9 22/41/9 104/41/9
f 54/57/9 58/59/9 113/59/9
f 79/74/9 81/74/9 122/76/9
f 2/34/9 6/33/9 100/33/9
f 97/91/9 2/93/9 99/93/9
f 42/51/9 109/49/9 108/49/9
f 73/69/9 118/69/9 117/67/9
f 91/26/9 127/26/9 126/84/9
f 126/84/39 127/26/39 842/26/39
f 113/59/26 114/61/26 847/61/26
f 100/33/13 101/36/13 856/36/13
f 127/26/40 128/87/40 844/87/40
f 114/61/27 115/63/27 851/63/27
f 101/36/14 102/38/14 857/38/14
f 128/87/41 129/89/41 853/89/41
f 115/63/28 116/65/28 845/65/28
f 102/38/15 103/24/15 866/24/15
f 129/89/42 130/91/42 855/91/42
f 116/65/29 117/67/29 846/67/29
f 103/24/16 104/41/16 859/41/16
f 130/91/43 99/93/43 854/93/43
f 117/67/30 118/69/30 852/69/30
f 104/41/17 105/43/17 864/43/17
f 118/69/31 119/71/31 839/71/31
f 105/43/18 106/45/18 862/45/18
f 119/71/32 120/72/32 841/72/32
f 106/45/19 107/47/19 861/47/19
f 120/72/33 121/74/33 843/74/33
f 107/47/20 108/49/20 863/49/20
f 121/74/34 122/76/34 838/76/34
f 108/49/21 109/51/21 865/51/21
f 122/76/35 123/78/35 835/78/35
f 109/51/22 110/53/22 860/53/22
f 123/78/36 124/80/36 837/80/36
f 110/53/23 111/55/23 849/55/23
f 124/80/37 125/82/37 836/82/37
f 111/55/24 112/57/24 848/57/24
f 125/82/38 126/84/38 840/84/38
f 112/57/25 113/59/25 850/59/25
f 137/44/18 169/44/18 170/46/18
f 72/68/7 149/157/7 150/70/7
f 90/85/7 158/85/7 159/86/7
f 28/44/7 24/42/7 136/95/7
f 63/62/7 60/60/7 145/60/7
f 82/77/7 154/79/7 155/79/7
f 8/35/7 132/158/7 133/37/7
f 47/54/7 44/52/7 141/52/7
f 76/16/7 74/70/7 150/96/7
f 92/86/7 159/86/7 160/88/7
f 28/44/7 137/46/7 138/46/7
f 67/64/7 63/62/7 146/62/7
f 86/81/7 84/81/7 155/79/7
f 12/37/7 133/159/7 134/39/7
f 52/56/7 47/54/7 142/54/7
f 76/16/7 151/160/7 152/73/7
f 96/90/7 94/88/7 160/88/7
f 32/46/7 138/48/7 139/48/7
f 67/64/7 147/64/7 148/66/7
f 88/83/7 86/83/7 156/81/7
f 20/40/7 16/39/7 134/97/7
f 52/56/7 143/56/7 144/58/7
f 80/75/7 78/73/7 152/98/7
f 98/92/7 96/90/7 161/90/7
f 39/50/7 35/50/7 139/48/7
f 70/66/7 148/161/7 149/68/7
f 88/83/7 157/83/7 158/85/7
f 20/40/7 135/162/7 136/42/7
f 60/60/7 55/58/7 144/58/7
f 80/75/7 153/77/7 154/77/7
f 4/32/7 131/32/7 132/35/7
f 4/99/7 98/92/7 162/92/7
f 173/52/7 172/52/7 204/50/7
f 151/16/32 183/16/32 184/73/32
f 138/46/19 170/46/19 171/48/19
f 152/73/33 184/73/33 185/75/33
f 139/48/20 171/48/20 172/50/20
f 153/75/34 185/75/34 186/77/34
f 140/50/21 172/50/21 173/52/21
f 154/77/35 186/77/35 187/79/35
f 141/52/22 173/52/22 174/54/22
f 155/79/36 187/79/36 188/81/36
f 142/54/23 174/54/23 175/56/23
f 156/81/37 188/81/37 189/83/37
f 143/56/24 175/56/24 176/58/24
f 157/83/38 189/83/38 190/85/38
f 144/58/25 176/58/25 177/60/25
f 131/32/12 163/32/12 164/35/12
f 158/85/39 190/85/39 191/86/39
f 145/60/26 177/60/26 178/62/26
f 132/35/13 164/35/13 165/37/13
f 159/86/40 191/86/40 192/88/40
f 146/62/27 178/62/27 179/64/27
f 133/37/14 165/37/14 166/39/14
f 160/88/41 192/88/41 193/90/41
f 147/64/28 179/64/28 180/66/28
f 134/39/15 166/39/15 167/40/15
f 161/90/42 193/90/42 194/92/42
f 148/66/29 180/66/29 181/68/29
f 135/40/16 167/40/16 168/42/16
f 162/92/43 194/92/43 163/99/43
f 149/68/30 181/68/30 182/70/30
f 136/42/17 168/42/17 169/44/17
f 150/70/31 182/70/31 183/16/31
f 207/56/24 239/56/24 240/58/24
f 187/79/7 186/77/7 218/79/7
f 174/54/7 173/54/7 205/52/7
f 187/81/7 219/79/7 220/81/7
f 175/56/7 174/54/7 206/54/7
f 188/83/7 220/81/7 221/83/7
f 176/58/7 175/56/7 207/56/7
f 189/85/7 221/83/7 222/85/7
f 177/60/7 176/58/7 208/58/7
f 163/32/7 195/32/7 196/35/7
f 190/85/7 222/85/7 223/86/7
f 178/62/7 177/60/7 209/60/7
f 164/35/7 196/163/7 197/37/7
f 192/88/7 191/86/7 223/86/7
f 179/64/7 178/62/7 210/62/7
f 166/39/7 165/37/7 197/100/7
f 192/88/7 224/88/7 225/90/7
f 180/66/7 179/64/7 211/64/7
f 166/39/7 198/164/7 199/40/7
f 193/90/7 225/90/7 226/92/7
f 181/68/7 180/66/7 212/101/7
f 167/40/7 199/165/7 200/42/7
f 194/92/7 226/92/7 195/99/7
f 181/68/7 213/166/7 214/70/7
f 169/44/7 168/42/7 200/44/7
f 182/70/7 214/167/7 215/16/7
f 170/46/7 169/44/7 201/46/7
f 184/73/7 183/16/7 215/102/7
f 171/48/7 170/46/7 202/48/7
f 184/73/7 216/75/7 217/75/7
f 171/50/7 203/48/7 204/50/7
f 185/75/7 217/77/7 218/77/7
f 242/62/9 274/168/9 275/64/9
f 221/83/38 253/83/38 254/85/38
f 208/58/25 240/58/25 241/60/25
f 195/32/12 227/32/12 228/35/12
f 222/85/39 254/85/39 255/86/39
f 209/60/26 241/60/26 242/62/26
f 196/35/13 228/35/13 229/37/13
f 223/86/40 255/86/40 256/88/40
f 210/62/27 242/62/27 243/64/27
f 197/37/14 229/37/14 230/39/14
f 224/88/41 256/88/41 257/90/41
f 211/64/28 243/64/28 244/66/28
f 198/39/15 230/39/15 231/40/15
f 225/90/42 257/90/42 258/92/42
f 212/66/29 244/66/29 245/68/29
f 199/40/16 231/40/16 232/42/16
f 226/92/43 258/92/43 227/99/43
f 213/68/30 245/68/30 246/70/30
f 200/42/17 232/42/17 233/44/17
f 214/70/31 246/70/31 247/16/31
f 201/44/18 233/44/18 234/46/18
f 215/16/32 247/16/32 248/73/32
f 202/46/19 234/46/19 235/48/19
f 216/73/33 248/73/33 249/75/33
f 203/48/20 235/48/20 236/50/20
f 217/75/34 249/75/34 250/77/34
f 204/50/21 236/50/21 237/52/21
f 218/77/35 250/77/35 251/79/35
f 205/52/22 237/52/22 238/54/22
f 219/79/36 251/79/36 252/81/36
f 206/54/23 238/54/23 239/56/23
f 220/81/37 252/81/37 253/83/37
f 277/68/30 309/68/30 310/70/30
f 229/37/9 261/37/9 262/39/9
f 257/90/9 256/88/9 288/103/9
f 243/64/9 275/64/9 276/66/9
f 231/40/9 230/39/9 262/39/9
f 258/92/9 257/90/9 289/104/9
f 245/68/9 244/66/9 276/66/9
f 231/105/9 263/40/9 264/42/9
f 227/99/9 258/92/9 290/106/9
f 246/70/9 245/68/9 277/68/9
f 233/44/9 232/44/9 264/42/9
f 247/16/9 246/70/9 278/70/9
f 233/46/9 265/44/9 266/46/9
f 247/73/9 279/16/9 280/73/9
f 234/48/9 266/46/9 267/48/9
f 249/75/9 248/75/9 280/73/9
f 236/50/9 235/48/9 267/50/9
f 250/77/9 249/77/9 281/75/9
f 236/50/9 268/52/9 269/52/9
f 250/79/9 282/77/9 283/79/9
f 237/52/9 269/54/9 270/54/9
f 252/81/9 251/79/9 283/81/9
f 238/54/9 270/56/9 271/56/9
f 253/83/9 252/81/9 284/83/9
f 239/56/9 271/169/9 272/58/9
f 254/85/9 253/83/9 285/85/9
f 240/58/9 272/170/9 273/60/9
f 228/35/9 227/32/9 259/32/9
f 255/86/9 254/85/9 286/86/9
f 241/60/9 273/171/9 274/62/9
f 229/37/9 228/35/9 260/35/9
f 255/86/9 287/172/9 288/88/9
f 312/75/9 344/73/9 345/75/9
f 264/42/17 296/42/17 297/44/17
f 278/70/31 310/70/31 311/16/31
f 265/44/18 297/44/18 298/46/18
f 279/16/32 311/16/32 312/73/32
f 266/46/19 298/46/19 299/48/19
f 280/73/33 312/73/33 313/75/33
f 267/48/20 299/48/20 300/50/20
f 281/75/34 313/75/34 314/77/34
f 268/50/21 300/50/21 301/52/21
f 282/77/35 314/77/35 315/79/35
f 269/52/22 301/52/22 302/54/22
f 283/79/36 315/79/36 316/81/36
f 270/54/23 302/54/23 303/56/23
f 284/81/37 316/81/37 317/83/37
f 271/56/24 303/56/24 304/58/24
f 285/83/38 317/83/38 318/85/38
f 272/58/25 304/58/25 305/60/25
f 259/32/12 291/32/12 292/35/12
f 286/85/39 318/85/39 319/86/39
f 273/60/26 305/60/26 306/62/26
f 260/35/13 292/35/13 293/37/13
f 287/86/40 319/86/40 320/88/40
f 274/62/27 306/62/27 307/64/27
f 261/37/14 293/37/14 294/39/14
f 288/88/41 320/88/41 321/90/41
f 275/64/28 307/64/28 308/66/28
f 262/39/15 294/39/15 295/40/15
f 289/90/42 321/90/42 322/92/42
f 276/66/29 308/66/29 309/68/29
f 263/40/16 295/40/16 296/42/16
f 290/92/43 322/92/43 291/99/43
f 347/79/36 379/79/36 380/81/36
f 300/50/9 299/48/9 331/50/9
f 314/77/9 313/77/9 345/75/9
f 301/52/9 300/50/9 332/52/9
f 315/79/9 314/79/9 346/77/9
f 301/52/9 333/54/9 334/54/9
f 315/79/9 347/81/9 348/81/9
f 303/56/9 302/54/9 334/56/9
f 317/83/9 316/81/9 348/83/9
f 303/56/9 335/58/9 336/58/9
f 318/85/9 317/83/9 349/85/9
f 305/60/9 304/58/9 336/60/9
f 291/32/9 323/32/9 324/35/9
f 319/86/9 318/85/9 350/86/9
f 306/62/9 305/60/9 337/107/9
f 293/37/9 292/35/9 324/35/9
f 319/86/9 351/88/9 352/88/9
f 307/64/9 306/62/9 338/108/9
f 293/39/9 325/37/9 326/39/9
f 321/90/9 320/88/9 352/90/9
f 307/64/9 339/64/9 340/66/9
f 295/40/9 294/40/9 326/39/9
f 321/90/9 353/173/9 354/92/9
f 308/66/9 340/66/9 341/68/9
f 295/42/9 327/40/9 328/42/9
f 291/99/9 322/92/9 354/109/9
f 309/110/9 341/68/9 342/70/9
f 297/44/9 296/44/9 328/42/9
f 311/16/9 310/16/9 342/70/9
f 297/46/9 329/44/9 330/46/9
f 311/73/9 343/16/9 344/73/9
f 298/48/9 330/46/9 331/48/9
f 382/86/7 414/85/7 415/86/7
f 334/54/23 366/54/23 367/56/23
f 348/81/37 380/81/37 381/83/37
f 335/56/24 367/56/24 368/58/24
f 349/83/38 381/83/38 382/85/38
f 336/58/25 368/58/25 369/60/25
f 323/32/12 355/32/12 356/35/12
f 350/85/39 382/85/39 383/86/39
f 337/60/26 369/60/26 370/62/26
f 324/35/13 356/35/13 357/37/13
f 351/86/40 383/86/40 384/88/40
f 338/62/27 370/62/27 371/64/27
f 325/37/14 357/37/14 358/39/14
f 352/88/41 384/88/41 385/90/41
f 339/64/28 371/64/28 372/66/28
f 326/39/15 358/39/15 359/40/15
f 353/90/42 385/90/42 386/92/42
f 340/66/29 372/66/29 373/68/29
f 327/40/16 359/40/16 360/42/16
f 354/92/43 386/92/43 355/99/43
f 341/68/30 373/68/30 374/70/30
f 328/42/17 360/42/17 361/44/17
f 342/70/31 374/70/31 375/16/31
f 329/44/18 361/44/18 362/46/18
f 343/16/32 375/16/32 376/73/32
f 330/46/19 362/46/19 363/48/19
f 344/73/33 376/73/33 377/75/33
f 331/48/20 363/48/20 364/50/20
f 345/75/34 377/75/34 378/77/34
f 332/50/21 364/50/21 365/52/21
f 346/77/35 378/77/35 379/79/35
f 333/52/22 365/52/22 366/54/22
f 417/90/42 449/90/42 450/92/42
f 369/60/7 401/60/7 402/62/7
f 356/35/7 388/174/7 389/37/7
f 384/88/7 383/88/7 415/86/7
f 371/64/7 370/62/7 402/62/7
f 358/39/7 357/37/7 389/39/7
f 384/90/7 416/88/7 417/90/7
f 372/66/7 371/64/7 403/64/7
f 358/39/7 390/40/7 391/40/7
f 386/92/7 385/90/7 417/90/7
f 373/68/7 372/66/7 404/111/7
f 360/42/7 359/40/7 391/42/7
f 355/99/7 386/92/7 418/92/7
f 374/70/7 373/68/7 405/70/7
f 360/42/7 392/44/7 393/44/7
f 374/70/7 406/16/7 407/16/7
f 362/46/7 361/44/7 393/112/7
f 376/73/7 375/16/7 407/73/7
f 363/48/7 362/46/7 394/48/7
f 377/75/7 376/73/7 408/75/7
f 363/50/7 395/48/7 396/50/7
f 378/77/7 377/75/7 409/77/7
f 364/52/7 396/50/7 397/52/7
f 378/77/7 410/79/7 411/79/7
f 366/54/7 365/54/7 397/52/7
f 380/81/7 379/81/7 411/79/7
f 367/56/7 366/56/7 398/54/7
f 380/83/7 412/81/7 413/83/7
f 368/58/7 367/58/7 399/56/7
f 381/85/7 413/83/7 414/85/7
f 369/60/7 368/60/7 400/58/7
f 355/32/7 387/32/7 388/35/7
f 439/16/9 471/16/9 472/73/9
f 404/66/29 436/66/29 437/68/29
f 391/40/16 423/40/16 424/42/16
f 418/92/43 450/92/43 419/99/43
f 405/68/30 437/68/30 438/70/30
f 392/42/17 424/42/17 425/44/17
f 406/70/31 438/70/31 439/16/31
f 393/44/18 425/44/18 426/46/18
f 407/16/32 439/16/32 440/73/32
f 394/46/19 426/46/19 427/48/19
f 408/73/33 440/73/33 441/75/33
f 395/48/20 427/48/20 428/50/20
f 409/75/34 441/75/34 442/77/34
f 396/50/21 428/50/21 429/52/21
f 410/77/35 442/77/35 443/79/35
f 397/52/22 429/52/22 430/54/22
f 411/79/36 443/79/36 444/81/36
f 398/54/23 430/54/23 431/56/23
f 412/81/37 444/81/37 445/83/37
f 399/56/24 431/56/24 432/58/24
f 413/83/38 445/83/38 446/85/38
f 400/58/25 432/58/25 433/60/25
f 387/32/12 419/32/12 420/35/12
f 414/85/39 446/85/39 447/86/39
f 401/60/26 433/60/26 434/62/26
f 388/35/13 420/35/13 421/37/13
f 415/86/40 447/86/40 448/88/40
f 402/62/27 434/62/27 435/64/27
f 389/37/14 421/37/14 422/39/14
f 416/88/41 448/88/41 449/90/41
f 403/64/28 435/64/28 436/66/28
f 390/39/15 422/39/15 423/40/15
f 474/77/35 506/77/35 507/79/35
f 427/48/9 426/48/9 458/46/9
f 441/75/9 440/75/9 472/73/9
f 427/48/9 459/175/9 460/50/9
f 441/77/9 473/75/9 474/77/9
f 429/52/9 428/50/9 460/52/9
f 443/79/9 442/79/9 474/77/9
f 429/52/9 461/54/9 462/54/9
f 443/79/9 475/176/9 476/81/9
f 430/54/9 462/177/9 463/56/9
f 445/83/9 444/81/9 476/83/9
f 431/56/9 463/178/9 464/58/9
f 446/85/9 445/83/9 477/85/9
f 432/58/9 464/179/9 465/60/9
f 420/35/9 419/32/9 451/32/9
f 447/86/9 446/85/9 478/113/9
f 433/60/9 465/180/9 466/62/9
f 421/37/9 420/35/9 452/35/9
f 448/88/9 447/86/9 479/114/9
f 434/62/9 466/181/9 467/64/9
f 422/39/9 421/37/9 453/37/9
f 449/90/9 448/88/9 480/115/9
f 435/64/9 467/64/9 468/66/9
f 422/39/9 454/39/9 455/40/9
f 450/92/9 449/90/9 481/116/9
f 437/68/9 436/66/9 468/66/9
f 424/42/9 423/40/9 455/40/9
f 419/99/9 450/92/9 482/117/9
f 437/68/9 469/68/9 470/70/9
f 424/44/9 456/42/9 457/44/9
f 439/16/9 438/70/9 470/70/9
f 425/46/9 457/44/9 458/46/9
f 509/85/7 541/83/7 542/85/7
f 461/52/22 493/52/22 494/54/22
f 475/79/36 507/79/36 508/81/36
f 462/54/23 494/54/23 495/56/23
f 476/81/37 508/81/37 509/83/37
f 463/56/24 495/56/24 496/58/24
f 477/83/38 509/83/38 510/85/38
f 464/58/25 496/58/25 497/60/25
f 451/32/12 483/32/12 484/35/12
f 478/85/39 510/85/39 511/86/39
f 465/60/26 497/60/26 498/62/26
f 452/35/13 484/35/13 485/37/13
f 479/86/40 511/86/40 512/88/40
f 466/62/27 498/62/27 499/64/27
f 453/37/14 485/37/14 486/39/14
f 480/88/41 512/88/41 513/90/41
f 467/64/28 499/64/28 500/66/28
f 454/39/15 486/39/15 487/40/15
f 481/90/42 513/90/42 514/92/42
f 468/66/29 500/66/29 501/68/29
f 455/40/16 487/40/16 488/42/16
f 482/92/43 514/92/43 483/99/43
f 469/68/30 501/68/30 502/70/30
f 456/42/17 488/42/17 489/44/17
f 470/70/31 502/70/31 503/16/31
f 457/44/18 489/44/18 490/46/18
f 471/16/32 503/16/32 504/73/32
f 458/46/19 490/46/19 491/48/19
f 472/73/33 504/73/33 505/75/33
f 459/48/20 491/48/20 492/50/20
f 473/75/34 505/75/34 506/77/34
f 460/50/21 492/50/21 493/52/21
f 517/37/14 549/37/14 550/39/14
f 497/60/7 496/58/7 528/58/7
f 483/32/7 515/32/7 516/35/7
f 511/86/7 510/86/7 542/85/7
f 498/62/7 497/60/7 529/60/7
f 485/37/7 484/35/7 516/35/7
f 511/88/7 543/86/7 544/88/7
f 498/62/7 530/62/7 531/64/7
f 485/37/7 517/37/7 518/39/7
f 512/88/7 544/88/7 545/90/7
f 500/66/7 499/64/7 531/64/7
f 487/40/7 486/39/7 518/40/7
f 513/90/7 545/90/7 546/92/7
f 500/66/7 532/66/7 533/68/7
f 487/40/7 519/42/7 520/42/7
f 514/92/7 546/92/7 515/99/7
f 502/70/7 501/68/7 533/68/7
f 488/42/7 520/44/7 521/44/7
f 502/70/7 534/16/7 535/16/7
f 490/46/7 489/44/7 521/118/7
f 504/73/7 503/16/7 535/73/7
f 491/48/7 490/46/7 522/48/7
f 504/73/7 536/75/7 537/75/7
f 492/50/7 491/50/7 523/48/7
f 506/77/7 505/75/7 537/77/7
f 493/52/7 492/52/7 524/50/7
f 506/77/7 538/79/7 539/79/7
f 494/54/7 493/54/7 525/52/7
f 508/81/7 507/81/7 539/79/7
f 494/56/7 526/54/7 527/56/7
f 508/83/7 540/81/7 541/83/7
f 496/58/7 495/58/7 527/56/7
f 552/42/7 584/44/7 585/44/7
f 544/88/41 576/88/41 577/90/41
f 531/64/28 563/64/28 564/66/28
f 518/39/15 550/39/15 551/40/15
f 545/90/42 577/90/42 578/92/42
f 532/66/29 564/66/29 565/68/29
f 519/40/16 551/40/16 552/42/16
f 546/92/43 578/92/43 547/99/43
f 533/68/30 565/68/30 566/70/30
f 520/42/17 552/42/17 553/44/17
f 534/70/31 566/70/31 567/16/31
f 521/44/18 553/44/18 554/46/18
f 535/16/32 567/16/32 568/73/32
f 522/46/19 554/46/19 555/48/19
f 536/73/33 568/73/33 569/75/33
f 523/48/20 555/48/20 556/50/20
f 537/75/34 569/75/34 570/77/34
f 524/50/21 556/50/21 557/52/21
f 538/77/35 570/77/35 571/79/35
f 525/52/22 557/52/22 558/54/22
f 539/79/36 571/79/36 572/81/36
f 526/54/23 558/54/23 559/56/23
f 540/81/37 572/81/37 573/83/37
f 527/56/24 559/56/24 560/58/24
f 541/83/38 573/83/38 574/85/38
f 528/58/25 560/58/25 561/60/25
f 515/32/12 547/32/12 548/35/12
f 542/85/39 574/85/39 575/86/39
f 529/60/26 561/60/26 562/62/26
f 516/35/13 548/35/13 549/37/13
f 543/86/40 575/86/40 576/88/40
f 530/62/27 562/62/27 563/64/27
f 587/48/20 619/48/20 620/50/20
f 566/70/7 598/182/7 599/16/7
f 554/46/7 553/44/7 585/46/7
f 568/73/7 567/16/7 599/73/7
f 555/48/7 554/46/7 586/48/7
f 569/75/7 568/73/7 600/75/7
f 556/50/7 555/50/7 587/48/7
f 569/75/7 601/77/7 602/77/7
f 557/52/7 556/52/7 588/50/7
f 570/77/7 602/79/7 603/79/7
f 558/54/7 557/54/7 589/52/7
f 572/81/7 571/81/7 603/79/7
f 559/56/7 558/56/7 590/54/7
f 572/83/7 604/81/7 605/83/7
f 560/58/7 559/56/7 591/56/7
f 573/85/7 605/83/7 606/85/7
f 561/60/7 560/58/7 592/58/7
f 547/32/7 579/32/7 580/35/7
f 574/86/7 606/85/7 607/86/7
f 562/62/7 561/60/7 593/60/7
f 548/35/7 580/183/7 581/37/7
f 576/88/7 575/86/7 607/86/7
f 562/62/7 594/62/7 595/64/7
f 550/39/7 549/37/7 581/119/7
f 576/88/7 608/88/7 609/90/7
f 563/64/7 595/64/7 596/66/7
f 550/39/7 582/184/7 583/40/7
f 578/92/7 577/90/7 609/90/7
f 564/66/7 596/185/7 597/68/7
f 551/40/7 583/42/7 584/42/7
f 547/99/7 578/92/7 610/92/7
f 565/68/7 597/186/7 598/70/7
f 622/54/9 654/56/9 655/56/9
f 601/75/34 633/75/34 634/77/34
f 588/50/21 620/50/21 621/52/21
f 602/77/35 634/77/35 635/79/35
f 589/52/22 621/52/22 622/54/22
f 603/79/36 635/79/36 636/81/36
f 590/54/23 622/54/23 623/56/23
f 604/81/37 636/81/37 637/83/37
f 591/56/24 623/56/24 624/58/24
f 605/83/38 637/83/38 638/85/38
f 592/58/25 624/58/25 625/60/25
f 579/32/12 611/32/12 612/35/12
f 606/85/39 638/85/39 639/86/39
f 593/60/26 625/60/26 626/62/26
f 580/35/13 612/35/13 613/37/13
f 607/86/40 639/86/40 640/88/40
f 594/62/27 626/62/27 627/64/27
f 581/37/14 613/37/14 614/39/14
f 608/88/41 640/88/41 641/90/41
f 595/64/28 627/64/28 628/66/28
f 582/39/15 614/39/15 615/40/15
f 609/90/42 641/90/42 642/92/42
f 596/66/29 628/66/29 629/68/29
f 583/40/16 615/40/16 616/42/16
f 610/92/43 642/92/43 611/99/43
f 597/68/30 629/68/30 630/70/30
f 584/42/17 616/42/17 617/44/17
f 598/70/31 630/70/31 631/16/31
f 585/44/18 617/44/18 618/46/18
f 599/16/32 631/16/32 632/73/32
f 586/46/19 618/46/19 619/48/19
f 600/73/33 632/73/33 633/75/33
f 657/60/26 689/60/26 690/62/26
f 637/83/9 636/81/9 668/83/9
f 623/56/9 655/58/9 656/58/9
f 637/83/9 669/85/9 670/85/9
f 625/60/9 624/58/9 656/60/9
f 612/35/9 611/32/9 643/32/9
f 639/86/9 638/85/9 670/86/9
f 626/62/9 625/60/9 657/120/9
f 612/35/9 644/35/9 645/37/9
f 640/88/9 639/86/9 671/88/9
f 626/62/9 658/187/9 659/64/9
f 613/39/9 645/37/9 646/39/9
f 640/88/9 672/90/9 673/90/9
f 628/66/9 627/64/9 659/64/9
f 615/40/9 614/40/9 646/39/9
f 642/92/9 641/90/9 673/121/9
f 628/66/9 660/66/9 661/68/9
f 615/42/9 647/40/9 648/42/9
f 642/92/9 674/188/9 643/99/9
f 630/70/9 629/70/9 661/68/9
f 616/44/9 648/42/9 649/44/9
f 630/16/9 662/70/9 663/16/9
f 618/46/9 617/46/9 649/44/9
f 631/73/9 663/16/9 664/73/9
f 618/48/9 650/46/9 651/48/9
f 633/75/9 632/75/9 664/73/9
f 619/48/9 651/189/9 652/50/9
f 634/77/9 633/77/9 665/75/9
f 620/50/9 652/52/9 653/52/9
f 635/79/9 634/79/9 666/77/9
f 622/54/9 621/52/9 653/122/9
f 636/81/9 635/79/9 667/81/9
f 692/66/44 724/66/44 725/68/44
f 644/35/13 676/35/13 677/37/13
f 671/86/40 703/86/40 704/88/40
f 658/62/27 690/62/27 691/64/27
f 645/37/14 677/37/14 678/39/14
f 672/88/41 704/88/41 705/90/41
f 659/64/28 691/64/28 692/66/28
f 646/39/15 678/39/15 679/40/15
f 673/90/42 705/90/42 706/92/42
f 660/66/29 692/66/29 693/68/29
f 647/40/16 679/40/16 680/42/16
f 674/92/43 706/92/43 675/99/43
f 661/68/30 693/68/30 694/70/30
f 648/42/17 680/42/17 681/44/17
f 662/70/31 694/70/31 695/16/31
f 649/44/18 681/44/18 682/46/18
f 663/16/32 695/16/32 696/73/32
f 650/46/19 682/46/19 683/48/19
f 664/73/33 696/73/33 697/75/33
f 651/48/20 683/48/20 684/50/20
f 665/75/34 697/75/34 698/77/34
f 652/50/21 684/50/21 685/52/21
f 666/77/35 698/77/35 699/79/35
f 653/52/22 685/52/22 686/54/22
f 667/79/36 699/79/36 700/81/36
f 654/54/23 686/54/23 687/56/23
f 668/81/37 700/81/37 701/83/37
f 655/56/24 687/56/24 688/58/24
f 669/83/38 701/83/38 702/85/38
f 656/58/25 688/58/25 689/60/25
f 643/32/12 675/32/12 676/35/12
f 670/85/39 702/85/39 703/86/39
f 727/16/32 759/16/32 760/73/32
f 680/42/45 679/40/45 711/40/45
f 675/99/108 706/92/108 738/92/108
f 693/68/47 725/68/47 726/70/47
f 681/44/48 680/42/48 712/42/48
f 695/16/49 694/70/49 726/70/49
f 681/44/50 713/44/50 714/46/50
f 696/73/51 695/16/51 727/16/51
f 682/46/109 714/46/109 715/48/109
f 696/73/53 728/73/53 729/75/53
f 684/50/110 683/48/110 715/48/110
f 697/75/55 729/75/55 730/77/55
f 685/52/56 684/50/56 716/50/56
f 698/77/111 730/77/111 731/79/111
f 685/52/58 717/52/58 718/54/58
f 700/81/112 699/79/112 731/79/112
f 686/54/60 718/54/60 719/56/60
f 701/83/61 700/81/61 732/81/61
f 687/56/62 719/56/62 720/58/62
f 702/85/63 701/83/63 733/83/63
f 688/58/64 720/58/64 721/60/64
f 676/35/113 675/32/113 707/32/113
f 702/85/66 734/85/66 735/86/66
f 689/60/67 721/60/67 722/62/67
f 677/37/68 676/35/68 708/35/68
f 703/86/69 735/86/69 736/88/69
f 690/62/70 722/62/70 723/64/70
f 678/39/71 677/37/71 709/37/71
f 705/90/72 704/88/72 736/88/72
f 691/64/73 723/64/73 724/66/73
f 679/40/74 678/39/74 710/39/74
f 705/90/75 737/90/75 738/92/75
f 763/79/76 762/77/76 794/77/76
f 714/46/19 746/46/19 747/48/19
f 728/73/33 760/73/33 761/75/33
f 715/48/20 747/48/20 748/50/20
f 729/75/34 761/75/34 762/77/34
f 716/50/21 748/50/21 749/52/21
f 730/77/35 762/77/35 763/79/35
f 717/52/22 749/52/22 750/54/22
f 731/79/36 763/79/36 764/81/36
f 718/54/23 750/54/23 751/56/23
f 732/81/37 764/81/37 765/83/37
f 719/56/24 751/56/24 752/58/24
f 733/83/38 765/83/38 766/85/38
f 720/58/25 752/58/25 753/60/25
f 707/32/12 739/32/12 740/35/12
f 734/85/39 766/85/39 767/86/39
f 721/60/26 753/60/26 754/62/26
f 708/35/13 740/35/13 741/37/13
f 735/86/40 767/86/40 768/88/40
f 722/62/27 754/62/27 755/64/27
f 709/37/14 741/37/14 742/39/14
f 736/88/41 768/88/41 769/90/41
f 723/64/28 755/64/28 756/66/28
f 710/39/15 742/39/15 743/40/15
f 737/90/42 769/90/42 770/92/42
f 724/66/29 756/66/29 757/68/29
f 711/40/16 743/40/16 744/42/16
f 738/92/43 770/92/43 739/99/43
f 725/68/30 757/68/30 758/70/30
f 712/42/17 744/42/17 745/44/17
f 726/70/31 758/70/31 759/16/31
f 713/44/18 745/44/18 746/46/18
f 797/83/38 829/83/38 830/85/38
f 749/52/77 781/52/77 782/54/77
f 763/79/78 795/79/78 796/81/78
f 750/54/79 782/54/79 783/56/79
f 765/83/80 764/81/80 796/81/80
f 752/58/114 751/56/114 783/56/114
f 765/83/82 797/83/82 798/85/82
f 753/60/83 752/58/83 784/58/83
f 740/35/115 739/32/115 771/32/115
f 767/86/85 766/85/85 798/85/85
f 754/62/86 753/60/86 785/60/86
f 740/35/87 772/35/87 773/37/87
f 768/88/116 767/86/116 799/86/116
f 755/64/89 754/62/89 786/62/89
f 741/37/90 773/37/90 774/39/90
f 769/90/91 768/88/91 800/88/91
f 755/64/92 787/64/92 788/66/92
f 742/39/117 774/39/117 775/40/117
f 770/92/94 769/90/94 801/90/94
f 756/66/95 788/66/95 789/68/95
f 743/40/96 775/40/96 776/42/96
f 770/92/118 802/92/118 771/99/118
f 757/68/98 789/68/98 790/70/98
f 745/44/99 744/42/99 776/42/99
f 758/70/119 790/70/119 791/16/119
f 745/44/101 777/44/101 778/46/101
f 759/16/102 791/16/102 792/73/102
f 746/46/103 778/46/103 779/48/103
f 761/75/104 760/73/104 792/73/104
f 747/48/120 779/48/120 780/50/120
f 762/77/106 761/75/106 793/75/106
f 748/50/107 780/50/107 781/52/107
f 830/125/9 829/190/9 828/191/9
f 828/191/9 827/192/9 826/191/9
f 826/191/9 825/190/9 824/125/9
f 824/125/121 823/193/121 822/194/121
f 822/194/122 821/195/122 820/196/122
f 820/196/9 819/197/9 818/198/9
f 818/198/9 817/199/9 816/124/9
f 816/124/9 815/200/9 814/123/9
f 814/123/9 813/201/9 812/202/9
f 812/202/9 811/203/9 810/202/9
f 810/202/9 809/201/9 808/123/9
f 808/123/9 807/200/9 806/124/9
f 806/124/9 805/199/9 804/198/9
f 804/198/9 803/197/9 834/196/9
f 834/196/121 833/195/121 832/194/121
f 832/194/9 831/193/9 830/125/9
f 830/125/9 828/191/9 826/191/9
f 826/191/9 824/125/9 822/194/9
f 822/194/9 820/196/9 818/198/9
f 818/198/9 816/124/9 814/123/9
f 814/123/9 812/202/9 810/202/9
f 810/202/9 808/123/9 806/124/9
f 806/124/9 804/198/9 834/196/9
f 834/196/9 832/194/9 830/125/9
f 830/125/9 826/191/9 822/194/9
f 822/194/9 818/198/9 814/123/9
f 814/123/9 810/202/9 806/124/9
f 806/124/9 834/196/9 830/125/9
f 830/125/9 822/194/9 814/123/9
f 784/58/25 816/58/25 817/60/25
f 771/32/12 803/32/12 804/35/12
f 798/85/39 830/85/39 831/86/39
f 785/60/26 817/60/26 818/62/26
f 772/35/13 804/35/13 805/37/13
f 799/86/40 831/86/40 832/88/40
f 786/62/27 818/62/27 819/64/27
f 773/37/14 805/37/14 806/39/14
f 800/88/41 832/88/41 833/90/41
f 787/64/28 819/64/28 820/66/28
f 775/40/15 774/39/15 806/39/15
f 801/90/42 833/90/42 834/92/42
f 788/66/29 820/66/29 821/68/29
f 775/40/16 807/40/16 808/42/16
f 802/92/43 834/92/43 803/99/43
f 789/68/30 821/68/30 822/70/30
f 776/42/17 808/42/17 809/44/17
f 790/70/31 822/70/31 823/16/31
f 777/44/18 809/44/18 810/46/18
f 791/16/32 823/16/32 824/73/32
f 778/46/19 810/46/19 811/48/19
f 792/73/33 824/73/33 825/75/33
f 779/48/20 811/48/20 812/50/20
f 793/75/34 825/75/34 826/77/34
f 780/50/21 812/50/21 813/52/21
f 794/77/35 826/77/35 827/79/35
f 781/52/22 813/52/22 814/54/22
f 795/79/36 827/79/36 828/81/36
f 782/54/23 814/54/23 815/56/23
f 796/81/37 828/81/37 829/83/37
f 783/56/24 815/56/24 816/58/24
