# Blender 5.2.2 LTS
# www.blender.org
mtllib base.mtl
o base
v 0.096044 0.005624 1.050299
v -0.777293 -0.437549 0.896845
v -0.777293 -0.346006 0.896845
v -0.242299 0.339768 0.103240
v 0.120881 0.008071 1.050299
v -0.522012 0.602357 0.453465
v -0.777293 -0.437549 -0.597860
v 0.144764 0.015315 1.050299
v -0.777293 -0.346006 -0.597860
v -0.522012 0.602357 0.261754
v 0.166774 0.027080 1.050299
v 0.604410 -0.437549 0.896845
v 0.604410 -0.346006 0.896845
v 0.186065 0.042912 1.050299
v -0.330301 0.602357 0.453465
v 0.201898 0.062204 1.050299
v 0.604410 -0.437549 -0.597860
v 0.604410 -0.346006 -0.597860
v -0.330301 0.602357 0.261754
v 0.213663 0.084215 1.050299
v -0.777293 -0.437549 0.629327
v 0.220907 0.108097 1.050299
v -0.777293 -0.437549 -0.330342
v -0.777293 -0.346006 -0.330342
v -0.777293 -0.346006 0.629327
v 0.223354 0.132934 1.050299
v 0.604410 -0.437549 -0.330342
v 0.604410 -0.437549 0.629327
v 0.220907 0.157771 1.050299
v 0.604410 -0.346006 0.629327
v -0.164690 -0.161211 0.197807
v 0.213663 0.181653 1.050299
v 0.604410 -0.346006 -0.330342
v -0.164690 0.339768 0.197807
v 0.201898 0.203663 1.050299
v -0.777293 -0.307826 0.601319
v 0.186065 0.222955 1.050299
v -0.169193 -0.161211 0.212651
v -0.777293 -0.307826 -0.302334
v -0.169193 0.339768 0.212651
v 0.166774 0.238788 1.050299
v -0.176505 -0.161211 0.226332
v 0.604410 -0.307826 -0.302334
v 0.144764 0.250552 1.050299
v 0.604410 -0.307826 0.601319
v 0.120881 0.257797 1.050299
v -0.176505 0.339768 0.226332
v 0.604410 -0.399369 0.601319
v -0.186346 -0.161211 0.238323
v 0.096044 0.260243 1.050299
v -0.186346 0.339768 0.238323
v 0.071207 0.257797 1.050299
v 0.604410 -0.399369 -0.302334
v -0.198337 -0.161211 0.248164
v -0.777293 -0.399369 -0.302334
v 0.047325 0.250552 1.050299
v -0.777293 -0.399369 0.601319
v 0.025315 0.238788 1.050299
v -0.198337 0.339768 0.248164
v -0.212018 -0.161211 0.255476
v 0.006023 0.222955 1.050299
v -0.601820 -0.437549 -0.597860
v -0.212018 0.339768 0.255476
v 0.428938 -0.437549 -0.597860
v -0.009810 0.203663 1.050299
v 0.428938 -0.346006 -0.597860
v -0.226862 -0.161211 0.259979
v -0.021574 0.181653 1.050299
v -0.601820 -0.346006 -0.597860
v -0.226862 0.339768 0.259979
v -0.028819 0.157771 1.050299
v 0.428938 -0.437549 0.896845
v -0.242299 -0.161211 0.261499
v -0.031265 0.132934 1.050299
v -0.601820 -0.437549 0.896845
v -0.242299 0.339768 0.261499
v -0.028819 0.108097 1.050299
v -0.601820 -0.346006 0.896845
v -0.021574 0.084215 1.050299
v -0.257737 -0.161211 0.259979
v 0.428938 -0.346006 0.896845
v -0.009810 0.062204 1.050299
v -0.257737 0.339768 0.259979
v -0.601820 -0.346006 0.629327
v 0.006023 0.042912 1.050299
v -0.272581 -0.161211 0.255476
v 0.428938 -0.346006 0.629327
v 0.025315 0.027080 1.050299
v -0.272581 0.339768 0.255476
v -0.286262 -0.161211 0.248164
v 0.428938 -0.346006 -0.330342
v 0.047325 0.015315 1.050299
v -0.286262 0.339768 0.248164
v 0.071207 0.008071 1.050299
v -0.601820 -0.346006 -0.330342
v 0.428938 -0.437549 0.629327
v -0.298253 -0.161211 0.238323
v 0.096044 0.005624 0.930106
v 0.120881 0.008071 0.930106
v -0.601820 -0.437549 0.629327
v -0.298253 0.339768 0.238323
v 0.144764 0.015315 0.930106
v -0.601820 -0.437549 -0.330342
v 0.166774 0.027080 0.930106
v -0.308093 -0.161211 0.226332
v 0.186065 0.042912 0.930106
v -0.308093 0.339768 0.226332
v 0.201898 0.062204 0.930106
v 0.428938 -0.437549 -0.330342
v 0.213663 0.084215 0.930106
v -0.315406 -0.161211 0.212651
v 0.220907 0.108097 0.930106
v 0.223354 0.132934 0.930106
v 0.428938 -0.399369 -0.302334
v -0.315406 0.339768 0.212651
v 0.220907 0.157771 0.930106
v -0.601820 -0.399369 -0.302334
v 0.213663 0.181653 0.930106
v -0.319909 -0.161211 0.197807
v 0.201898 0.203663 0.930106
v 0.186065 0.222955 0.930106
v -0.601820 -0.399369 0.601319
v 0.166774 0.238788 0.930106
v 0.428938 -0.399369 0.601319
v -0.319909 0.339768 0.197807
v 0.144764 0.250552 0.930106
v -0.321429 -0.161211 0.182370
v 0.120881 0.257797 0.930106
v 0.096044 0.260243 0.930106
v -0.601820 -0.307826 -0.302334
v -0.321429 0.339768 0.182370
v 0.071207 0.257797 0.930106
v 0.047325 0.250552 0.930106
v 0.428938 -0.307826 -0.302334
v 0.428938 -0.307826 0.601319
v 0.025315 0.238788 0.930106
v 0.006023 0.222955 0.930106
v -0.319909 -0.161211 0.166932
v -0.009810 0.203663 0.930106
v -0.601820 -0.307826 0.601319
v -0.319909 0.339768 0.166932
v -0.021574 0.181653 0.930106
v -0.028819 0.157771 0.930106
v -0.315406 -0.161211 0.152088
v -0.031265 0.132934 0.930106
v -0.569553 -0.399369 -0.302334
v -0.315406 0.339768 0.152088
v -0.028819 0.108097 0.930106
v 0.396670 -0.399369 -0.302334
v -0.021574 0.084215 0.930106
v -0.009810 0.062204 0.930106
v -0.308093 -0.161211 0.138407
v 0.006023 0.042912 0.930106
v 0.396670 -0.399369 -0.330342
v 0.025315 0.027080 0.930106
v -0.308093 0.339768 0.138407
v 0.047325 0.015315 0.930106
v -0.569553 -0.399369 -0.330342
v 0.071207 0.008071 0.930106
v -0.298253 -0.161211 0.126416
v 0.120881 0.008071 1.034718
v -0.569553 -0.399369 0.629327
v 0.396670 -0.399369 0.629327
v 0.144764 0.015315 1.034718
v 0.166774 0.027080 1.034718
v -0.298253 0.339768 0.126416
v 0.186065 0.042912 1.034718
v -0.286262 -0.161211 0.116575
v 0.396670 -0.399369 0.601319
v 0.201898 0.062204 1.034718
v -0.569553 -0.399369 0.601319
v 0.213663 0.084215 1.034718
v 0.220907 0.108097 1.034718
v -0.286262 0.339768 0.116575
v 0.396670 -0.307826 -0.302334
v 0.223354 0.132934 1.034718
v 0.220907 0.157771 1.034718
v -0.272581 -0.161211 0.109263
v -0.272581 0.339768 0.109263
v 0.213663 0.181653 1.034718
v -0.569553 -0.307826 -0.302334
v 0.201898 0.203663 1.034718
v 0.186065 0.222955 1.034718
v -0.569553 -0.307826 -0.330342
v 0.396670 -0.307826 -0.330342
v 0.166774 0.238788 1.034718
v 0.144764 0.250552 1.034718
v -0.257737 0.339768 0.104760
v 0.120881 0.257797 1.034718
v 0.396670 -0.307826 0.629327
v 0.096044 0.260243 1.034718
v -0.242299 0.372901 0.086628
v -0.569553 -0.307826 0.629327
v 0.071207 0.257797 1.034718
v -0.569553 -0.307826 0.601319
v 0.047325 0.250552 1.034718
v 0.025315 0.238788 1.034718
v 0.396670 -0.307826 0.601319
v 0.006023 0.222955 1.034718
v 0.396670 -0.307826 0.896845
v -0.009810 0.203663 1.034718
v -0.569553 -0.307826 0.896845
v -0.569553 -0.307826 -0.597860
v -0.021574 0.181653 1.034718
v -0.028819 0.157771 1.034718
v 0.396670 -0.307826 -0.597860
v -0.031265 0.132934 1.034718
v -0.569553 -0.399369 0.896845
v -0.148397 0.372901 0.201048
v -0.028819 0.108097 1.034718
v -0.021574 0.084215 1.034718
v 0.396670 -0.399369 0.896845
v -0.153846 0.372901 0.219008
v -0.009810 0.062204 1.034718
v 0.006023 0.042912 1.034718
v 0.396670 -0.399369 -0.597860
v 0.025315 0.027080 1.034718
v -0.569553 -0.399369 -0.597860
v 0.047325 0.015315 1.034718
v -0.162693 0.372901 0.235561
v 0.071207 0.008071 1.034718
v -0.268557 -0.399369 -0.597860
v -0.174600 0.372901 0.250069
v 0.096044 0.005624 1.034718
v -0.189108 0.372901 0.261976
v 0.096044 0.005624 0.583826
v 0.120881 0.008071 0.583826
v -0.268557 -0.307826 -0.597860
v 0.144764 0.015315 0.583826
v -0.205661 0.372901 0.270823
v 0.166774 0.027080 0.583826
v -0.268557 -0.399369 0.896845
v 0.186065 0.042912 0.583826
v -0.223621 0.372901 0.276272
v 0.201898 0.062204 0.583826
v -0.268557 -0.307826 0.896845
v 0.213663 0.084215 0.583826
v -0.268557 -0.399369 -0.330342
v 0.220907 0.108097 0.583826
v -0.242299 0.372901 0.278111
v 0.223354 0.132934 0.583826
v -0.268557 -0.399369 0.629327
v 0.220907 0.157771 0.583826
v -0.260978 0.372901 0.276272
v 0.213663 0.181653 0.583826
v -0.278938 0.372901 0.270823
v 0.201898 0.203663 0.583826
v -0.268557 -0.307826 -0.330342
v 0.186065 0.222955 0.583826
v -0.295491 0.372901 0.261976
v -0.268557 -0.307826 0.629327
v 0.166774 0.238788 0.583826
v 0.144764 0.250552 0.583826
v -0.268557 -0.399369 0.601319
v -0.309999 0.372901 0.250069
v 0.120881 0.257797 0.583826
v -0.268557 -0.399369 -0.302334
v 0.096044 0.260243 0.583826
v -0.321906 0.372901 0.235561
v 0.071207 0.257797 0.583826
v 0.047325 0.250552 0.583826
v -0.330753 0.372901 0.219008
v -0.268557 -0.307826 0.601319
v 0.025315 0.238788 0.583826
v -0.268557 -0.307826 -0.302334
v 0.006023 0.222955 0.583826
v -0.336201 0.372901 0.201048
v -0.009810 0.203663 0.583826
v -0.021574 0.181653 0.583826
v -0.338041 0.372901 0.182370
v -0.028819 0.157771 0.583826
v -0.777293 -0.399369 0.196777
v -0.031265 0.132934 0.583826
v -0.777293 -0.307826 0.196777
v -0.336201 0.372901 0.163691
v -0.028819 0.108097 0.583826
v 0.604410 -0.399369 0.196777
v -0.021574 0.084215 0.583826
v -0.009810 0.062204 0.583826
v -0.330753 0.372901 0.145731
v 0.604410 -0.307826 0.196777
v 0.006023 0.042912 0.583826
v -0.321906 0.372901 0.129178
v 0.025315 0.027080 0.583826
v -0.601820 -0.307826 0.196777
v 0.047325 0.015315 0.583826
v 0.071207 0.008071 0.583826
v -0.309999 0.372901 0.114670
v 0.428938 -0.307826 0.196777
v 0.096044 0.005624 0.485202
v 0.120881 0.008071 0.485202
v -0.295491 0.372901 0.102763
v 0.428938 -0.399369 0.196777
v 0.144764 0.015315 0.485202
v 0.166774 0.027080 0.485202
v -0.278938 0.372901 0.093916
v -0.601820 -0.399369 0.196777
v 0.186065 0.042912 0.485202
v -0.260978 0.372901 0.088468
v 0.201898 0.062204 0.485202
v 0.213663 0.084215 0.485202
v -0.569553 -0.399369 0.196777
v 0.220907 0.108097 0.485202
v 0.396670 -0.399369 0.196777
v 0.223354 0.132934 0.485202
v -0.242299 0.372901 0.070173
v 0.396670 -0.307826 0.196777
v 0.220907 0.157771 0.485202
v 0.213663 0.181653 0.485202
v -0.569553 -0.307826 0.196777
v -0.268557 -0.399369 0.196777
v 0.201898 0.203663 0.485202
v 0.396670 -0.399369 -0.522620
v 0.186065 0.222955 0.485202
v 0.166774 0.238788 0.485202
v -0.569553 -0.399369 -0.522620
v 0.144764 0.250552 0.485202
v -0.601820 -0.437549 -0.522620
v 0.120881 0.257797 0.485202
v 0.428938 -0.437549 -0.522620
v -0.132259 0.372901 0.204258
v 0.096044 0.260243 0.485202
v 0.428938 -0.346006 -0.522620
v 0.071207 0.257797 0.485202
v 0.047325 0.250552 0.485202
v -0.138644 0.372901 0.225305
v -0.601820 -0.346006 -0.522620
v 0.025315 0.238788 0.485202
v -0.149012 0.372901 0.244703
v 0.006023 0.222955 0.485202
v 0.604410 -0.346006 -0.522620
v -0.009810 0.203663 0.485202
v -0.162965 0.372901 0.261704
v -0.021574 0.181653 0.485202
v -0.028819 0.157771 0.485202
v -0.777293 -0.346006 -0.522620
v -0.031265 0.132934 0.485202
v -0.179967 0.372901 0.275657
v 0.604410 -0.437549 -0.522620
v -0.028819 0.108097 0.485202
v -0.199364 0.372901 0.286025
v -0.021574 0.084215 0.485202
v -0.777293 -0.437549 -0.522620
v -0.009810 0.062204 0.485202
v -0.220411 0.372901 0.292410
v 0.006023 0.042912 0.485202
v 0.416864 -0.084383 0.184703
v 0.025315 0.027080 0.485202
v -0.242299 0.372901 0.294566
v 0.047325 0.015315 0.485202
v 0.428938 -0.096457 0.196777
v 0.071207 0.008071 0.485202
v -0.264188 0.372901 0.292410
v 0.096044 -0.006040 1.034718
v 0.421485 -0.085302 0.189324
v 0.096044 -0.006040 0.930106
v 0.068932 -0.003369 0.930106
v -0.285235 0.372901 0.286025
v 0.425401 -0.087919 0.193240
v 0.042862 0.004539 0.930106
v 0.018835 0.017382 0.930106
v -0.304632 0.372901 0.275657
v -0.002225 0.034665 0.930106
v 0.428019 -0.091836 0.195858
v -0.321634 0.372901 0.261704
v -0.019508 0.055724 0.930106
v -0.335587 0.372901 0.244703
v -0.032350 0.079751 0.930106
v 0.428938 -0.096457 -0.302334
v -0.040259 0.105821 0.930106
v 0.416864 -0.084383 -0.290261
v -0.042929 0.132934 0.930106
v -0.040259 0.160046 0.930106
v -0.345955 0.372901 0.225305
v -0.032350 0.186117 0.930106
v 0.428019 -0.091836 -0.301415
v -0.352340 0.372901 0.204258
v -0.019508 0.210143 0.930106
v -0.002225 0.231203 0.930106
v 0.425401 -0.087919 -0.298798
v -0.354496 0.372901 0.182370
v 0.018835 0.248486 0.930106
v 0.421484 -0.085302 -0.294881
v 0.042862 0.261328 0.930106
v 0.068932 0.269237 0.930106
v -0.352340 0.372901 0.160481
v -0.256483 -0.084383 -0.585786
v 0.096044 0.271907 0.930106
v -0.345955 0.372901 0.139434
v 0.123157 0.269237 0.930106
v 0.149227 0.261328 0.930106
v -0.268557 -0.096457 -0.597860
v 0.173254 0.248486 0.930106
v -0.335587 0.372901 0.120037
v 0.194313 0.231203 0.930106
v -0.261104 -0.085302 -0.590407
v 0.211596 0.210143 0.930106
v -0.321634 0.372901 0.103035
v -0.304632 0.372901 0.089082
v 0.224439 0.186117 0.930106
v 0.232347 0.160046 0.930106
v -0.265021 -0.087919 -0.594324
v 0.235018 0.132934 0.930106
v -0.267638 -0.091836 -0.596941
v 0.232347 0.105821 0.930106
v -0.285235 0.372901 0.078714
v 0.224439 0.079751 0.930106
v 0.384597 -0.084383 -0.585786
v -0.264188 0.372901 0.072329
v 0.211596 0.055724 0.930106
v 0.194313 0.034665 0.930106
v 0.396670 -0.096457 -0.597860
v -0.242299 0.602357 0.070173
v 0.173254 0.017382 0.930106
v 0.149227 0.004539 0.930106
v 0.389217 -0.085302 -0.590407
v 0.393134 -0.087919 -0.594324
v 0.123157 -0.003369 0.930106
v 0.123157 -0.003369 1.034718
v 0.395751 -0.091836 -0.596941
v 0.149227 0.004539 1.034718
v -0.256483 -0.084383 -0.330342
v 0.173254 0.017382 1.034718
v -0.268557 -0.096457 -0.330342
v 0.194313 0.034665 1.034718
v -0.261104 -0.085302 -0.330342
v 0.211596 0.055724 1.034718
v -0.265021 -0.087919 -0.330342
v -0.267638 -0.091836 -0.330342
v 0.224439 0.079751 1.034718
v 0.232347 0.105821 1.034718
v -0.132259 0.602357 0.204258
v 0.235018 0.132934 1.034718
v 0.384597 -0.084383 -0.330342
v 0.232347 0.160046 1.034718
v -0.138644 0.602357 0.225305
v 0.224439 0.186117 1.034718
v 0.396670 -0.096457 -0.330342
v -0.149012 0.602357 0.244703
v 0.211596 0.210143 1.034718
v 0.389217 -0.085302 -0.330342
v 0.194313 0.231203 1.034718
v -0.162965 0.602357 0.261704
v 0.173254 0.248486 1.034718
v 0.149227 0.261328 1.034718
v 0.393134 -0.087919 -0.330342
v -0.179967 0.602357 0.275657
v 0.123157 0.269237 1.034718
v 0.395751 -0.091836 -0.330342
v 0.096044 0.271907 1.034718
v 0.068932 0.269237 1.034718
v 0.396670 -0.096457 0.196777
v 0.042862 0.261328 1.034718
v -0.199364 0.602357 0.286025
v 0.396670 -0.084383 0.184703
v 0.018835 0.248486 1.034718
v -0.220411 0.602357 0.292410
v -0.002225 0.231203 1.034718
v -0.242299 0.602357 0.294566
v -0.019508 0.210143 1.034718
v 0.396670 -0.091836 0.195858
v -0.032350 0.186117 1.034718
v -0.040259 0.160046 1.034718
v -0.264188 0.602357 0.292410
v 0.396670 -0.087919 0.193240
v -0.042929 0.132934 1.034718
v -0.285235 0.602357 0.286025
v -0.040259 0.105821 1.034718
v -0.032350 0.079751 1.034718
v 0.396670 -0.085302 0.189323
v -0.019508 0.055724 1.034718
v -0.304632 0.602357 0.275657
v 0.384597 -0.084383 -0.290261
v -0.002225 0.034665 1.034718
v -0.321634 0.602357 0.261704
v 0.018835 0.017382 1.034718
v 0.396670 -0.096457 -0.302334
v 0.042862 0.004539 1.034718
v 0.068932 -0.003369 1.034718
v 0.389217 -0.085302 -0.294881
v -0.335587 0.602357 0.244703
v 0.123157 -0.003369 0.485202
v -0.345955 0.602357 0.225305
v 0.123157 -0.003369 0.583826
v 0.393134 -0.087919 -0.298798
v 0.149227 0.004539 0.485202
v 0.395751 -0.091836 -0.301415
v 0.149227 0.004539 0.583826
v -0.352340 0.602357 0.204258
v 0.173254 0.017382 0.485202
v -0.354496 0.602357 0.182370
v 0.173254 0.017382 0.583826
v -0.268557 -0.096457 -0.302334
v 0.194313 0.034665 0.485202
v -0.352340 0.602357 0.160481
v 0.194313 0.034665 0.583826
v 0.211596 0.055724 0.485202
v -0.256483 -0.084383 -0.302334
v -0.345955 0.602357 0.139434
v 0.211596 0.055724 0.583826
v 0.224439 0.079751 0.485202
v -0.267638 -0.091836 -0.302334
v -0.265021 -0.087919 -0.302334
v 0.224439 0.079751 0.583826
v 0.232347 0.105821 0.485202
v -0.335587 0.602357 0.120037
v 0.232347 0.105821 0.583826
v -0.321634 0.602357 0.103035
v 0.235018 0.132934 0.485202
v -0.261104 -0.085302 -0.302334
v -0.304632 0.602357 0.089082
v 0.235018 0.132934 0.583826
v 0.232347 0.160046 0.485202
v -0.285235 0.602357 0.078714
v -0.264188 0.602357 0.072329
v 0.232347 0.160046 0.583826
v 0.396670 -0.307826 -0.522620
v 0.224439 0.186117 0.485202
v -0.569553 -0.307826 -0.522620
v 0.224439 0.186117 0.583826
v 0.211596 0.210143 0.485202
v -0.268557 -0.307826 -0.522620
v -0.268557 -0.399369 -0.522620
v 0.211596 0.210143 0.583826
v 0.396670 -0.096457 -0.522620
v 0.194313 0.231203 0.485202
v 0.194313 0.231203 0.583826
v 0.395751 -0.091836 -0.521960
v 0.173254 0.248486 0.485202
v 0.393134 -0.087919 -0.520079
v 0.389217 -0.085302 -0.517263
v 0.173254 0.248486 0.583826
v 0.384597 -0.084383 -0.513942
v 0.149227 0.261329 0.485202
v -0.268557 -0.096457 -0.522620
v 0.149227 0.261329 0.583826
v 0.123157 0.269237 0.485202
v -0.267638 -0.091836 -0.521960
v -0.265021 -0.087919 -0.520079
v 0.123157 0.269237 0.583826
v -0.261104 -0.085302 -0.517263
v 0.096044 0.271907 0.485202
v -0.256483 -0.084383 -0.513942
v 0.096044 0.271907 0.583826
v 0.068932 0.269237 0.485202
v -0.249670 -0.307826 -0.597860
v -0.249670 -0.399369 0.896845
v 0.068932 0.269237 0.583826
v 0.042862 0.261329 0.485202
v -0.249670 -0.399369 0.629327
v 0.042862 0.261329 0.583826
v -0.249670 -0.399369 -0.302334
v 0.018835 0.248486 0.485202
v -0.249670 -0.307826 0.601319
v 0.018835 0.248486 0.583826
v -0.249670 -0.399369 -0.597860
v -0.249670 -0.307826 0.896845
v -0.002225 0.231203 0.485202
v -0.249670 -0.399369 -0.330342
v -0.002225 0.231203 0.583826
v -0.019508 0.210143 0.485202
v -0.249670 -0.307826 0.629327
v -0.019508 0.210143 0.583826
v -0.249670 -0.399369 0.601319
v -0.249670 -0.399369 0.196777
v -0.032350 0.186117 0.485202
v -0.238282 -0.084383 -0.585786
v -0.032350 0.186117 0.583826
v -0.242640 -0.085302 -0.590407
v -0.040259 0.160046 0.485202
v -0.040259 0.160046 0.583826
v -0.246335 -0.087919 -0.594324
v -0.248803 -0.091836 -0.596941
v -0.042929 0.132934 0.485202
v -0.249670 -0.096457 -0.597860
v -0.042929 0.132934 0.583826
v -0.238282 -0.084383 -0.330342
v -0.040259 0.105821 0.485202
v -0.238282 -0.084383 -0.301991
v -0.040259 0.105821 0.583826
v -0.032350 0.079751 0.485202
v -0.238282 -0.084383 -0.513942
v -0.032350 0.079751 0.583826
v -0.249670 -0.399369 -0.522620
v 0.384597 0.602357 -0.513942
v -0.019508 0.055724 0.485202
v 0.384597 0.602357 -0.330342
v -0.019508 0.055724 0.583826
v -0.002225 0.034665 0.485202
v 0.384597 0.602357 -0.290261
v -0.002225 0.034665 0.583826
v 0.396670 0.602357 0.184703
v -0.238282 0.602357 -0.330342
v 0.018835 0.017382 0.485202
v 0.018835 0.017382 0.583826
v -0.238282 0.602357 -0.301991
v -0.237940 0.602357 0.184703
v 0.042862 0.004539 0.485202
v 0.042862 0.004539 0.583826
v -0.238282 0.602357 -0.513942
v -0.330301 -0.307826 0.453465
v 0.068932 -0.003369 0.485202
v -0.522012 -0.307826 0.453465
v 0.068932 -0.003369 0.583826
v -0.522012 -0.307826 0.261754
v 0.096044 -0.006040 0.583826
v -0.359549 -0.307826 0.006893
v 0.096044 -0.006040 0.485202
v -0.268557 -0.307826 -0.026088
v -0.283472 -0.307826 -0.024619
v -0.323063 -0.307826 -0.012610
v -0.451924 -0.307826 0.196777
v -0.453343 -0.307826 0.182370
v -0.449288 -0.307826 0.141197
v -0.391530 -0.307826 0.033139
v -0.437278 -0.307826 0.101607
v -0.417776 -0.307826 0.065120
v -0.249670 -0.307826 0.392687
v -0.268557 -0.307826 0.390827
v -0.449288 -0.307826 0.223542
v -0.437696 -0.307826 0.261754
v -0.283472 -0.307826 0.389358
v -0.323063 -0.307826 0.377349
v -0.330301 -0.307826 0.373480
v -0.268557 -0.096457 0.108042
v -0.267638 -0.091836 0.107764
v -0.265021 -0.087919 0.106970
v -0.261103 -0.085302 0.105781
v -0.257737 -0.084632 0.104760
v -0.256483 -0.084383 0.104637
v -0.237997 -0.084383 0.103663
v -0.242299 -0.084383 0.103240
v -0.032675 -0.307826 0.196777
v -0.164588 -0.161211 0.196777
v -0.164588 -0.096457 0.196777
v -0.268557 -0.161211 0.108042
v -0.268557 -0.222853 0.050365
v -0.164498 -0.091836 0.195858
v -0.164240 -0.087919 0.193240
v -0.163854 -0.085302 0.189324
v -0.163399 -0.084383 0.184703
v -0.066823 -0.307826 0.299619
v -0.035311 -0.307826 0.223542
v -0.047321 -0.307826 0.263133
v -0.201127 -0.307826 0.389358
v -0.242299 -0.307826 0.393413
v -0.093069 -0.307826 0.331600
v -0.125050 -0.307826 0.357846
v -0.161536 -0.307826 0.377349
v -0.238020 0.372901 0.070595
v -0.237997 0.339768 0.103663
v -0.238008 0.372901 0.087051
v -0.238020 0.602357 0.070595
v -0.163399 0.339768 0.184703
v -0.130333 0.372901 0.184703
v -0.130333 0.602357 0.184703
v -0.146787 0.372901 0.184703
v -0.433950 -0.303822 0.261754
v -0.361107 -0.232075 0.261754
v -0.330301 -0.205480 0.261754
v -0.330301 -0.211585 0.270371
v -0.330301 -0.249313 0.314073
v 0.025315 0.238788 0.184703
v 0.071207 0.257797 0.184703
v 0.047325 0.250552 0.184703
v 0.120881 0.257797 0.184703
v 0.166774 0.238788 0.184703
v 0.144764 0.250552 0.184703
v 0.096044 0.260243 0.184703
v 0.201898 0.203663 0.184703
v 0.223354 0.132934 0.184703
v 0.220907 0.108097 0.184703
v 0.220907 0.157771 0.184703
v 0.213663 0.084215 0.184703
v 0.213663 0.181653 0.184703
v 0.186065 0.222955 0.184703
v -0.031265 0.132934 0.184703
v -0.021574 0.084215 0.184703
v -0.028819 0.108097 0.184703
v -0.028819 0.157771 0.184703
v 0.006023 0.222955 0.184703
v -0.009810 0.062204 0.184703
v 0.005371 0.043707 0.184703
v -0.009810 0.203663 0.184703
v 0.006023 0.042912 0.184703
v -0.021574 0.181653 0.184703
v 0.025315 0.027080 0.184703
v 0.096044 0.005624 0.184703
v 0.071207 0.008071 0.184703
v 0.047325 0.015315 0.184703
v 0.144764 0.015315 0.184703
v 0.186065 0.042912 0.184703
v 0.201898 0.062204 0.184703
v 0.120881 0.008071 0.184703
v 0.166774 0.027080 0.184703
vn -1.0000 -0.0000 -0.0000
vn 1.0000 -0.0000 -0.0000
vn -0.0000 -0.0000 -1.0000
vn -0.0000 -1.0000 -0.0000
vn -0.0000 1.0000 -0.0000
vn -0.0000 -0.0000 1.0000
vn -0.0000 0.5915 0.8063
vn -0.0000 0.5915 -0.8063
vn -0.0000 -0.5915 -0.8063
vn -0.0000 -0.5915 0.8063
vn 0.9808 0.1951 -0.0000
vn -0.7638 -0.6455 -0.0000
vn 0.7638 -0.6455 -0.0000
vn 0.5734 -0.4846 -0.6606
vn -0.5734 -0.4846 -0.6606
vn -0.7638 0.6455 -0.0000
vn 0.7638 0.6455 -0.0000
vn 0.5734 0.4846 0.6606
vn -0.5734 0.4846 0.6606
vn -0.8315 0.5556 -0.0000
vn -0.1951 0.9808 -0.0000
vn 0.8315 0.5556 -0.0000
vn 0.5556 0.8315 -0.0000
vn 0.1951 0.9808 -0.0000
vn -0.9808 0.1951 -0.0000
vn -0.5556 0.8315 -0.0000
vn -0.0000 0.9808 -0.1951
vn -0.0000 0.8315 -0.5556
vn -0.0000 0.5556 -0.8315
vn -0.0000 0.1951 -0.9808
vn 0.5555 0.8315 -0.0000
vn -0.5555 0.8315 -0.0000
vn -0.0000 0.1951 0.9808
vn -0.0000 0.5556 0.8315
vn -0.0000 0.8315 0.5556
vn -0.0000 0.9808 0.1951
vn 0.9997 -0.0000 -0.0254
vn -1.0000 -0.0000 0.0007
vn 0.0980 -0.0000 -0.9952
vn 0.9952 -0.0000 0.0979
vn 0.9569 -0.0000 0.2903
vn 0.8819 -0.0000 0.4714
vn 0.7730 -0.0000 0.6344
vn 0.6344 -0.0000 0.7730
vn 0.4714 -0.0000 0.8819
vn 0.2903 -0.0000 0.9569
vn 0.0980 -0.0000 0.9952
vn -0.0980 -0.0000 0.9952
vn -0.2903 -0.0000 0.9569
vn -0.4714 -0.0000 0.8819
vn -0.6344 -0.0000 0.7730
vn -0.7730 -0.0000 0.6344
vn -0.8819 -0.0000 0.4714
vn -0.9569 -0.0000 0.2903
vn -0.9952 -0.0000 0.0980
vn -0.9952 -0.0000 -0.0980
vn -0.9569 -0.0000 -0.2903
vn -0.8819 -0.0000 -0.4714
vn -0.7730 -0.0000 -0.6344
vn -0.6344 -0.0000 -0.7730
vn -0.4714 -0.0000 -0.8819
vn -0.2903 -0.0000 -0.9569
vn -0.0980 -0.0000 -0.9952
vn 0.4218 -0.4465 0.7891
vn -0.8563 -0.4465 0.2597
vn 0.0877 -0.4465 -0.8905
vn -0.0877 -0.4465 -0.8905
vn 0.8563 -0.4465 0.2598
vn -0.4218 -0.4465 0.7892
vn -0.6917 -0.4465 -0.5676
vn 0.2597 -0.4465 0.8563
vn -0.8905 -0.4465 0.0877
vn 0.7891 -0.4465 0.4218
vn -0.5676 -0.4465 0.6917
vn -0.5677 -0.4465 -0.6917
vn 0.0877 -0.4465 0.8905
vn -0.8905 -0.4465 -0.0877
vn 0.6917 -0.4465 0.5677
vn -0.6917 -0.4465 0.5676
vn -0.4218 -0.4465 -0.7892
vn -0.0877 -0.4465 0.8905
vn -0.8563 -0.4465 -0.2598
vn 0.5677 -0.4465 0.6917
vn -0.7892 -0.4465 0.4218
vn -0.2597 -0.4465 -0.8563
vn 0.8905 -0.4465 0.0877
vn -0.2598 -0.4465 0.8563
vn -0.7891 -0.4465 -0.4218
vn 0.9952 -0.0000 0.0980
vn 0.6570 0.6671 0.3512
vn -0.4726 0.6671 0.5759
vn -0.4726 0.6671 -0.5759
vn 0.0730 0.6671 0.7414
vn -0.7414 0.6671 -0.0730
vn 0.5759 0.6671 0.4726
vn -0.5759 0.6671 0.4726
vn -0.3512 0.6671 -0.6570
vn -0.0730 0.6671 0.7414
vn -0.7129 0.6671 -0.2163
vn 0.4726 0.6671 0.5759
vn -0.6570 0.6671 0.3512
vn -0.2163 0.6671 -0.7129
vn 0.7414 0.6671 0.0731
vn -0.2163 0.6671 0.7129
vn -0.6570 0.6671 -0.3512
vn 0.3512 0.6671 0.6570
vn -0.7129 0.6671 0.2163
vn -0.0730 0.6671 -0.7414
vn 0.7129 0.6671 0.2163
vn -0.3512 0.6671 0.6570
vn -0.5759 0.6671 -0.4726
vn 0.2163 0.6671 0.7129
vn -0.7414 0.6671 0.0730
vn 0.0980 -0.9952 -0.0000
vn 0.2903 -0.9569 -0.0000
vn 0.4714 -0.8819 -0.0000
vn 0.6344 -0.7730 -0.0000
vn 0.7730 -0.6344 -0.0000
vn 0.8819 -0.4714 -0.0000
vn 0.9569 -0.2903 -0.0000
vn 0.9952 -0.0980 -0.0000
vn 0.9952 0.0980 -0.0000
vn 0.9569 0.2903 -0.0000
vn 0.8819 0.4714 -0.0000
vn 0.7730 0.6344 -0.0000
vn 0.6344 0.7730 -0.0000
vn 0.4714 0.8819 -0.0000
vn 0.2903 0.9569 -0.0000
vn 0.0980 0.9952 -0.0000
vn -0.0980 0.9952 -0.0000
vn -0.2903 0.9569 -0.0000
vn -0.4714 0.8819 -0.0000
vn -0.6344 0.7730 -0.0000
vn -0.7730 0.6344 -0.0000
vn -0.8819 0.4714 -0.0000
vn -0.9569 0.2903 -0.0000
vn -0.9952 0.0980 -0.0000
vn -0.9952 -0.0980 -0.0000
vn -0.9569 -0.2903 -0.0000
vn -0.8819 -0.4714 -0.0000
vn -0.7730 -0.6344 -0.0000
vn -0.6344 -0.7730 -0.0000
vn -0.4714 -0.8819 -0.0000
vn -0.2903 -0.9569 -0.0000
vn -0.0980 -0.9952 -0.0000
vn 0.5734 -0.4846 0.6606
vn -0.5734 -0.4846 0.6606
vn 0.5734 0.4846 -0.6606
vn -0.5734 0.4846 -0.6606
vn 0.9952 -0.0000 0.0981
vn 0.4218 -0.4465 0.7892
vn -0.8563 -0.4465 0.2598
vn 0.8563 -0.4465 0.2597
vn -0.4218 -0.4465 0.7891
vn -0.6917 -0.4465 -0.5677
vn 0.2598 -0.4465 0.8563
vn -0.5677 -0.4465 0.6917
vn -0.5676 -0.4465 -0.6917
vn 0.6917 -0.4465 0.5676
vn -0.6917 -0.4465 0.5677
vn -0.4218 -0.4465 -0.7891
vn -0.8563 -0.4465 -0.2597
vn -0.7891 -0.4465 0.4218
vn -0.2598 -0.4465 -0.8563
vn -0.2597 -0.4465 0.8563
vn -0.7892 -0.4465 -0.4218
vn 0.7414 0.6671 0.0730
vn -0.7130 0.6671 0.2161
vn -0.7731 -0.6343 -0.0000
vt 0.625000 0.000000
vt 0.375000 0.044744
vt 0.375000 0.000000
vt 0.625000 0.237416
vt 0.375000 0.250000
vt 0.375000 0.237416
vt 0.625000 0.512584
vt 0.375000 0.544744
vt 0.375000 0.512584
vt 0.625000 0.705256
vt 0.375000 0.750000
vt 0.375000 0.705256
vt 0.625000 0.117091
vt 0.375000 0.200571
vt 0.375000 0.117091
vt 0.625000 0.632909
vt 0.375000 0.700571
vt 0.375000 0.632909
vt 0.625000 0.205256
vt 0.625000 0.200571
vt 0.375000 0.049429
vt 0.625000 0.044744
vt 0.625000 0.049429
vt 0.375000 0.549429
vt 0.625000 0.544744
vt 0.625000 0.549429
vt 0.625000 0.700571
vt 0.625000 0.250000
vt 0.375000 0.281749
vt 0.343251 0.544744
vt 0.343251 0.512584
vt 0.156749 0.512584
vt 0.125000 0.544744
vt 0.125000 0.512584
vt 0.625000 0.468251
vt 0.375000 0.500000
vt 0.375000 0.468251
vt 0.656749 0.512584
vt 0.875000 0.512584
vt 0.843251 0.544744
vt 0.843251 0.512584
vt 0.625000 0.750000
vt 0.375000 0.781749
vt 0.156749 0.705256
vt 0.125000 0.750000
vt 0.125000 0.705256
vt 0.343251 0.750000
vt 0.343251 0.705256
vt 0.625000 0.968251
vt 0.375000 1.000000
vt 0.375000 0.968251
vt 0.875000 0.705256
vt 0.843251 0.750000
vt 0.843251 0.705256
vt 0.656749 0.705256
vt 0.656749 0.700571
vt 0.875000 0.700571
vt 0.843251 0.549429
vt 0.875000 0.544744
vt 0.875000 0.549429
vt 0.656749 0.544744
vt 0.656749 0.549429
vt 0.156749 0.700571
vt 0.343251 0.549429
vt 0.125000 0.549429
vt 0.156749 0.544744
vt 0.156749 0.549429
vt 0.156749 0.632909
vt 0.125000 0.700571
vt 0.125000 0.632909
vt 0.343251 0.700571
vt 0.343251 0.632909
vt 0.656749 0.632909
vt 0.875000 0.632909
vt 0.843251 0.700571
vt 0.843251 0.632909
vt 0.625000 0.345466
vt 0.375000 0.462412
vt 0.375000 0.345466
vt 0.625000 0.907951
vt 0.375000 0.962412
vt 0.375000 0.907951
vt 0.220466 0.500000
vt 0.337412 0.512584
vt 0.220466 0.512584
vt 0.220466 0.705256
vt 0.337412 0.750000
vt 0.220466 0.750000
vt 0.782951 0.500000
vt 0.837412 0.512584
vt 0.782951 0.512584
vt 0.782951 0.705256
vt 0.837412 0.750000
vt 0.782951 0.750000
vt 0.220466 0.549429
vt 0.337412 0.632909
vt 0.220466 0.632909
vt 0.782951 0.549429
vt 0.837412 0.632909
vt 0.805202 0.605539
vt 0.779534 0.705256
vt 0.662588 0.700571
vt 0.779534 0.700571
vt 0.662588 0.544744
vt 0.662588 0.512695
vt 0.217049 0.705256
vt 0.162588 0.700571
vt 0.217049 0.700571
vt 0.217049 0.549429
vt 0.162588 0.544744
vt 0.217049 0.544744
vt 0.162588 0.549429
vt 0.162588 0.632909
vt 0.337412 0.544744
vt 0.337412 0.549429
vt 0.162588 0.512584
vt 0.162588 0.705256
vt 0.337412 0.705256
vt 0.162588 0.750000
vt 0.662588 0.549429
vt 0.662588 0.632909
vt 0.837412 0.544744
vt 0.837412 0.549429
vt 0.662588 0.512584
vt 0.662588 0.705256
vt 0.837412 0.705256
vt 0.662588 0.750000
vt 0.375000 0.787588
vt 0.625000 0.781749
vt 0.625000 0.787588
vt 0.625000 0.962412
vt 0.625000 0.462412
vt 0.375000 0.287588
vt 0.625000 0.281749
vt 0.625000 0.287588
vt 0.220466 0.544744
vt 0.220466 0.700571
vt 0.782951 0.544744
vt 0.782951 0.700571
vt 0.837412 0.700571
vt 0.782944 0.512688
vt 0.782738 0.500394
vt 0.782951 0.500154
vt 0.217049 0.632909
vt 0.779534 0.750000
vt 0.217049 0.750000
vt 0.162588 0.500000
vt 0.217049 0.512584
vt 0.625000 0.904534
vt 0.375000 0.904534
vt 0.375000 0.342049
vt 0.779534 0.665676
vt 0.782951 0.665365
vt 0.781603 0.513480
vt 0.780767 0.502019
vt 0.781603 0.501247
vt 0.815652 0.637385
vt 0.813555 0.643777
vt 0.794123 0.675842
vt 0.337412 0.700571
vt 0.656749 0.500000
vt 0.662588 0.500000
vt 0.662741 0.512868
vt 0.663936 0.513480
vt 0.663936 0.544744
vt 0.664772 0.514036
vt 0.664772 0.544744
vt 0.782951 0.500000
vt 0.782798 0.512868
vt 0.777474 0.514036
vt 0.780767 0.544744
vt 0.777473 0.544744
vt 0.837412 0.500000
vt 0.843251 0.500000
vt 0.656833 0.549506
vt 0.656833 0.632832
vt 0.657069 0.632613
vt 0.657069 0.549725
vt 0.658098 0.631662
vt 0.658934 0.551448
vt 0.658934 0.630889
vt 0.664772 0.502019
vt 0.778262 0.501247
vt 0.777473 0.502019
vt 0.663936 0.501247
vt 0.779333 0.500394
vt 0.625000 0.461773
vt 0.625000 0.345623
vt 0.625000 0.346070
vt 0.625000 0.462246
vt 0.662588 0.500154
vt 0.662801 0.500394
vt 0.662671 0.549506
vt 0.663936 0.550675
vt 0.664772 0.551448
vt 0.658098 0.550675
vt 0.781603 0.549429
vt 0.780767 0.549429
vt 0.781603 0.544744
vt 0.780767 0.514036
vt 0.782883 0.618084
vt 0.782951 0.618067
vt 0.782687 0.618132
vt 0.781603 0.617689
vt 0.780994 0.617518
vt 0.662588 0.631662
vt 0.662588 0.630889
vt 0.625000 0.342049
vt 0.778201 0.617264
vt 0.777474 0.549486
vt 0.780767 0.617498
vt 0.740272 0.632909
vt 0.764139 0.632909
vt 0.782951 0.608420
vt 0.156749 0.500000
vt 0.337412 0.500000
vt 0.343251 0.500000
vt 0.875000 0.500000
vt 0.625000 0.500000
vt 0.125000 0.500000
vt 0.375000 0.205256
vt 0.625000 0.462412
vt 0.764193 0.632844
vt 0.764348 0.632658
vt 0.764007 0.631662
vt 0.763924 0.630889
vt 0.625000 0.342215
vt 0.625000 0.342689
vt 0.756986 0.659849
vt 0.763587 0.663111
vt 0.217049 0.500000
vt 0.777412 0.630889
vt 0.777426 0.611804
vt 0.777422 0.617335
vt 0.740017 0.630889
vt 0.739574 0.630889
vt 0.757942 0.630889
vt 0.694390 0.630889
vt 0.693947 0.630889
vt 0.375140 0.250000
vt 0.375140 0.000000
vt 0.396905 0.459828
vt 0.375140 0.750000
vt 0.391952 0.568226
vt 0.375140 1.000000
vt 1.000000 1.000000
vt 0.991290 0.576678
vt 1.000000 0.576678
vt 0.718750 1.000000
vt 0.722696 0.569240
vt 0.727994 0.573149
vt 0.687500 0.500000
vt 0.718750 0.500000
vt 0.687500 1.000000
vt 0.656250 0.500000
vt 0.656250 1.000000
vt 0.625000 1.000000
vt 0.593750 0.500000
vt 0.593750 1.000000
vt 0.562500 0.500000
vt 0.562500 1.000000
vt 0.531250 0.500000
vt 0.531250 1.000000
vt 0.500000 0.500000
vt 0.500000 1.000000
vt 0.468750 0.500000
vt 0.468750 1.000000
vt 0.437500 0.500000
vt 0.437500 1.000000
vt 0.406250 0.500000
vt 0.406250 1.000000
vt 0.343750 0.500000
vt 0.343750 1.000000
vt 0.312500 0.500000
vt 0.312500 1.000000
vt 0.281250 0.500000
vt 0.281250 1.000000
vt 0.250000 0.500000
vt 0.250000 1.000000
vt 0.218750 0.500000
vt 0.218750 1.000000
vt 0.187500 0.500000
vt 0.187500 1.000000
vt 0.156250 0.500000
vt 0.156250 1.000000
vt 0.125000 1.000000
vt 0.093750 0.500000
vt 0.093750 1.000000
vt 0.062500 0.500000
vt 0.031250 1.000000
vt 0.052094 0.569240
vt 0.054028 0.564628
vt 0.000000 0.576678
vt 0.028712 0.576678
vt 0.992821 1.000000
vt 0.991290 1.000000
vt 0.000000 1.000000
vt 0.062500 1.000000
vt 0.745276 1.000000
vt 0.746096 1.000000
vt 0.993891 1.000000
vt 0.746669 1.000000
vt 0.259326 0.245009
vt 0.028269 0.341844
vt 0.158156 0.028269
vt 0.993892 1.000000
vt 0.366827 0.500000
vt 0.343750 0.500000
vt 0.480145 0.500000
vt 0.593750 0.500000
vt 0.054028 0.500000
vt 0.031250 0.500000
vt 0.720836 0.500000
vt 0.468750 0.500000
vt 0.281250 0.500000
vt 0.311369 0.500000
vt 0.031250 0.500000
vt 0.019855 0.500000
vt 0.431180 0.500000
vt 0.261015 0.500000
vt 1.000000 0.821625
vt 0.968750 0.992654
vt 0.968750 0.821625
vt 0.937500 0.821625
vt 0.937500 0.992654
vt 0.906250 0.992654
vt 0.906250 0.821625
vt 0.875000 0.992655
vt 0.875000 0.821625
vt 0.843750 0.821625
vt 0.843750 0.992654
vt 0.812500 0.821625
vt 0.812500 0.992654
vt 0.781250 0.821625
vt 0.781250 0.992654
vt 0.750000 0.821625
vt 0.750000 0.992654
vt 0.718750 0.821625
vt 0.718750 0.992654
vt 0.687500 0.821625
vt 0.687500 0.992654
vt 0.656250 0.821625
vt 0.656250 0.992654
vt 0.625000 0.821625
vt 0.625000 0.992654
vt 0.593750 0.821625
vt 0.593750 0.992654
vt 0.562500 0.821625
vt 0.562500 0.992654
vt 0.531250 0.821625
vt 0.531250 0.992654
vt 0.500000 0.821625
vt 0.500000 0.992654
vt 0.468750 0.821625
vt 0.468750 0.992654
vt 0.437500 0.821625
vt 0.437500 0.992654
vt 0.406250 0.821625
vt 0.406250 0.992654
vt 0.375000 0.821625
vt 0.375000 0.992654
vt 0.343750 0.992654
vt 0.312500 0.992654
vt 0.343750 0.821625
vt 0.281250 0.821625
vt 0.281250 0.992654
vt 0.250000 0.821625
vt 0.250000 0.992654
vt 0.218750 0.821625
vt 0.218750 0.992654
vt 0.187500 0.821625
vt 0.187500 0.992654
vt 0.156250 0.821625
vt 0.156250 0.992654
vt 0.125000 0.821625
vt 0.126287 0.992654
vt 0.093750 0.992654
vt 0.093750 0.821625
vt 0.062500 0.821625
vt 0.062500 0.992654
vt 0.031250 0.992654
vt 0.031250 0.821625
vt 0.000000 0.992654
vt 0.000000 0.821625
vt 0.841844 0.471731
vt 0.528269 0.158156
vt 0.658156 0.028269
vt 0.218750 0.765493
vt 0.250000 0.765493
vt 0.375000 0.508868
vt 0.395753 0.508868
vt 0.187500 0.765493
vt 1.000000 0.568408
vt 0.968750 0.568408
vt 0.437500 0.508868
vt 0.406250 0.508868
vt 0.156250 0.765493
vt 0.937500 0.568408
vt 0.468750 0.508868
vt 0.125000 0.765493
vt 0.906250 0.568408
vt 0.500000 0.508868
vt 0.093750 0.765493
vt 0.875000 0.568408
vt 0.531250 0.508868
vt 0.062500 0.765493
vt 0.843750 0.568408
vt 0.562500 0.508868
vt 0.031250 0.765493
vt 0.812500 0.568408
vt 0.593750 0.508868
vt 0.000000 0.765493
vt 0.781250 0.568408
vt 0.625000 0.508868
vt 0.750000 0.568408
vt 0.656250 0.508868
vt 0.718750 0.568408
vt 0.687500 0.508868
vt 0.687500 0.568408
vt 0.718750 0.508868
vt 0.656250 0.568408
vt 0.750000 0.508868
vt 0.625000 0.568408
vt 1.000000 0.508868
vt 0.968750 0.500000
vt 1.000000 0.500000
vt 0.968750 0.508868
vt 0.937500 0.500000
vt 0.937500 0.508868
vt 0.906250 0.500000
vt 0.906250 0.508868
vt 0.875000 0.508868
vt 0.843750 0.500000
vt 0.843750 0.508868
vt 0.812500 0.500000
vt 0.812500 0.508868
vt 0.781250 0.500000
vt 0.781250 0.508868
vt 0.750000 0.500000
vt 0.343750 0.508868
vt 0.312500 0.508868
vt 0.281250 0.508868
vt 0.250000 0.508868
vt 0.218750 0.508868
vt 0.187500 0.508868
vt 0.156250 0.508868
vt 0.125000 0.508868
vt 0.093750 0.508868
vt 0.062500 0.508868
vt 0.031250 0.508868
vt 0.000000 0.500000
vt 0.000000 0.568408
vt 0.031250 0.568408
vt 0.062500 0.568408
vt 0.093750 0.568408
vt 0.125000 0.568408
vt 0.156250 0.568408
vt 0.187500 0.568408
vt 0.218750 0.568408
vt 0.250000 0.568408
vt 0.281250 0.765493
vt 0.281250 0.568408
vt 0.312500 0.765493
vt 0.312500 0.568408
vt 0.343750 0.765493
vt 0.343750 0.568408
vt 0.375000 0.765493
vt 0.375000 0.568408
vt 0.406250 0.765493
vt 0.406250 0.568408
vt 0.437500 0.765493
vt 0.437500 0.568408
vt 0.468750 0.765493
vt 0.468750 0.568408
vt 0.500000 0.765493
vt 0.500000 0.568408
vt 0.531250 0.765493
vt 0.531250 0.568408
vt 0.562500 0.765493
vt 0.562500 0.568408
vt 0.593750 0.765493
vt 0.593750 0.568408
vt 0.625000 0.765493
vt 0.656250 0.765493
vt 0.687500 0.765493
vt 0.718750 0.765493
vt 0.750000 0.765493
vt 0.781250 0.765493
vt 0.812500 0.765493
vt 0.843750 0.765493
vt 0.875000 0.765493
vt 0.906250 0.765493
vt 0.937500 0.765493
vt 0.968750 0.765493
vt 0.604247 0.568408
vt 0.895753 0.508868
vt 0.000000 0.508868
vt 0.312500 0.821625
vt 1.000000 0.765493
vt 0.395753 0.765493
vt 0.104247 0.821625
vt 0.141279 0.821625
vt 0.858721 0.765493
vt 0.895753 0.765493
vt 0.104247 0.568408
vt 0.604247 0.821625
vt 0.156749 0.750000
vt 0.875000 0.750000
vt 0.656749 0.750000
vt 0.785650 0.595879
vt 0.782951 0.595633
vt 0.816129 0.632909
vt 0.816386 0.630499
vt 0.815652 0.623613
vt 0.792813 0.597887
vt 0.799415 0.601149
vt 0.813479 0.616991
vt 0.809950 0.610888
vt 0.828810 0.643777
vt 0.792813 0.663111
vt 0.794123 0.662464
vt 0.828811 0.675842
vt 0.785650 0.665119
vt 0.764140 0.632909
vt 0.782951 0.618067
vt 0.778200 0.665798
vt 0.740749 0.637385
vt 0.742922 0.644007
vt 0.770751 0.665119
vt 0.746450 0.650110
vt 0.751199 0.655459
vt 0.777422 0.617335
vt 0.777424 0.614556
vt 0.760919 0.630889
vt 0.763925 0.630889
vt 0.733388 0.630889
vt 0.736135 0.630889
vt 0.738263 0.630889
vt 0.736135 0.630889
vt 0.733270 0.630889
vt 0.738263 0.630889
vt 0.739574 0.630889
vt 0.733270 0.630889
vt 0.757942 0.630889
vt 0.729779 0.630889
vt 0.725797 0.630889
vt 0.729779 0.630889
vt 0.725797 0.630889
vt 0.721476 0.630889
vt 0.721476 0.630889
vt 0.716982 0.630889
vt 0.716982 0.630889
vt 0.712488 0.630889
vt 0.712488 0.630889
vt 0.708167 0.630889
vt 0.704184 0.630889
vt 0.708167 0.630889
vt 0.704184 0.630889
vt 0.700694 0.630889
vt 0.697829 0.630889
vt 0.700694 0.630889
vt 0.697829 0.630889
vt 0.695700 0.630889
vt 0.695700 0.630889
vt 0.694389 0.630889
vt 0.376291 0.364836
vt 0.375140 0.359951
vt 0.404546 0.500000
vt 0.402792 0.511237
vt 0.375140 0.645695
vt 0.735923 0.575761
vt 0.745276 0.576678
vt 0.720836 0.564628
vt 0.054028 0.500000
vt 0.031250 0.576429
vt 0.038337 0.575761
vt 0.046584 0.573149
vt 0.203178 0.014612
vt 0.250000 0.010000
vt 0.296822 0.014612
vt 0.341844 0.028269
vt 0.383337 0.050447
vt 0.419706 0.080294
vt 0.449553 0.116663
vt 0.471731 0.158156
vt 0.485388 0.203178
vt 0.489508 0.245009
vt 0.259154 0.489098
vt 0.250000 0.490000
vt 0.203178 0.485388
vt 0.158156 0.471731
vt 0.116663 0.449553
vt 0.080294 0.419706
vt 0.050447 0.383337
vt 0.014612 0.296822
vt 0.010000 0.250000
vt 0.014612 0.203178
vt 0.028269 0.158156
vt 0.050447 0.116663
vt 0.080294 0.080294
vt 0.116663 0.050447
vt 0.375000 0.500000
vt 0.494286 0.500000
vt 0.468750 0.500000
vt 0.738985 0.500000
vt 0.437500 0.500000
vt 1.000000 0.992654
vt 0.125000 0.992655
vt 0.703178 0.485388
vt 0.750000 0.490000
vt 0.796822 0.485388
vt 0.883337 0.449553
vt 0.919706 0.419706
vt 0.949553 0.383337
vt 0.971731 0.341844
vt 0.985388 0.296822
vt 0.990000 0.250000
vt 0.616663 0.050447
vt 0.580294 0.080294
vt 0.550447 0.116663
vt 0.514612 0.203178
vt 0.510000 0.250000
vt 0.431163 0.508868
vt 0.465773 0.508868
vt 0.812500 0.568408
vt 0.682010 0.568408
vt 0.641279 0.568408
vt 0.568837 0.568408
vt 0.817989 0.508868
vt 0.534227 0.568408
vt 0.858721 0.508868
vt 0.931163 0.508868
vt 0.965773 0.508868
vt 0.682010 0.821625
vt 0.358721 0.508868
vt 0.317990 0.508868
vt 0.317990 0.765493
vt 0.358721 0.765493
vt 0.431163 0.765493
vt 0.034227 0.821625
vt 0.465773 0.765493
vt 0.068837 0.821625
vt 0.182010 0.821625
vt 0.817990 0.765493
vt 0.034227 0.568408
vt 0.068837 0.568408
vt 0.931163 0.765493
vt 0.534227 0.821625
vt 0.965773 0.765493
vt 0.141279 0.568408
vt 0.568837 0.821625
vt 0.182010 0.568408
vt 0.641279 0.821625
s 0
f 3/1/1 21/2/1 2/3/1
f 336/4/1 7/5/1 343/6/1
f 331/7/2 27/8/2 339/9/2
f 30/10/2 12/11/2 28/12/2
f 274/13/1 55/14/1 272/15/1
f 281/16/2 48/17/2 277/18/2
f 24/19/1 55/14/1 39/20/1
f 57/21/1 25/22/1 36/23/1
f 53/24/2 33/25/2 43/26/2
f 30/10/2 48/17/2 45/27/2
f 9/28/3 62/29/3 7/5/3
f 339/9/4 109/30/4 320/31/4
f 318/32/4 23/33/4 343/34/4
f 66/35/3 17/36/3 64/37/3
f 323/38/5 33/25/5 331/7/5
f 336/39/5 95/40/5 327/41/5
f 13/42/6 72/43/6 12/11/6
f 100/44/4 2/45/4 21/46/4
f 28/12/4 72/47/4 96/48/4
f 78/49/6 2/50/6 75/51/6
f 25/52/5 78/53/5 84/54/5
f 87/55/5 13/42/5 30/10/5
f 30/10/7 135/56/7 87/55/7
f 84/54/7 36/57/7 25/52/7
f 130/58/8 24/59/8 39/60/8
f 43/26/8 91/61/8 134/62/8
f 21/46/9 122/63/9 100/44/9
f 96/48/9 48/17/9 28/12/9
f 114/64/10 27/8/10 53/24/10
f 55/65/10 103/66/10 117/67/10
f 297/68/4 57/69/4 272/70/4
f 277/18/4 124/71/4 293/72/4
f 289/73/5 45/27/5 281/16/5
f 274/74/5 140/75/5 285/76/5
f 546/77/3 216/78/3 556/79/3
f 236/80/6 208/81/6 232/82/6
f 556/83/4 313/84/4 584/85/4
f 550/86/4 212/87/4 547/88/4
f 228/89/5 519/90/5 522/91/5
f 251/92/5 202/93/5 236/94/5
f 552/95/4 304/96/4 565/97/4
f 265/98/5 310/99/5 615/100/5
f 562/101/5 198/102/5 554/103/5
f 438/104/11 528/105/11 449/104/11
f 242/106/4 171/107/4 254/108/4
f 257/109/4 158/110/4 238/111/4
f 117/67/4 158/110/4 146/112/4
f 124/71/4 304/96/4 293/72/4
f 171/107/4 297/68/4 302/113/4
f 154/114/4 114/64/4 149/115/4
f 109/30/12 313/84/12 320/31/12
f 158/110/13 318/32/13 316/116/13
f 122/63/14 162/117/14 100/44/14
f 72/47/12 163/118/12 96/48/12
f 208/119/13 100/44/13 162/117/13
f 163/118/15 124/71/15 96/48/15
f 134/62/5 185/104/5 175/120/5
f 140/75/5 310/99/5 285/76/5
f 198/102/5 289/73/5 307/121/5
f 184/122/5 130/58/5 181/123/5
f 95/40/16 519/90/16 327/41/16
f 185/104/17 323/38/17 517/124/17
f 135/56/18 190/125/18 87/55/18
f 78/53/16 193/126/16 84/54/16
f 200/127/17 87/55/17 190/125/17
f 193/126/19 140/75/19 84/54/19
f 212/128/6 81/129/6 200/130/6
f 78/49/6 208/81/6 202/131/6
f 66/35/3 216/78/3 206/132/3
f 218/133/3 69/134/3 203/135/3
f 552/95/4 238/111/4 559/136/4
f 550/86/4 254/108/4 564/137/4
f 181/123/5 248/138/5 184/122/5
f 193/126/5 263/139/5 195/140/5
f 538/141/20 402/142/20 404/143/20
f 146/112/4 311/144/4 302/113/4
f 562/101/5 236/94/5 557/145/5
f 517/124/2 438/104/2 185/104/2
f 162/117/4 232/146/4 208/119/4
f 218/147/4 523/148/4 316/116/4
f 557/149/6 232/82/6 547/150/6
f 203/135/3 222/151/3 218/133/3
f 302/113/4 254/108/4 171/107/4
f 263/139/5 618/152/5 619/153/5
f 541/154/21 387/155/21 396/156/21
f 285/76/5 181/123/5 130/58/5
f 302/113/4 117/67/4 146/112/4
f 293/72/4 149/115/4 114/64/4
f 620/157/5 310/99/5 621/158/5
f 601/159/5 195/140/5 263/139/5
f 565/97/4 169/160/4 564/137/4
f 39/60/5 285/76/5 130/58/5
f 134/62/5 281/16/5 43/26/5
f 53/24/4 293/72/4 114/64/4
f 117/67/4 272/70/4 55/65/4
f 43/26/2 277/18/2 53/24/2
f 36/23/1 272/15/1 57/21/1
f 517/124/17 66/161/17 206/162/17
f 316/116/4 238/111/4 158/110/4
f 449/104/22 530/163/22 446/104/22
f 446/104/23 531/164/23 441/165/23
f 441/165/24 533/166/24 434/167/24
f 535/91/25 404/143/25 392/168/25
f 539/169/26 396/156/26 402/142/26
f 582/170/5 422/171/5 577/172/5
f 522/91/1 392/168/1 228/89/1
f 327/41/16 203/173/16 69/174/16
f 351/73/11 376/175/11 364/176/11
f 376/175/22 359/177/22 364/176/22
f 380/178/23 355/179/23 359/177/23
f 355/179/24 371/180/24 347/181/24
f 408/182/27 569/183/27 567/184/27
f 416/185/28 572/186/28 569/183/28
f 417/187/29 573/188/29 572/189/29
f 420/190/30 575/77/30 573/188/30
f 525/124/11 420/191/11 528/105/11
f 528/105/22 417/192/22 530/163/22
f 530/163/31 416/185/31 531/164/31
f 531/164/24 408/182/24 533/166/24
f 477/120/11 449/104/11 487/193/11
f 487/193/22 446/104/22 485/120/22
f 485/120/23 441/165/23 480/194/23
f 480/194/24 434/167/24 473/195/24
f 371/180/27 480/194/27 473/195/27
f 383/196/28 485/120/28 480/194/28
f 380/178/29 487/193/29 485/120/29
f 376/175/30 477/120/30 487/193/30
f 422/171/21 510/197/21 498/198/21
f 426/199/26 503/98/26 510/197/26
f 428/138/20 502/98/20 503/98/20
f 429/138/25 493/98/25 502/98/25
f 424/138/25 538/141/25 535/91/25
f 429/138/20 539/169/20 538/141/20
f 428/138/26 541/154/26 539/169/26
f 426/199/21 543/200/21 541/154/21
f 626/201/25 493/98/25 625/202/25
f 627/203/20 502/98/20 626/201/20
f 628/204/32 503/98/32 627/203/32
f 629/205/21 498/198/21 628/204/21
f 452/121/33 364/176/33 461/121/33
f 461/121/34 359/177/34 465/121/34
f 465/121/35 355/179/35 470/206/35
f 470/206/36 347/181/36 455/207/36
f 134/62/2 351/73/2 289/73/2
f 455/207/5 371/180/5 473/195/5
f 289/73/6 452/121/6 307/121/6
f 175/120/3 369/62/3 134/62/3
f 228/208/3 575/77/3 546/77/3
f 567/184/5 543/200/5 582/170/5
f 248/138/1 535/91/1 522/91/1
f 206/162/2 525/124/2 517/124/2
f 265/98/1 424/138/1 248/138/1
f 473/195/37 592/207/37 455/207/37
f 185/104/2 477/120/2 175/120/2
f 632/209/5 579/210/5 630/211/5
f 633/212/6 452/121/6 635/213/6
f 637/214/1 625/202/1 265/98/1
f 316/116/13 62/215/13 218/147/13
f 320/31/12 216/216/12 64/217/12
f 522/91/5 184/122/5 248/138/5
f 584/85/4 154/114/4 559/136/4
f 9/218/5 327/41/5 69/174/5
f 66/161/5 331/7/5 18/219/5
f 62/215/4 343/34/4 7/220/4
f 17/36/4 320/31/4 64/217/4
f 18/219/2 339/9/2 17/36/2
f 24/19/1 343/6/1 23/221/1
f 523/148/4 559/136/4 238/111/4
f 434/167/2 590/195/2 473/195/2
f 498/198/5 577/172/5 422/171/5
f 408/182/5 582/170/5 533/166/5
f 546/77/3 412/222/3 206/132/3
f 452/121/33 638/223/33 635/213/33
f 461/121/34 639/224/34 638/223/34
f 465/121/35 640/225/35 639/224/35
f 470/206/36 641/226/36 640/225/36
f 404/227/30 575/77/30 392/208/30
f 402/228/29 573/188/29 404/227/29
f 396/156/28 572/186/28 402/142/28
f 387/155/27 569/183/27 396/156/27
f 533/166/2 587/167/2 434/167/2
f 311/144/4 564/137/4 254/108/4
f 307/121/5 648/229/5 649/230/5
f 200/130/6 547/150/6 212/128/6
f 190/125/5 557/145/5 200/127/5
f 163/118/4 564/137/4 169/160/4
f 149/115/4 559/136/4 154/114/4
f 251/92/5 554/103/5 263/139/5
f 257/109/4 565/97/4 311/144/4
f 242/106/4 547/88/4 232/146/4
f 222/231/4 584/85/4 523/148/4
f 228/208/3 556/79/3 222/151/3
f 596/210/5 587/167/5 593/172/5
f 590/195/5 597/232/5 592/207/5
f 585/166/5 593/172/5 587/167/5
f 650/233/38 596/210/38 631/234/38
f 677/235/6 680/236/6 655/237/6
f 455/207/6 673/238/6 671/239/6
f 582/170/3 585/166/3 533/166/3
f 577/172/1 600/170/1 582/170/1
f 579/210/1 593/172/1 577/172/1
f 6/1/1 605/240/1 603/241/1
f 605/240/3 19/219/3 659/242/3
f 19/219/2 601/243/2 662/244/2
f 15/42/6 603/245/6 601/243/6
f 10/218/5 15/42/5 19/219/5
f 4/246/39 631/247/39 632/248/39
f 34/249/40 638/250/40 639/251/40
f 34/249/41 38/252/41 31/253/41
f 40/254/42 42/255/42 38/252/42
f 47/256/43 49/219/43 42/255/43
f 51/257/44 54/258/44 49/219/44
f 59/259/45 60/260/45 54/258/45
f 63/261/46 67/262/46 60/260/46
f 70/263/47 73/264/47 67/262/47
f 76/265/48 80/266/48 73/264/48
f 83/267/49 86/268/49 80/266/49
f 89/269/50 90/270/50 86/268/50
f 93/271/51 97/36/51 90/270/51
f 101/50/52 105/272/52 97/36/52
f 107/273/53 111/274/53 105/272/53
f 115/275/54 119/276/54 111/274/54
f 125/277/55 127/278/55 119/276/55
f 131/279/56 138/280/56 127/278/56
f 141/281/57 144/282/57 138/280/57
f 147/283/58 152/284/58 144/282/58
f 156/285/59 160/220/59 152/284/59
f 166/286/60 168/287/60 160/220/60
f 174/288/61 178/289/61 168/287/61
f 188/290/62 626/291/62 625/292/62
f 188/290/63 632/293/63 630/294/63
f 223/257/4 329/256/4 333/257/4
f 63/261/64 225/259/64 230/261/64
f 115/275/65 267/277/65 125/277/65
f 4/246/66 652/295/66 651/296/66
f 4/297/67 299/290/67 192/297/67
f 40/254/68 209/249/68 213/254/68
f 89/269/69 250/271/69 93/271/69
f 156/285/70 288/286/70 166/286/70
f 70/263/71 230/261/71 234/263/71
f 125/277/72 270/279/72 131/279/72
f 40/254/73 220/256/73 47/256/73
f 101/50/74 250/271/74 255/50/74
f 166/286/75 292/288/75 174/288/75
f 76/265/76 234/263/76 240/265/76
f 131/279/77 275/281/77 141/281/77
f 51/257/78 220/256/78 223/257/78
f 101/50/79 259/273/79 107/273/79
f 174/288/80 296/298/80 179/298/80
f 76/265/81 244/267/81 83/267/81
f 147/283/82 275/281/82 280/283/82
f 59/259/83 223/257/83 225/259/83
f 115/275/84 259/273/84 262/275/84
f 188/290/85 296/298/85 299/290/85
f 209/249/86 654/299/86 657/300/86
f 83/267/87 246/269/87 89/269/87
f 147/283/88 283/285/88 156/285/88
f 341/261/46 457/263/46 345/263/46
f 275/281/4 389/283/4 280/283/4
f 223/257/4 338/259/4 225/259/4
f 283/285/4 389/283/4 394/285/4
f 230/261/4 338/259/4 341/261/4
f 192/246/4 650/301/4 652/295/4
f 288/286/4 394/285/4 398/286/4
f 234/263/4 341/261/4 345/263/4
f 288/286/4 399/288/4 292/288/4
f 240/265/4 345/263/4 349/265/4
f 292/288/4 406/298/4 296/298/4
f 240/265/4 353/267/4 244/267/4
f 296/298/4 409/290/4 299/290/4
f 246/269/4 353/267/4 358/269/4
f 192/297/4 409/290/4 306/297/4
f 250/271/4 358/269/4 362/271/4
f 255/50/4 362/271/4 365/50/4
f 255/50/4 367/273/4 259/273/4
f 259/273/4 374/275/4 262/275/4
f 209/249/4 655/302/4 321/249/4
f 267/277/4 374/275/4 377/277/4
f 213/254/4 321/249/4 326/254/4
f 267/277/4 381/279/4 270/279/4
f 213/254/4 329/256/4 220/256/4
f 270/279/4 386/281/4 275/281/4
f 597/303/5 499/304/5 467/305/5
f 398/286/60 511/288/60 399/288/60
f 345/263/47 459/265/47 349/265/47
f 399/288/61 514/298/61 406/298/61
f 349/265/48 464/267/48 353/267/48
f 406/298/62 515/290/62 409/290/62
f 353/267/49 467/269/49 358/269/49
f 409/290/63 413/297/63 306/297/63
f 358/269/50 472/271/50 362/271/50
f 362/271/51 475/50/51 365/50/51
f 365/50/52 481/273/52 367/273/52
f 367/273/53 483/275/53 374/275/53
f 432/249/89 655/302/89 656/302/89
f 374/275/54 489/277/54 377/277/54
f 321/249/41 436/254/41 326/254/41
f 377/277/55 491/279/55 381/279/55
f 326/254/42 439/256/42 329/256/42
f 381/279/56 495/281/56 386/281/56
f 329/256/43 443/257/43 333/257/43
f 386/281/57 499/283/57 389/283/57
f 333/257/44 447/259/44 338/259/44
f 389/283/58 506/285/58 394/285/58
f 338/259/45 454/261/45 341/261/45
f 413/246/39 650/306/39 306/246/39
f 394/285/59 508/286/59 398/286/59
f 38/252/90 642/255/90 644/252/90
f 90/270/91 661/36/91 662/270/91
f 160/220/92 607/287/92 615/220/92
f 67/262/93 646/264/93 645/262/93
f 127/278/94 614/280/94 613/278/94
f 642/255/95 49/219/95 647/219/95
f 660/307/96 97/36/96 659/308/96
f 168/287/97 611/289/97 607/287/97
f 646/264/98 80/266/98 619/309/98
f 138/280/99 616/282/99 614/280/99
f 49/219/100 648/310/100 647/219/100
f 659/308/101 111/274/101 658/274/101
f 611/289/102 636/311/102 637/312/102
f 643/253/103 634/313/103 31/253/103
f 80/266/104 623/268/104 622/314/104
f 144/282/105 617/284/105 616/282/105
f 54/258/106 649/260/106 648/310/106
f 111/274/107 620/315/107 621/316/107
f 610/317/108 637/312/108 609/318/108
f 643/253/109 38/252/109 644/252/109
f 624/319/110 86/268/110 90/270/110
f 160/220/111 617/284/111 152/284/111
f 67/262/112 649/260/112 60/260/112
f 119/276/113 613/278/113 612/320/113
f 290/321/114 694/322/114 291/323/114
f 294/324/115 694/322/115 691/325/115
f 294/324/116 695/326/116 295/327/116
f 295/327/117 692/328/117 298/329/117
f 300/330/118 692/328/118 693/331/118
f 301/332/119 693/331/119 674/333/119
f 303/334/120 674/333/120 672/335/120
f 305/336/121 672/335/121 671/337/121
f 308/338/122 671/337/122 673/339/122
f 309/340/123 673/339/123 675/341/123
f 312/342/124 675/341/124 670/343/124
f 314/344/125 670/343/125 676/345/125
f 315/346/126 676/345/126 667/347/126
f 317/348/127 667/347/127 668/349/127
f 319/350/128 668/349/128 666/351/128
f 322/352/129 666/351/129 669/353/129
f 324/354/130 669/353/130 664/355/130
f 325/356/131 664/355/131 665/357/131
f 328/358/132 665/357/132 663/359/132
f 330/360/133 663/359/133 681/361/133
f 684/362/134 330/360/134 681/361/134
f 686/363/135 332/364/135 684/362/135
f 335/365/136 686/363/136 680/366/136
f 337/367/137 680/366/137 677/368/137
f 340/369/138 677/368/138 679/370/138
f 342/371/139 679/370/139 678/372/139
f 344/373/140 678/372/140 682/374/140
f 346/375/141 682/374/141 683/376/141
f 346/375/142 687/377/142 348/378/142
f 350/379/143 687/377/143 690/380/143
f 350/379/144 689/381/144 352/382/144
f 352/382/145 688/383/145 290/384/145
f 44/385/6 68/386/6 92/387/6
f 276/388/6 576/389/6 580/388/6
f 199/390/6 456/391/6 458/390/6
f 278/392/6 580/388/6 583/392/6
f 98/393/3 418/394/3 356/393/3
f 196/395/6 456/396/6 197/396/6
f 279/397/6 583/392/6 588/397/6
f 99/394/3 415/398/3 418/394/3
f 194/399/6 453/395/6 196/395/6
f 279/397/6 591/400/6 282/400/6
f 102/398/3 414/401/3 415/398/3
f 191/402/6 451/399/6 194/399/6
f 282/400/6 595/403/6 284/403/6
f 106/404/3 414/401/3 104/401/3
f 191/402/6 448/405/6 450/402/6
f 286/406/6 595/403/6 599/406/6
f 108/407/3 411/404/3 106/404/3
f 189/405/6 445/408/6 448/405/6
f 287/409/6 599/406/6 604/409/6
f 108/407/3 407/410/3 410/407/3
f 187/408/6 444/411/6 445/408/6
f 226/412/6 604/409/6 606/412/6
f 110/410/3 405/413/3 407/410/3
f 183/414/6 444/411/6 186/411/6
f 112/413/3 403/415/3 405/413/3
f 182/416/6 442/414/6 183/414/6
f 116/417/3 403/415/3 113/415/3
f 182/416/6 437/418/6 440/416/6
f 118/419/3 401/417/3 116/417/3
f 180/418/6 435/420/6 437/418/6
f 120/421/3 400/419/3 118/419/3
f 177/420/6 433/422/6 435/420/6
f 121/423/3 397/421/3 120/421/3
f 224/424/114 5/425/114 1/426/114
f 161/427/115 8/428/115 5/425/115
f 164/429/116 11/430/116 8/428/116
f 165/431/117 14/218/117 11/430/117
f 167/432/118 16/433/118 14/218/118
f 170/434/119 20/435/119 16/433/119
f 172/436/120 22/437/120 20/435/120
f 173/438/121 26/439/121 22/437/121
f 176/422/122 29/253/122 26/439/122
f 177/420/123 32/252/123 29/253/123
f 180/418/124 35/255/124 32/252/124
f 182/416/125 37/219/125 35/255/125
f 183/414/126 41/258/126 37/219/126
f 186/411/127 44/260/127 41/258/127
f 187/408/128 46/262/128 44/260/128
f 189/405/129 50/264/129 46/262/129
f 191/402/130 52/266/130 50/264/130
f 194/399/131 56/268/131 52/266/131
f 196/395/132 58/270/132 56/268/132
f 197/396/133 61/36/133 58/270/133
f 199/390/134 65/272/134 61/36/134
f 201/440/135 68/274/135 65/272/135
f 204/441/136 71/276/136 68/274/136
f 205/442/137 74/278/137 71/276/137
f 207/443/138 77/280/138 74/278/138
f 210/444/139 79/282/139 77/280/139
f 211/445/140 82/284/140 79/282/140
f 214/446/141 85/220/141 82/284/141
f 215/447/142 88/287/142 85/220/142
f 217/448/143 92/289/143 88/287/143
f 219/449/144 94/312/144 92/289/144
f 221/450/145 1/451/145 94/312/145
f 287/409/145 98/452/145 159/453/145
f 286/406/144 159/453/144 157/454/144
f 284/403/143 157/454/143 155/455/143
f 282/400/142 155/455/142 153/456/142
f 279/397/141 153/456/141 151/457/141
f 278/392/140 151/457/140 150/458/140
f 276/388/139 150/458/139 148/459/139
f 273/389/138 148/459/138 145/460/138
f 271/461/137 145/460/137 143/462/137
f 269/463/136 143/462/136 142/464/136
f 268/465/135 142/464/135 139/466/135
f 266/467/134 139/466/134 137/468/134
f 264/469/133 137/468/133 136/470/133
f 261/471/132 136/470/132 133/472/132
f 260/473/131 133/472/131 132/474/131
f 258/475/130 132/474/130 129/476/130
f 256/477/129 129/476/129 128/478/129
f 253/479/128 128/478/128 126/480/128
f 252/481/127 126/480/127 123/482/127
f 249/483/126 123/482/126 121/423/126
f 247/484/125 121/423/125 120/421/125
f 245/485/124 120/421/124 118/419/124
f 243/486/123 118/419/123 116/417/123
f 241/487/122 116/417/122 113/415/122
f 239/488/121 113/415/121 112/413/121
f 237/489/120 112/413/120 110/410/120
f 235/490/119 110/410/119 108/407/119
f 233/491/118 108/407/118 106/404/118
f 231/492/117 106/404/117 104/401/117
f 229/493/116 104/401/116 102/398/116
f 227/494/115 102/398/115 99/394/115
f 98/393/114 227/494/114 99/394/114
f 173/438/6 433/422/6 176/422/6
f 121/423/3 393/495/3 395/423/3
f 172/436/6 431/438/6 173/438/6
f 126/480/3 393/482/3 123/482/3
f 170/434/6 430/436/6 172/436/6
f 290/321/3 482/323/3 608/321/3
f 128/478/3 391/480/3 126/480/3
f 167/432/6 427/434/6 170/434/6
f 291/323/3 486/324/3 482/323/3
f 129/476/3 390/478/3 128/478/3
f 167/432/6 423/496/6 425/432/6
f 294/324/3 490/327/3 486/324/3
f 129/476/3 385/474/3 388/476/3
f 164/429/6 423/431/6 165/431/6
f 298/329/3 490/327/3 295/327/3
f 132/474/3 384/472/3 385/474/3
f 161/427/6 421/429/6 164/429/6
f 300/330/3 494/329/3 298/329/3
f 133/472/3 382/470/3 384/472/3
f 224/424/6 419/427/6 161/427/6
f 300/330/3 501/332/3 497/330/3
f 137/468/3 382/470/3 136/470/3
f 301/332/3 505/334/3 501/332/3
f 139/466/3 379/468/3 137/468/3
f 303/334/3 509/336/3 505/334/3
f 139/466/3 375/464/3 378/466/3
f 308/338/3 509/336/3 305/336/3
f 142/464/3 373/462/3 375/464/3
f 309/340/3 513/338/3 308/338/3
f 143/462/3 372/460/3 373/462/3
f 312/342/3 518/340/3 309/340/3
f 148/459/3 372/460/3 145/460/3
f 479/450/145 356/452/145 354/497/145
f 360/454/144 479/450/144 478/449/144
f 476/448/143 360/454/143 478/449/143
f 474/447/142 361/455/142 476/448/142
f 366/457/141 474/447/141 471/446/141
f 368/458/140 471/446/140 469/445/140
f 370/459/139 469/445/139 468/444/139
f 372/460/138 468/444/138 466/443/138
f 373/462/137 466/443/137 463/442/137
f 375/464/136 463/442/136 462/441/136
f 378/466/135 462/441/135 460/440/135
f 379/468/134 460/440/134 458/390/134
f 382/470/133 458/390/133 456/396/133
f 384/472/132 456/396/132 453/395/132
f 385/474/131 453/395/131 451/399/131
f 388/476/130 451/399/130 450/402/130
f 390/478/129 450/402/129 448/405/129
f 391/480/128 448/405/128 445/408/128
f 393/482/127 445/408/127 444/411/127
f 395/423/126 444/411/126 442/414/126
f 397/421/125 442/414/125 440/416/125
f 400/419/124 440/416/124 437/418/124
f 401/417/123 437/418/123 435/420/123
f 403/415/122 435/420/122 433/422/122
f 405/413/121 433/422/121 431/438/121
f 407/410/120 431/438/120 430/436/120
f 410/407/119 430/436/119 427/434/119
f 411/404/118 427/434/118 425/432/118
f 414/401/117 425/432/117 423/431/117
f 415/398/116 423/431/116 421/429/116
f 418/394/115 421/429/115 419/427/115
f 354/424/114 418/394/114 419/427/114
f 602/382/145 606/412/145 604/409/145
f 598/379/144 604/409/144 599/406/144
f 594/378/143 599/406/143 595/403/143
f 589/375/142 595/403/142 591/400/142
f 586/373/141 591/400/141 588/397/141
f 581/371/140 588/397/140 583/392/140
f 578/369/139 583/392/139 580/388/139
f 574/367/138 580/388/138 576/389/138
f 570/365/137 576/389/137 571/461/137
f 566/498/136 571/461/136 568/463/136
f 561/364/135 568/463/135 563/465/135
f 558/360/134 563/465/134 560/467/134
f 553/358/133 560/467/133 555/469/133
f 549/356/132 555/469/132 551/471/132
f 545/354/131 551/471/131 548/473/131
f 542/352/130 548/473/130 544/475/130
f 537/350/129 544/475/129 540/477/129
f 534/348/128 540/477/128 536/479/128
f 529/346/127 536/479/127 532/481/127
f 526/344/126 532/481/126 527/483/126
f 521/342/125 527/483/125 524/484/125
f 518/340/124 524/484/124 520/485/124
f 513/338/123 520/485/123 516/486/123
f 509/336/122 516/486/122 512/487/122
f 505/334/121 512/487/121 507/488/121
f 501/332/120 507/488/120 504/489/120
f 497/330/119 504/489/119 500/490/119
f 494/329/118 500/490/118 496/491/118
f 490/327/117 496/491/117 492/492/117
f 486/324/116 492/492/116 488/493/116
f 482/323/115 488/493/115 484/494/115
f 608/321/114 484/494/114 606/499/114
f 199/390/6 460/440/6 201/440/6
f 271/461/6 576/389/6 273/389/6
f 201/440/6 462/441/6 204/441/6
f 269/463/6 571/461/6 271/461/6
f 204/441/6 463/442/6 205/442/6
f 268/465/6 568/463/6 269/463/6
f 205/442/6 466/443/6 207/443/6
f 266/467/6 563/465/6 268/465/6
f 210/444/6 466/443/6 468/444/6
f 266/467/6 555/500/6 560/467/6
f 211/445/6 468/444/6 469/445/6
f 290/384/3 602/382/3 352/382/3
f 261/471/6 555/469/6 264/469/6
f 214/446/6 469/445/6 471/446/6
f 352/382/3 598/379/3 350/379/3
f 260/473/6 551/471/6 261/471/6
f 214/446/6 474/447/6 215/447/6
f 350/379/3 594/378/3 348/378/3
f 258/475/6 548/473/6 260/473/6
f 215/447/6 476/448/6 217/448/6
f 346/375/3 594/501/3 589/375/3
f 258/475/6 540/477/6 544/475/6
f 219/449/6 476/448/6 478/449/6
f 344/373/3 589/502/3 586/373/3
f 256/477/6 536/479/6 540/477/6
f 221/450/6 478/449/6 479/450/6
f 344/373/3 581/371/3 342/371/3
f 253/479/6 532/481/6 536/479/6
f 224/497/6 479/450/6 354/497/6
f 342/371/3 578/369/3 340/369/3
f 249/483/6 532/481/6 252/481/6
f 340/369/3 574/367/3 337/367/3
f 247/484/6 527/483/6 249/483/6
f 335/365/3 574/367/3 570/365/3
f 247/484/6 520/485/6 524/484/6
f 334/498/3 570/365/3 566/498/3
f 245/485/6 516/486/6 520/485/6
f 332/364/3 566/498/3 561/364/3
f 243/486/6 512/487/6 516/486/6
f 332/364/3 558/360/3 330/360/3
f 239/488/6 512/487/6 241/487/6
f 330/360/3 553/358/3 328/358/3
f 237/489/6 507/488/6 239/488/6
f 325/356/3 553/358/3 549/356/3
f 235/490/6 504/489/6 237/489/6
f 98/452/3 357/453/3 159/453/3
f 324/354/3 549/356/3 545/354/3
f 235/490/6 496/503/6 500/490/6
f 159/453/3 360/454/3 157/454/3
f 322/352/3 545/354/3 542/352/3
f 233/491/6 492/504/6 496/491/6
f 157/454/3 361/455/3 155/455/3
f 322/352/3 537/350/3 319/350/3
f 229/493/6 492/492/6 231/492/6
f 153/456/3 361/505/3 363/456/3
f 319/350/3 534/348/3 317/348/3
f 227/494/6 488/493/6 229/493/6
f 153/456/3 366/457/3 151/457/3
f 317/348/3 529/346/3 315/346/3
f 226/499/6 484/494/6 227/494/6
f 151/457/3 368/458/3 150/458/3
f 314/344/3 529/506/3 526/344/3
f 150/458/3 370/459/3 148/459/3
f 314/344/3 521/342/3 312/342/3
f 3/1/1 25/22/1 21/2/1
f 336/4/1 9/28/1 7/5/1
f 331/7/2 33/25/2 27/8/2
f 30/10/2 13/42/2 12/11/2
f 274/13/1 39/20/1 55/14/1
f 281/16/2 45/27/2 48/17/2
f 24/19/1 23/221/1 55/14/1
f 57/21/1 21/2/1 25/22/1
f 53/24/2 27/8/2 33/25/2
f 30/10/2 28/12/2 48/17/2
f 9/28/3 69/134/3 62/29/3
f 339/9/4 27/8/4 109/30/4
f 318/32/4 103/66/4 23/33/4
f 66/35/3 18/219/3 17/36/3
f 323/38/5 91/61/5 33/25/5
f 336/39/5 24/59/5 95/40/5
f 13/42/6 81/129/6 72/43/6
f 100/44/4 75/507/4 2/45/4
f 28/12/4 12/11/4 72/47/4
f 78/49/6 3/257/6 2/50/6
f 25/52/5 3/508/5 78/53/5
f 87/55/5 81/509/5 13/42/5
f 30/10/7 45/27/7 135/56/7
f 84/54/7 140/75/7 36/57/7
f 130/58/8 95/40/8 24/59/8
f 43/26/8 33/25/8 91/61/8
f 21/46/9 57/69/9 122/63/9
f 96/48/9 124/71/9 48/17/9
f 114/64/10 109/30/10 27/8/10
f 55/65/10 23/33/10 103/66/10
f 297/68/4 122/63/4 57/69/4
f 277/18/4 48/17/4 124/71/4
f 289/73/5 135/56/5 45/27/5
f 274/74/5 36/57/5 140/75/5
f 546/77/3 206/132/3 216/78/3
f 236/80/6 202/131/6 208/81/6
f 556/83/4 216/216/4 313/84/4
f 550/86/4 163/118/4 212/87/4
f 228/89/5 203/173/5 519/90/5
f 251/92/5 193/126/5 202/93/5
f 552/95/4 149/115/4 304/96/4
f 610/510/5 609/511/5 265/98/5
f 265/98/5 181/123/5 310/99/5
f 310/99/5 612/512/5 613/513/5
f 310/99/5 613/513/5 614/514/5
f 611/515/5 610/510/5 265/98/5
f 607/516/5 611/515/5 265/98/5
f 310/99/5 614/514/5 616/517/5
f 310/99/5 616/517/5 617/518/5
f 615/100/5 607/516/5 265/98/5
f 310/99/5 617/518/5 615/100/5
f 562/101/5 190/125/5 198/102/5
f 438/104/11 525/124/11 528/105/11
f 242/106/4 162/117/4 171/107/4
f 257/109/4 146/112/4 158/110/4
f 117/67/146 103/66/146 158/110/146
f 124/71/4 169/160/4 304/96/4
f 171/107/4 122/63/4 297/68/4
f 154/114/147 109/30/147 114/64/147
f 109/30/12 154/114/12 313/84/12
f 158/110/13 103/66/13 318/32/13
f 122/63/4 171/107/4 162/117/4
f 72/47/12 212/87/12 163/118/12
f 208/119/13 75/507/13 100/44/13
f 163/118/4 169/160/4 124/71/4
f 134/62/148 91/61/148 185/104/148
f 140/75/5 195/140/5 310/99/5
f 198/102/5 135/56/5 289/73/5
f 184/122/149 95/40/149 130/58/149
f 95/40/16 184/122/16 519/90/16
f 185/104/17 91/61/17 323/38/17
f 135/56/5 198/102/5 190/125/5
f 78/53/16 202/93/16 193/126/16
f 200/127/17 81/509/17 87/55/17
f 193/126/5 195/140/5 140/75/5
f 212/128/6 72/43/6 81/129/6
f 78/49/6 75/51/6 208/81/6
f 66/35/3 64/37/3 216/78/3
f 218/133/3 62/29/3 69/134/3
f 552/95/4 257/109/4 238/111/4
f 550/86/4 242/106/4 254/108/4
f 181/123/5 265/98/5 248/138/5
f 193/126/5 251/92/5 263/139/5
f 538/141/20 539/169/20 402/142/20
f 146/112/4 257/109/4 311/144/4
f 562/101/5 251/92/5 236/94/5
f 517/124/2 525/124/2 438/104/2
f 162/117/4 242/106/4 232/146/4
f 218/147/4 222/231/4 523/148/4
f 557/149/6 236/80/6 232/82/6
f 203/135/3 228/208/3 222/151/3
f 302/113/4 311/144/4 254/108/4
f 263/139/5 554/103/5 618/152/5
f 541/154/21 543/200/21 387/155/21
f 285/76/5 310/99/5 181/123/5
f 302/113/4 297/68/4 117/67/4
f 293/72/4 304/96/4 149/115/4
f 620/157/5 612/512/5 310/99/5
f 310/99/5 605/519/5 621/158/5
f 623/520/5 624/521/5 601/159/5
f 603/522/5 605/519/5 310/99/5
f 622/523/5 623/520/5 601/159/5
f 603/522/5 310/99/5 195/140/5
f 619/153/5 622/523/5 601/159/5
f 601/159/5 603/522/5 195/140/5
f 263/139/5 619/153/5 601/159/5
f 565/97/4 304/96/4 169/160/4
f 39/60/5 274/74/5 285/76/5
f 134/62/5 289/73/5 281/16/5
f 53/24/4 277/18/4 293/72/4
f 117/67/4 297/68/4 272/70/4
f 43/26/2 281/16/2 277/18/2
f 36/23/1 274/13/1 272/15/1
f 517/124/17 323/38/17 66/161/17
f 316/116/4 523/148/4 238/111/4
f 449/104/22 528/105/22 530/163/22
f 446/104/31 530/163/31 531/164/31
f 441/165/24 531/164/24 533/166/24
f 535/91/25 538/141/25 404/143/25
f 539/169/26 541/154/26 396/156/26
f 582/170/5 543/200/5 422/171/5
f 522/91/1 535/91/1 392/168/1
f 327/41/16 519/90/16 203/173/16
f 351/73/11 369/62/11 376/175/11
f 376/175/22 380/178/22 359/177/22
f 380/178/31 383/196/31 355/179/31
f 355/179/24 383/196/24 371/180/24
f 408/182/27 416/185/27 569/183/27
f 416/185/28 417/192/28 572/186/28
f 417/187/29 420/190/29 573/188/29
f 420/190/30 412/222/30 575/77/30
f 525/124/11 412/162/11 420/191/11
f 528/105/22 420/191/22 417/192/22
f 530/163/31 417/192/31 416/185/31
f 531/164/24 416/185/24 408/182/24
f 477/120/11 438/104/11 449/104/11
f 487/193/22 449/104/22 446/104/22
f 485/120/23 446/104/23 441/165/23
f 480/194/24 441/165/24 434/167/24
f 371/180/27 383/196/27 480/194/27
f 383/196/28 380/178/28 485/120/28
f 380/178/29 376/175/29 487/193/29
f 376/175/30 369/62/30 477/120/30
f 422/171/21 426/199/21 510/197/21
f 426/199/26 428/138/26 503/98/26
f 428/138/20 429/138/20 502/98/20
f 429/138/25 424/138/25 493/98/25
f 424/138/25 429/138/25 538/141/25
f 429/138/20 428/138/20 539/169/20
f 428/138/26 426/199/26 541/154/26
f 426/199/21 422/171/21 543/200/21
f 626/201/25 502/98/25 493/98/25
f 627/203/20 503/98/20 502/98/20
f 628/204/26 510/197/26 503/98/26
f 629/205/21 630/211/21 498/198/21
f 498/198/21 510/197/21 628/204/21
f 452/121/33 351/73/33 364/176/33
f 461/121/34 364/176/34 359/177/34
f 465/121/35 359/177/35 355/179/35
f 470/206/36 355/179/36 347/181/36
f 134/62/2 369/62/2 351/73/2
f 455/207/5 347/181/5 371/180/5
f 289/73/6 351/73/6 452/121/6
f 175/120/3 477/120/3 369/62/3
f 228/208/3 392/208/3 575/77/3
f 567/184/5 387/155/5 543/200/5
f 248/138/1 424/138/1 535/91/1
f 206/162/2 412/162/2 525/124/2
f 265/98/1 493/98/1 424/138/1
f 473/195/37 590/195/37 592/207/37
f 185/104/2 438/104/2 477/120/2
f 632/209/5 631/234/5 579/210/5
f 579/210/5 498/198/5 630/211/5
f 635/213/6 634/524/6 633/212/6
f 633/212/6 307/121/6 452/121/6
f 637/214/1 636/525/1 625/202/1
f 625/202/1 493/98/1 265/98/1
f 265/98/1 609/511/1 637/214/1
f 316/116/13 318/32/13 62/215/13
f 320/31/12 313/84/12 216/216/12
f 522/91/5 519/90/5 184/122/5
f 584/85/4 313/84/4 154/114/4
f 9/218/5 336/39/5 327/41/5
f 66/161/5 323/38/5 331/7/5
f 62/215/4 318/32/4 343/34/4
f 17/36/4 339/9/4 320/31/4
f 18/219/2 331/7/2 339/9/2
f 24/19/1 336/4/1 343/6/1
f 523/148/4 584/85/4 559/136/4
f 434/167/2 587/167/2 590/195/2
f 498/198/5 579/210/5 577/172/5
f 408/182/5 567/184/5 582/170/5
f 546/77/3 575/77/3 412/222/3
f 452/121/33 461/121/33 638/223/33
f 461/121/34 465/121/34 639/224/34
f 465/121/35 470/206/35 640/225/35
f 470/206/36 455/207/36 641/226/36
f 404/227/30 573/188/30 575/77/30
f 402/228/29 572/189/29 573/188/29
f 396/156/28 569/183/28 572/186/28
f 387/155/27 567/184/27 569/183/27
f 533/166/2 585/166/2 587/167/2
f 311/144/4 565/97/4 564/137/4
f 646/526/5 618/152/5 554/103/5
f 554/103/5 198/102/5 307/121/5
f 307/121/5 633/212/5 643/527/5
f 307/121/5 643/527/5 644/528/5
f 645/529/5 646/526/5 554/103/5
f 649/230/5 645/529/5 554/103/5
f 307/121/5 644/528/5 642/530/5
f 307/121/5 642/530/5 647/531/5
f 649/230/5 554/103/5 307/121/5
f 307/121/5 647/531/5 648/229/5
f 200/130/6 557/149/6 547/150/6
f 190/125/5 562/101/5 557/145/5
f 163/118/4 550/86/4 564/137/4
f 149/115/4 552/95/4 559/136/4
f 251/92/5 562/101/5 554/103/5
f 257/109/4 552/95/4 565/97/4
f 242/106/4 550/86/4 547/88/4
f 222/231/4 556/83/4 584/85/4
f 228/208/3 546/77/3 556/79/3
f 596/210/5 590/195/5 587/167/5
f 590/195/5 596/210/5 597/232/5
f 585/166/5 600/170/5 593/172/5
f 651/532/38 652/533/38 650/233/38
f 650/233/38 653/233/38 596/210/38
f 596/210/38 579/210/38 631/234/38
f 631/234/38 651/532/38 650/233/38
f 655/237/6 657/534/6 654/535/6
f 641/226/6 683/536/6 682/537/6
f 641/226/6 682/537/6 678/538/6
f 655/237/6 654/535/6 641/226/6
f 684/539/6 681/540/6 655/237/6
f 686/541/6 684/539/6 655/237/6
f 655/237/6 641/226/6 678/538/6
f 655/237/6 678/538/6 679/542/6
f 680/236/6 686/541/6 655/237/6
f 655/237/6 679/542/6 677/235/6
f 685/543/6 683/536/6 641/226/6
f 592/207/6 656/544/6 655/237/6
f 655/237/6 681/540/6 663/545/6
f 655/237/6 663/545/6 665/546/6
f 687/547/6 685/543/6 641/226/6
f 690/548/6 687/547/6 641/226/6
f 592/207/6 655/237/6 665/546/6
f 592/207/6 665/546/6 664/549/6
f 689/550/6 690/548/6 641/226/6
f 688/551/6 689/550/6 641/226/6
f 592/207/6 664/549/6 669/552/6
f 592/207/6 669/552/6 666/553/6
f 688/551/6 641/226/6 455/207/6
f 694/554/6 688/551/6 455/207/6
f 592/207/6 666/553/6 668/555/6
f 592/207/6 668/555/6 667/556/6
f 691/557/6 694/554/6 455/207/6
f 695/558/6 691/557/6 455/207/6
f 592/207/6 667/556/6 676/559/6
f 592/207/6 676/559/6 670/560/6
f 692/561/6 695/558/6 455/207/6
f 693/562/6 692/561/6 455/207/6
f 455/207/6 592/207/6 670/560/6
f 455/207/6 670/560/6 675/563/6
f 674/564/6 693/562/6 455/207/6
f 672/565/6 674/564/6 455/207/6
f 455/207/6 675/563/6 673/238/6
f 671/239/6 672/565/6 455/207/6
f 582/170/3 600/170/3 585/166/3
f 577/172/1 593/172/1 600/170/1
f 579/210/1 596/210/1 593/172/1
f 6/1/1 10/28/1 605/240/1
f 658/566/3 621/567/3 605/240/3
f 605/240/3 10/28/3 19/219/3
f 19/219/3 660/568/3 659/242/3
f 659/242/3 658/566/3 605/240/3
f 661/569/2 660/568/2 19/219/2
f 19/219/2 15/42/2 601/243/2
f 601/243/2 624/570/2 662/244/2
f 662/244/2 661/569/2 19/219/2
f 15/42/6 6/257/6 603/245/6
f 10/218/5 6/508/5 15/42/5
f 4/246/39 651/296/39 631/247/39
f 640/571/150 641/572/150 654/299/150
f 34/249/150 31/253/150 634/313/150
f 34/249/89 634/313/89 635/573/89
f 640/571/89 654/299/89 34/249/89
f 639/251/89 640/571/89 34/249/89
f 34/249/150 635/573/150 638/250/150
f 34/249/41 40/254/41 38/252/41
f 40/254/42 47/256/42 42/255/42
f 47/256/43 51/257/43 49/219/43
f 51/257/44 59/259/44 54/258/44
f 59/259/45 63/261/45 60/260/45
f 63/261/46 70/263/46 67/262/46
f 70/263/47 76/265/47 73/264/47
f 76/265/48 83/267/48 80/266/48
f 83/267/49 89/269/49 86/268/49
f 89/269/50 93/271/50 90/270/50
f 93/271/51 101/50/51 97/36/51
f 101/50/52 107/273/52 105/272/52
f 107/273/53 115/275/53 111/274/53
f 115/275/54 125/277/54 119/276/54
f 125/277/55 131/279/55 127/278/55
f 131/279/56 141/281/56 138/280/56
f 141/281/57 147/283/57 144/282/57
f 147/283/58 156/285/58 152/284/58
f 156/285/59 166/286/59 160/220/59
f 166/286/60 174/288/60 168/287/60
f 174/288/61 179/298/61 178/289/61
f 625/292/62 636/574/62 178/289/62
f 178/289/62 179/298/62 188/290/62
f 188/290/62 629/575/62 628/576/62
f 188/290/62 628/576/62 627/577/62
f 625/292/62 178/289/62 188/290/62
f 188/290/62 627/577/62 626/291/62
f 630/294/63 629/575/63 188/290/63
f 188/290/63 4/297/63 632/293/63
f 223/257/4 220/256/4 329/256/4
f 63/261/151 59/259/151 225/259/151
f 115/275/152 262/275/152 267/277/152
f 4/246/66 192/246/66 652/295/66
f 4/297/67 188/290/67 299/290/67
f 40/254/153 34/249/153 209/249/153
f 89/269/154 246/269/154 250/271/154
f 156/285/155 283/285/155 288/286/155
f 70/263/156 63/261/156 230/261/156
f 125/277/72 267/277/72 270/279/72
f 40/254/73 213/254/73 220/256/73
f 101/50/157 93/271/157 250/271/157
f 166/286/158 288/286/158 292/288/158
f 76/265/76 70/263/76 234/263/76
f 131/279/77 270/279/77 275/281/77
f 51/257/159 47/256/159 220/256/159
f 101/50/160 255/50/160 259/273/160
f 174/288/161 292/288/161 296/298/161
f 76/265/81 240/265/81 244/267/81
f 147/283/162 141/281/162 275/281/162
f 59/259/83 51/257/83 223/257/83
f 115/275/163 107/273/163 259/273/163
f 188/290/164 179/298/164 296/298/164
f 209/249/86 34/249/86 654/299/86
f 83/267/165 244/267/165 246/269/165
f 147/283/166 280/283/166 283/285/166
f 341/261/46 454/261/46 457/263/46
f 275/281/4 386/281/4 389/283/4
f 223/257/4 333/257/4 338/259/4
f 283/285/4 280/283/4 389/283/4
f 230/261/4 225/259/4 338/259/4
f 192/246/4 306/246/4 650/301/4
f 288/286/4 283/285/4 394/285/4
f 234/263/4 230/261/4 341/261/4
f 288/286/4 398/286/4 399/288/4
f 240/265/4 234/263/4 345/263/4
f 292/288/4 399/288/4 406/298/4
f 240/265/4 349/265/4 353/267/4
f 296/298/4 406/298/4 409/290/4
f 246/269/4 244/267/4 353/267/4
f 192/297/4 299/290/4 409/290/4
f 250/271/4 246/269/4 358/269/4
f 255/50/4 250/271/4 362/271/4
f 255/50/4 365/50/4 367/273/4
f 259/273/4 367/273/4 374/275/4
f 209/249/4 657/300/4 655/302/4
f 267/277/4 262/275/4 374/275/4
f 213/254/4 209/249/4 321/249/4
f 267/277/4 377/277/4 381/279/4
f 213/254/4 326/254/4 329/256/4
f 270/279/4 381/279/4 386/281/4
f 464/578/5 459/579/5 457/580/5
f 457/580/5 454/581/5 447/582/5
f 447/582/5 443/583/5 439/584/5
f 439/584/5 436/585/5 432/586/5
f 432/586/5 656/587/5 597/303/5
f 597/303/5 653/588/5 413/589/5
f 413/589/5 515/590/5 514/591/5
f 514/591/5 511/592/5 508/593/5
f 508/593/5 506/594/5 499/304/5
f 499/304/5 495/595/5 491/596/5
f 491/596/5 489/597/5 483/598/5
f 483/598/5 481/599/5 475/600/5
f 475/600/5 472/601/5 467/305/5
f 467/305/5 464/578/5 457/580/5
f 457/580/5 447/582/5 439/584/5
f 439/584/5 432/586/5 597/303/5
f 597/303/5 413/589/5 514/591/5
f 514/591/5 508/593/5 499/304/5
f 499/304/5 491/596/5 483/598/5
f 483/598/5 475/600/5 467/305/5
f 467/305/5 457/580/5 439/584/5
f 597/303/5 514/591/5 499/304/5
f 467/305/5 439/584/5 597/303/5
f 499/304/5 483/598/5 467/305/5
f 398/286/60 508/286/60 511/288/60
f 345/263/47 457/263/47 459/265/47
f 399/288/61 511/288/61 514/298/61
f 349/265/48 459/265/48 464/267/48
f 406/298/62 514/298/62 515/290/62
f 353/267/49 464/267/49 467/269/49
f 409/290/63 515/290/63 413/297/63
f 358/269/50 467/269/50 472/271/50
f 362/271/51 472/271/51 475/50/51
f 365/50/52 475/50/52 481/273/52
f 367/273/53 481/273/53 483/275/53
f 432/249/89 321/249/89 655/302/89
f 374/275/54 483/275/54 489/277/54
f 321/249/41 432/249/41 436/254/41
f 377/277/55 489/277/55 491/279/55
f 326/254/42 436/254/42 439/256/42
f 381/279/56 491/279/56 495/281/56
f 329/256/43 439/256/43 443/257/43
f 386/281/57 495/281/57 499/283/57
f 333/257/44 443/257/44 447/259/44
f 389/283/58 499/283/58 506/285/58
f 338/259/45 447/259/45 454/261/45
f 413/246/39 653/306/39 650/306/39
f 394/285/59 506/285/59 508/286/59
f 38/252/90 42/255/90 642/255/90
f 90/270/91 97/36/91 661/36/91
f 160/220/92 168/287/92 607/287/92
f 67/262/93 73/264/93 646/264/93
f 127/278/94 138/280/94 614/280/94
f 642/255/95 42/255/95 49/219/95
f 660/307/96 661/602/96 97/36/96
f 97/36/96 105/272/96 659/308/96
f 168/287/97 178/289/97 611/289/97
f 619/309/5 618/603/5 646/264/5
f 646/264/98 73/264/98 80/266/98
f 80/266/98 622/604/98 619/309/98
f 138/280/99 144/282/99 616/282/99
f 49/219/100 54/258/100 648/310/100
f 659/308/101 105/272/101 111/274/101
f 637/312/102 610/312/102 611/289/102
f 611/289/102 178/289/102 636/311/102
f 643/253/167 633/605/167 634/313/167
f 80/266/104 86/268/104 623/268/104
f 144/282/105 152/284/105 617/284/105
f 54/258/106 60/260/106 649/260/106
f 621/316/168 658/274/168 111/274/168
f 111/274/107 119/276/107 620/315/107
f 643/253/109 31/253/109 38/252/109
f 90/270/110 662/270/110 624/319/110
f 624/319/110 623/606/110 86/268/110
f 160/220/111 615/220/111 617/284/111
f 67/262/112 645/262/112 649/260/112
f 612/320/113 620/315/113 119/276/113
f 119/276/113 127/278/113 613/278/113
f 290/321/114 688/607/114 694/322/114
f 294/324/115 291/323/115 694/322/115
f 294/324/116 691/325/116 695/326/116
f 295/327/117 695/326/117 692/328/117
f 300/330/118 298/329/118 692/328/118
f 301/332/119 300/330/119 693/331/119
f 303/334/120 301/332/120 674/333/120
f 305/336/121 303/334/121 672/335/121
f 308/338/122 305/336/122 671/337/122
f 309/340/123 308/338/123 673/339/123
f 312/342/124 309/340/124 675/341/124
f 314/344/125 312/342/125 670/343/125
f 315/346/126 314/344/126 676/345/126
f 317/348/127 315/346/127 667/347/127
f 319/350/128 317/348/128 668/349/128
f 322/352/129 319/350/129 666/351/129
f 324/354/130 322/352/130 669/353/130
f 325/356/131 324/354/131 664/355/131
f 328/358/132 325/356/132 665/357/132
f 330/360/133 328/358/133 663/359/133
f 684/362/134 332/364/134 330/360/134
f 686/363/135 334/498/135 332/364/135
f 335/365/136 334/498/136 686/363/136
f 337/367/137 335/365/137 680/366/137
f 340/369/138 337/367/138 677/368/138
f 342/371/139 340/369/139 679/370/139
f 344/373/140 342/371/140 678/372/140
f 683/376/169 685/608/169 346/375/169
f 346/375/141 344/373/141 682/374/141
f 346/375/142 685/608/142 687/377/142
f 350/379/143 348/378/143 687/377/143
f 350/379/144 690/380/144 689/381/144
f 352/382/145 689/381/145 688/383/145
f 92/387/6 94/609/6 1/610/6
f 1/610/6 5/611/6 8/385/6
f 8/385/6 11/612/6 14/613/6
f 14/613/6 16/614/6 20/615/6
f 20/615/6 22/616/6 26/617/6
f 26/617/6 29/616/6 32/615/6
f 32/615/6 35/614/6 37/613/6
f 37/613/6 41/612/6 44/385/6
f 44/385/6 46/611/6 50/610/6
f 50/610/6 52/609/6 56/387/6
f 56/387/6 58/618/6 61/619/6
f 61/619/6 65/620/6 68/386/6
f 68/386/6 71/621/6 74/622/6
f 74/622/6 77/621/6 79/386/6
f 79/386/6 82/620/6 85/619/6
f 85/619/6 88/618/6 92/387/6
f 92/387/6 1/610/6 8/385/6
f 8/385/6 14/613/6 20/615/6
f 20/615/6 26/617/6 32/615/6
f 32/615/6 37/613/6 44/385/6
f 44/385/6 50/610/6 56/387/6
f 56/387/6 61/619/6 68/386/6
f 68/386/6 74/622/6 79/386/6
f 79/386/6 85/619/6 92/387/6
f 92/387/6 8/385/6 20/615/6
f 20/615/6 32/615/6 44/385/6
f 44/385/6 56/387/6 68/386/6
f 68/386/6 79/386/6 92/387/6
f 92/387/6 20/615/6 44/385/6
f 276/388/6 273/388/6 576/389/6
f 199/390/6 197/396/6 456/391/6
f 278/392/6 276/392/6 580/388/6
f 98/393/3 99/394/3 418/394/3
f 196/395/6 453/623/6 456/396/6
f 279/397/6 278/392/6 583/392/6
f 99/394/3 102/398/3 415/398/3
f 194/399/6 451/624/6 453/395/6
f 279/397/6 588/397/6 591/400/6
f 102/398/3 104/401/3 414/401/3
f 191/402/6 450/402/6 451/399/6
f 282/400/6 591/400/6 595/403/6
f 106/404/3 411/404/3 414/401/3
f 191/402/6 189/405/6 448/405/6
f 286/406/6 284/403/6 595/403/6
f 108/407/3 410/407/3 411/404/3
f 189/405/6 187/408/6 445/408/6
f 287/409/6 286/406/6 599/406/6
f 108/407/3 110/410/3 407/410/3
f 187/408/6 186/411/6 444/411/6
f 226/412/6 287/409/6 604/409/6
f 110/410/3 112/625/3 405/413/3
f 183/414/6 442/414/6 444/411/6
f 112/413/3 113/413/3 403/415/3
f 182/416/6 440/416/6 442/414/6
f 116/417/3 401/415/3 403/415/3
f 182/416/6 180/418/6 437/418/6
f 118/419/3 400/417/3 401/417/3
f 180/418/6 177/418/6 435/420/6
f 120/421/3 397/626/3 400/419/3
f 177/420/6 176/420/6 433/422/6
f 121/423/3 395/627/3 397/421/3
f 224/424/114 161/427/114 5/425/114
f 161/427/115 164/429/115 8/428/115
f 164/429/116 165/431/116 11/430/116
f 165/431/117 167/432/117 14/218/117
f 167/432/118 170/434/118 16/433/118
f 170/434/119 172/436/119 20/435/119
f 172/436/120 173/438/120 22/437/120
f 173/438/121 176/422/121 26/439/121
f 176/422/122 177/420/122 29/253/122
f 177/420/123 180/418/123 32/252/123
f 180/418/124 182/416/124 35/255/124
f 182/416/125 183/414/125 37/219/125
f 183/414/126 186/411/126 41/258/126
f 186/411/127 187/408/127 44/260/127
f 187/408/128 189/405/128 46/262/128
f 189/405/129 191/402/129 50/264/129
f 191/402/130 194/399/130 52/266/130
f 194/399/131 196/395/131 56/268/131
f 196/395/132 197/396/132 58/270/132
f 197/396/133 199/390/133 61/36/133
f 199/390/134 201/440/134 65/272/134
f 201/440/135 204/441/135 68/274/135
f 204/441/136 205/442/136 71/276/136
f 205/442/137 207/443/137 74/278/137
f 207/443/138 210/444/138 77/280/138
f 210/444/139 211/445/139 79/282/139
f 211/445/140 214/446/140 82/284/140
f 214/446/141 215/447/141 85/220/141
f 215/447/142 217/448/142 88/287/142
f 217/448/143 219/449/143 92/289/143
f 219/449/144 221/450/144 94/312/144
f 221/450/145 224/497/145 1/451/145
f 287/409/145 226/412/145 98/452/145
f 286/406/144 287/409/144 159/453/144
f 284/403/143 286/406/143 157/454/143
f 282/400/142 284/403/142 155/455/142
f 279/397/141 282/400/141 153/456/141
f 278/392/140 279/397/140 151/457/140
f 276/388/139 278/392/139 150/458/139
f 273/389/138 276/388/138 148/459/138
f 271/461/137 273/389/137 145/460/137
f 269/463/136 271/461/136 143/462/136
f 268/465/135 269/463/135 142/464/135
f 266/467/134 268/465/134 139/466/134
f 264/469/133 266/467/133 137/468/133
f 261/471/132 264/469/132 136/470/132
f 260/473/131 261/471/131 133/472/131
f 258/475/130 260/473/130 132/474/130
f 256/477/129 258/475/129 129/476/129
f 253/479/128 256/477/128 128/478/128
f 252/481/127 253/479/127 126/480/127
f 249/483/126 252/481/126 123/482/126
f 247/484/125 249/483/125 121/423/125
f 245/485/124 247/484/124 120/421/124
f 243/486/123 245/485/123 118/419/123
f 241/487/122 243/486/122 116/417/122
f 239/488/121 241/487/121 113/415/121
f 237/489/120 239/488/120 112/413/120
f 235/490/119 237/489/119 110/410/119
f 233/491/118 235/490/118 108/407/118
f 231/492/117 233/491/117 106/404/117
f 229/493/116 231/492/116 104/401/116
f 227/494/115 229/493/115 102/398/115
f 98/393/114 226/499/114 227/494/114
f 173/438/6 431/422/6 433/422/6
f 121/423/3 123/482/3 393/495/3
f 172/436/6 430/438/6 431/438/6
f 126/480/3 391/628/3 393/482/3
f 170/434/6 427/629/6 430/436/6
f 290/321/3 291/323/3 482/323/3
f 128/478/3 390/630/3 391/480/3
f 167/432/6 425/631/6 427/434/6
f 291/323/3 294/324/3 486/324/3
f 129/476/3 388/476/3 390/478/3
f 167/432/6 165/431/6 423/496/6
f 294/324/3 295/327/3 490/327/3
f 129/476/3 132/474/3 385/474/3
f 164/429/6 421/632/6 423/431/6
f 298/329/3 494/329/3 490/327/3
f 132/474/3 133/472/3 384/472/3
f 161/427/6 419/633/6 421/429/6
f 300/330/3 497/330/3 494/329/3
f 133/472/3 136/470/3 382/470/3
f 224/424/6 354/424/6 419/427/6
f 300/330/3 301/332/3 501/332/3
f 137/468/3 379/468/3 382/470/3
f 301/332/3 303/332/3 505/334/3
f 139/466/3 378/466/3 379/468/3
f 303/334/3 305/334/3 509/336/3
f 139/466/3 142/464/3 375/464/3
f 308/338/3 513/336/3 509/336/3
f 142/464/3 143/464/3 373/462/3
f 309/340/3 518/338/3 513/338/3
f 143/462/3 145/462/3 372/460/3
f 312/342/3 521/634/3 518/340/3
f 148/459/3 370/460/3 372/460/3
f 479/450/145 357/453/145 356/452/145
f 360/454/144 357/453/144 479/450/144
f 476/448/143 361/455/143 360/454/143
f 474/447/142 363/456/142 361/455/142
f 366/457/141 363/456/141 474/447/141
f 368/458/140 366/457/140 471/446/140
f 370/459/139 368/458/139 469/445/139
f 372/460/138 370/459/138 468/444/138
f 373/462/137 372/460/137 466/443/137
f 375/464/136 373/462/136 463/442/136
f 378/466/135 375/464/135 462/441/135
f 379/468/134 378/466/134 460/440/134
f 382/470/133 379/468/133 458/390/133
f 384/472/132 382/470/132 456/396/132
f 385/474/131 384/472/131 453/395/131
f 388/476/130 385/474/130 451/399/130
f 390/478/129 388/476/129 450/402/129
f 391/480/128 390/478/128 448/405/128
f 393/482/127 391/480/127 445/408/127
f 395/423/126 393/482/126 444/411/126
f 397/421/125 395/423/125 442/414/125
f 400/419/124 397/421/124 440/416/124
f 401/417/123 400/419/123 437/418/123
f 403/415/122 401/417/122 435/420/122
f 405/413/121 403/415/121 433/422/121
f 407/410/120 405/413/120 431/438/120
f 410/407/119 407/410/119 430/436/119
f 411/404/118 410/407/118 427/434/118
f 414/401/117 411/404/117 425/432/117
f 415/398/116 414/401/116 423/431/116
f 418/394/115 415/398/115 421/429/115
f 354/424/114 356/393/114 418/394/114
f 602/382/145 608/384/145 606/412/145
f 598/379/144 602/382/144 604/409/144
f 594/378/143 598/379/143 599/406/143
f 589/375/142 594/378/142 595/403/142
f 586/373/141 589/375/141 591/400/141
f 581/371/140 586/373/140 588/397/140
f 578/369/139 581/371/139 583/392/139
f 574/367/138 578/369/138 580/388/138
f 570/365/137 574/367/137 576/389/137
f 566/498/136 570/365/136 571/461/136
f 561/364/135 566/498/135 568/463/135
f 558/360/134 561/364/134 563/465/134
f 553/358/133 558/360/133 560/467/133
f 549/356/132 553/358/132 555/469/132
f 545/354/131 549/356/131 551/471/131
f 542/352/130 545/354/130 548/473/130
f 537/350/129 542/352/129 544/475/129
f 534/348/128 537/350/128 540/477/128
f 529/346/127 534/348/127 536/479/127
f 526/344/126 529/346/126 532/481/126
f 521/342/125 526/344/125 527/483/125
f 518/340/124 521/342/124 524/484/124
f 513/338/123 518/340/123 520/485/123
f 509/336/122 513/338/122 516/486/122
f 505/334/121 509/336/121 512/487/121
f 501/332/120 505/334/120 507/488/120
f 497/330/119 501/332/119 504/489/119
f 494/329/118 497/330/118 500/490/118
f 490/327/117 494/329/117 496/491/117
f 486/324/116 490/327/116 492/492/116
f 482/323/115 486/324/115 488/493/115
f 608/321/114 482/323/114 484/494/114
f 199/390/6 458/635/6 460/440/6
f 271/461/6 571/389/6 576/389/6
f 201/440/6 460/636/6 462/441/6
f 269/463/6 568/461/6 571/461/6
f 204/441/6 462/442/6 463/442/6
f 268/465/6 563/637/6 568/463/6
f 205/442/6 463/443/6 466/443/6
f 266/467/6 560/638/6 563/465/6
f 210/444/6 207/444/6 466/443/6
f 266/467/6 264/469/6 555/500/6
f 211/445/6 210/445/6 468/444/6
f 290/384/3 608/384/3 602/382/3
f 261/471/6 551/639/6 555/469/6
f 214/446/6 211/445/6 469/445/6
f 352/382/3 602/640/3 598/379/3
f 260/473/6 548/641/6 551/471/6
f 214/446/6 471/446/6 474/447/6
f 350/379/3 598/642/3 594/378/3
f 258/475/6 544/475/6 548/473/6
f 215/447/6 474/447/6 476/448/6
f 346/375/3 348/378/3 594/501/3
f 258/475/6 256/477/6 540/477/6
f 219/449/6 217/448/6 476/448/6
f 344/373/3 346/375/3 589/502/3
f 256/477/6 253/479/6 536/479/6
f 221/450/6 219/449/6 478/449/6
f 344/373/3 586/643/3 581/371/3
f 253/479/6 252/481/6 532/481/6
f 224/497/6 221/450/6 479/450/6
f 342/371/3 581/369/3 578/369/3
f 249/483/6 527/483/6 532/481/6
f 340/369/3 578/367/3 574/367/3
f 247/484/6 524/484/6 527/483/6
f 335/365/3 337/365/3 574/367/3
f 247/484/6 245/485/6 520/485/6
f 334/498/3 335/498/3 570/365/3
f 245/485/6 243/485/6 516/486/6
f 332/364/3 334/498/3 566/498/3
f 243/486/6 241/486/6 512/487/6
f 332/364/3 561/364/3 558/360/3
f 239/488/6 507/487/6 512/487/6
f 330/360/3 558/360/3 553/358/3
f 237/489/6 504/488/6 507/488/6
f 325/356/3 328/358/3 553/358/3
f 235/490/6 500/644/6 504/489/6
f 98/452/3 356/452/3 357/453/3
f 324/354/3 325/356/3 549/356/3
f 235/490/6 233/491/6 496/503/6
f 159/453/3 357/645/3 360/454/3
f 322/352/3 324/354/3 545/354/3
f 233/491/6 231/492/6 492/504/6
f 157/454/3 360/646/3 361/455/3
f 322/352/3 542/352/3 537/350/3
f 229/493/6 488/647/6 492/492/6
f 153/456/3 155/455/3 361/505/3
f 319/350/3 537/648/3 534/348/3
f 227/494/6 484/649/6 488/493/6
f 153/456/3 363/650/3 366/457/3
f 317/348/3 534/651/3 529/346/3
f 226/499/6 606/499/6 484/494/6
f 151/457/3 366/652/3 368/458/3
f 314/344/3 315/346/3 529/506/3
f 150/458/3 368/459/3 370/459/3
f 314/344/3 526/653/3 521/342/3
